mtllib cargo_elevator_guide_p1_m1.mtl
usemtl Texture
v 1.500000 0.000000 -1.250000
v 1.500000 0.000000 -1.500000
v 1.250000 0.000000 -1.250000
v 1.250000 0.000000 -1.500000
v 1.500000 1.000000 -1.250000
v 1.500000 1.000000 -1.500000
v 1.250000 1.000000 -1.250000
v 1.250000 1.000000 -1.500000
vt 0.000000 0.000000
vt 0.031746 0.032258
vt 0.000000 0.032258
vt 0.031746 0.161290
vt 0.000000 0.193548
vt 0.000000 0.161290
vt 0.095238 0.032258
vt 0.063492 0.161290
vt 0.063492 0.032258
vt 0.126984 0.032258
vt 0.095238 0.161290
vt 0.031746 0.000000
vt 0.031746 0.193548
vt 0.126984 0.161290
vn 0.0000 1.0000 0.0000
vn 0.0000 -1.0000 0.0000
vn -1.0000 0.0000 0.0000
vn 0.0000 0.0000 -1.0000
vn -0.0000 0.0000 1.0000
vn 1.0000 0.0000 0.0000
f 3/1/2 2/2/2 1/3/2
f 6/4/1 7/5/1 5/6/1
f 2/2/6 5/6/6 1/3/6
f 3/7/3 8/8/3 4/9/3
f 4/9/4 6/4/4 2/2/4
f 1/10/5 7/11/5 3/7/5
f 3/1/2 4/12/2 2/2/2
f 6/4/1 8/13/1 7/5/1
f 2/2/6 6/4/6 5/6/6
f 3/7/3 7/11/3 8/8/3
f 4/9/4 8/8/4 6/4/4
f 1/10/5 5/14/5 7/11/5
