mtllib cargo_elevator_guide_m1_p1.mtl
usemtl Texture
v -1.500000 1.000000 1.250000
v -1.500000 1.000000 1.500000
v -1.250000 1.000000 1.250000
v -1.250000 1.000000 1.500000
v -1.250000 0.000000 1.500000
v -1.250000 0.000000 1.250000
v -1.500000 0.000000 1.500000
v -1.500000 0.000000 1.250000
vt 0.031746 0.161290
vt 0.000000 0.193548
vt 0.000000 0.161290
vt 0.000000 0.000000
vt 0.031746 0.032258
vt 0.000000 0.032258
vt 0.095238 0.032258
vt 0.063492 0.161290
vt 0.063492 0.032258
vt 0.126984 0.032258
vt 0.095238 0.161290
vt 0.031746 0.193548
vt 0.031746 0.000000
vt 0.126984 0.161290
vn 0.0000 1.0000 0.0000
vn 0.0000 -1.0000 0.0000
vn -1.0000 0.0000 0.0000
vn 0.0000 0.0000 -1.0000
vn -0.0000 0.0000 1.0000
vn 1.0000 0.0000 0.0000
f 3/1/1 2/2/1 4/3/1
f 7/4/2 6/5/2 5/6/2
f 7/7/3 1/8/3 8/9/3
f 8/9/4 3/1/4 6/5/4
f 5/10/5 2/11/5 7/7/5
f 6/5/6 4/3/6 5/6/6
f 3/1/1 1/12/1 2/2/1
f 7/4/2 8/13/2 6/5/2
f 7/7/3 2/11/3 1/8/3
f 8/9/4 1/8/4 3/1/4
f 5/10/5 4/14/5 2/11/5
f 6/5/6 3/1/6 4/3/6
