mtllib cargo_elevator_guides.mtl
usemtl Texture
v -1.500000 1.000000 1.250000
v -1.500000 1.000000 1.500000
v -1.250000 1.000000 1.250000
v -1.250000 1.000000 1.500000
v -1.250000 0.000000 1.500000
v -1.250000 0.000000 1.250000
v -1.500000 0.000000 1.500000
v -1.500000 0.000000 1.250000
v 1.500000 0.000000 1.500000
v 1.500000 0.000000 1.250000
v 1.250000 0.000000 1.500000
v 1.250000 0.000000 1.250000
v -1.250000 0.000000 -1.250000
v -1.250000 0.000000 -1.500000
v -1.500000 0.000000 -1.250000
v -1.500000 0.000000 -1.500000
v 1.500000 0.000000 -1.250000
v 1.500000 0.000000 -1.500000
v 1.250000 0.000000 -1.250000
v 1.250000 0.000000 -1.500000
v 1.500000 1.000000 1.500000
v 1.500000 1.000000 1.250000
v 1.250000 1.000000 1.500000
v 1.250000 1.000000 1.250000
v -1.250000 1.000000 -1.250000
v -1.250000 1.000000 -1.500000
v -1.500000 1.000000 -1.250000
v -1.500000 1.000000 -1.500000
v 1.500000 1.000000 -1.250000
v 1.500000 1.000000 -1.500000
v 1.250000 1.000000 -1.250000
v 1.250000 1.000000 -1.500000
vt 0.031746 0.161290
vt 0.000000 0.193548
vt 0.000000 0.161290
vt 0.000000 0.000000
vt 0.031746 0.032258
vt 0.000000 0.032258
vt 0.000000 0.032258
vt 0.031746 0.000000
vt 0.031746 0.032258
vt 0.000000 0.032258
vt 0.031746 0.000000
vt 0.031746 0.032258
vt 0.000000 0.000000
vt 0.031746 0.032258
vt 0.000000 0.032258
vt 0.000000 0.161290
vt 0.031746 0.193548
vt 0.000000 0.193548
vt 0.000000 0.161290
vt 0.031746 0.193548
vt 0.000000 0.193548
vt 0.031746 0.161290
vt 0.000000 0.193548
vt 0.000000 0.161290
vt 0.095238 0.032258
vt 0.063492 0.161290
vt 0.063492 0.032258
vt 0.095238 0.032258
vt 0.063492 0.161290
vt 0.063492 0.032258
vt 0.031746 0.161290
vt 0.126984 0.032258
vt 0.095238 0.161290
vt 0.126984 0.032258
vt 0.095238 0.161290
vt 0.095238 0.032258
vt 0.063492 0.161290
vt 0.063492 0.032258
vt 0.095238 0.032258
vt 0.063492 0.161290
vt 0.063492 0.032258
vt 0.031746 0.161290
vt 0.126984 0.032258
vt 0.095238 0.161290
vt 0.126984 0.032258
vt 0.095238 0.161290
vt 0.031746 0.193548
vt 0.031746 0.000000
vt 0.000000 0.000000
vt 0.000000 0.000000
vt 0.031746 0.000000
vt 0.031746 0.193548
vt 0.126984 0.161290
vt 0.126984 0.161290
vt 0.126984 0.161290
vt 0.126984 0.161290
vn 0.0000 1.0000 0.0000
vn 0.0000 -1.0000 0.0000
vn -1.0000 0.0000 0.0000
vn 0.0000 0.0000 -1.0000
vn -0.0000 0.0000 1.0000
vn 1.0000 0.0000 0.0000
f 3/1/1 2/2/1 4/3/1
f 7/4/2 6/5/2 5/6/2
f 9/7/2 12/8/2 10/9/2
f 13/10/2 16/11/2 14/12/2
f 19/13/2 18/14/2 17/15/2
f 21/16/1 24/17/1 23/18/1
f 25/19/1 28/20/1 27/21/1
f 30/22/1 31/23/1 29/24/1
f 7/25/3 1/26/3 8/27/3
f 15/28/3 28/29/3 16/30/3
f 8/27/4 3/1/4 6/5/4
f 16/30/4 26/31/4 14/12/4
f 5/32/5 2/33/5 7/25/5
f 13/34/5 27/35/5 15/28/5
f 10/9/6 21/16/6 9/7/6
f 18/14/6 29/24/6 17/15/6
f 11/36/3 24/37/3 12/38/3
f 19/39/3 32/40/3 20/41/3
f 12/38/4 22/42/4 10/9/4
f 20/41/4 30/22/4 18/14/4
f 9/43/5 23/44/5 11/36/5
f 6/5/6 4/3/6 5/6/6
f 17/45/5 31/46/5 19/39/5
f 14/12/6 25/19/6 13/10/6
f 3/1/1 1/47/1 2/2/1
f 7/4/2 8/48/2 6/5/2
f 9/7/2 11/49/2 12/8/2
f 13/10/2 15/50/2 16/11/2
f 19/13/2 20/51/2 18/14/2
f 21/16/1 22/42/1 24/17/1
f 25/19/1 26/31/1 28/20/1
f 30/22/1 32/52/1 31/23/1
f 7/25/3 2/33/3 1/26/3
f 15/28/3 27/35/3 28/29/3
f 8/27/4 1/26/4 3/1/4
f 16/30/4 28/29/4 26/31/4
f 5/32/5 4/53/5 2/33/5
f 13/34/5 25/54/5 27/35/5
f 10/9/6 22/42/6 21/16/6
f 18/14/6 30/22/6 29/24/6
f 11/36/3 23/44/3 24/37/3
f 19/39/3 31/46/3 32/40/3
f 12/38/4 24/37/4 22/42/4
f 20/41/4 32/40/4 30/22/4
f 9/43/5 21/55/5 23/44/5
f 6/5/6 3/1/6 4/3/6
f 17/45/5 29/56/5 31/46/5
f 14/12/6 26/31/6 25/19/6
