mtllib cargo_elevator_platform.mtl
usemtl Texture
v -1.500000 0.750000 1.250000
v -1.250000 0.750000 1.250000
v -1.250000 0.750000 1.500000
v 1.500000 0.750000 1.250000
v 1.250000 0.750000 1.500000
v 1.250000 0.750000 1.250000
v -1.250000 0.750000 -1.250000
v -1.250000 0.750000 -1.500000
v -1.500000 0.750000 -1.250000
v 1.500000 0.750000 -1.250000
v 1.250000 0.750000 -1.250000
v 1.250000 0.750000 -1.500000
v -1.000000 0.750000 1.250000
v -1.000000 0.750000 -1.250000
v 1.000000 0.750000 1.250000
v 1.000000 0.750000 -1.250000
v 1.250000 0.750000 1.000000
v -1.250000 0.750000 1.000000
v 1.250000 0.750000 -1.000000
v -1.250000 0.750000 -1.000000
v -1.250000 1.000000 1.250000
v -1.500000 1.000000 1.250000
v -1.250000 1.000000 1.500000
v 1.250000 1.000000 1.500000
v 1.250000 1.000000 1.250000
v 1.500000 1.000000 1.250000
v -1.250000 1.000000 -1.250000
v -1.250000 1.000000 -1.500000
v -1.500000 1.000000 -1.250000
v 1.250000 1.000000 -1.250000
v 1.250000 1.000000 -1.500000
v 1.500000 1.000000 -1.250000
v -1.000000 1.000000 1.250000
v 1.000000 1.000000 1.250000
v 1.250000 1.000000 1.000000
v 1.250000 1.000000 -1.000000
v 1.000000 1.000000 -1.250000
v -1.000000 1.000000 -1.250000
v -1.250000 1.000000 -1.000000
v -1.250000 1.000000 1.000000
v -1.000000 0.781250 1.250000
v 1.000000 0.781250 1.250000
v 1.250000 0.781250 1.000000
v 1.250000 0.781250 -1.000000
v 1.000000 0.781250 -1.250000
v -1.000000 0.781250 -1.250000
v -1.250000 0.781250 -1.000000
v -1.250000 0.781250 1.000000
v -1.000000 0.968750 1.250000
v 1.000000 0.968750 1.250000
v 1.250000 0.968750 1.000000
v 1.250000 0.968750 -1.000000
v 1.000000 0.968750 -1.250000
v -1.000000 0.968750 -1.250000
v -1.250000 0.968750 -1.000000
v -1.250000 0.968750 1.000000
v -0.500000 0.750000 -0.250000
v -0.250000 0.750000 -0.500000
v -0.250000 0.750000 0.500000
v -0.500000 0.750000 0.250000
v 0.250000 0.750000 -0.500000
v 0.500000 0.750000 -0.250000
v 0.500000 0.750000 0.250000
v 0.250000 0.750000 0.500000
v 0.500000 1.000000 -0.250000
v 0.250000 1.000000 -0.500000
v -0.250000 1.000000 -0.500000
v -0.500000 1.000000 -0.250000
v -0.500000 1.000000 0.250000
v -0.250000 1.000000 0.500000
v 0.250000 1.000000 0.500000
v 0.500000 1.000000 0.250000
vt 0.936508 0.322581
vt 0.968254 0.032258
vt 0.968254 0.354839
vt 0.619048 0.387097
vt 0.904762 0.354839
vt 0.936508 0.387097
vt 0.587302 0.354839
vt 0.619048 0.064516
vt 0.619048 0.322581
vt 0.904762 0.032258
vt 0.619048 -0.000000
vt 0.936508 0.000000
vt 0.936508 0.032258
vt 0.936508 0.064516
vt 0.936508 0.354839
vt 0.619048 0.354839
vt 0.650794 0.354839
vt 0.650794 0.032258
vt 0.619048 0.032258
vt 0.968254 0.774194
vt 0.936508 0.483871
vt 0.968254 0.451613
vt 0.904762 0.451613
vt 0.619048 0.419355
vt 0.936508 0.419355
vt 0.619048 0.741935
vt 0.587302 0.451613
vt 0.619048 0.483871
vt 0.619048 0.806452
vt 0.904762 0.774194
vt 0.936508 0.806452
vt 0.936508 0.741935
vt 0.936508 0.774194
vt 0.936508 0.451613
vt 0.619048 0.451613
vt 0.619048 0.774194
vt 0.650794 0.774194
vt 0.555556 0.451613
vt 0.587302 0.774194
vt 0.555556 0.774194
vt 0.587302 0.419355
vt 0.555556 0.354839
vt 0.587302 0.354839
vt 0.650794 0.516129
vt 0.904762 0.483871
vt 0.904762 0.516129
vt 0.428571 0.419355
vt 0.460317 0.322581
vt 0.936508 0.516129
vt 0.396825 0.354839
vt 0.396825 0.419355
vt 0.523810 0.290323
vt 0.460317 0.290323
vt 0.619048 0.838710
vt 0.936508 0.838710
vt 0.650794 0.322581
vt 0.904762 0.064516
vt 1.000000 0.774194
vt 1.000000 0.451613
vt 0.460317 0.483871
vt 0.523810 0.451613
vt 0.523810 0.483871
vt 0.936508 0.709677
vt 0.904762 0.741935
vt 0.904762 0.709677
vt 0.126984 0.677419
vt 0.380952 0.677419
vt 0.126984 1.000000
vt 0.650794 0.709677
vt 0.619048 0.709677
vt 0.619048 0.516129
vt 0.650794 0.483871
vt 0.126984 0.677419
vt 0.380952 0.677419
vt 0.412698 0.709677
vt 0.650794 0.741935
vt 0.428571 0.290323
vt 0.428571 0.451613
vt 0.460317 0.451613
vt 0.555556 0.483871
vt 0.555556 0.322581
vt 0.523810 0.322581
vt 0.428571 0.258065
vt 0.460317 0.161290
vt 0.968254 0.387097
vt 1.000000 0.419355
vt 1.000000 0.806452
vt 0.968254 0.806452
vt 0.968254 0.838710
vt 0.587302 0.838710
vt 0.587302 0.806452
vt 0.555556 0.806452
vt 0.587302 0.419355
vt 0.555556 0.419355
vt 0.587302 0.387097
vt 0.587302 0.032258
vt 0.650794 0.451613
vt 0.555556 0.419355
vt 0.428571 0.354839
vt 0.650794 0.064516
vt 0.904762 0.322581
vt 0.412698 0.709677
vt 0.412698 0.967742
vt 0.380952 1.000000
vt 0.095238 0.967742
vt 0.095238 0.709677
vt 0.412698 0.967742
vt 0.095238 0.967742
vt 0.380952 1.000000
vt 0.126984 1.000000
vt 0.095238 0.709677
vt 0.428571 0.322581
vt 0.428571 0.483871
vt 0.555556 0.451613
vt 0.555556 0.290323
vt 0.523810 0.161290
vt 0.555556 0.193548
vt 0.555556 0.258065
vt 0.428571 0.193548
vt 0.968254 0.419355
vn 0.0000 -1.0000 0.0000
vn 0.0000 1.0000 0.0000
vn 0.0000 0.0000 1.0000
vn 0.0000 0.0000 -1.0000
vn -1.0000 0.0000 0.0000
vn -0.7071 0.0000 0.7071
vn 1.0000 0.0000 0.0000
vn 0.7071 0.0000 0.7071
vn 0.7071 0.0000 -0.7071
vn -0.7071 0.0000 -0.7071
f 16/1/1 8/2/1 12/3/1
f 4/4/1 19/5/1 10/6/1
f 5/7/1 13/8/1 15/9/1
f 20/10/1 1/11/1 9/12/1
f 7/13/1 14/14/1 20/10/1
f 11/15/1 19/5/1 16/1/1
f 6/16/1 15/9/1 17/17/1
f 18/18/1 13/8/1 2/19/1
f 28/20/2 37/21/2 31/22/2
f 36/23/2 26/24/2 32/25/2
f 33/26/2 24/27/2 34/28/2
f 22/29/2 39/30/2 29/31/2
f 38/32/2 28/20/2 27/33/2
f 36/23/2 32/25/2 30/34/2
f 34/28/2 24/27/2 25/35/2
f 21/36/2 33/26/2 40/37/2
f 5/38/3 23/39/3 3/40/3
f 58/41/4 66/42/4 61/43/4
f 17/44/5 36/45/5 19/46/5
f 70/47/2 72/48/2 66/42/2
f 19/46/6 37/21/6 16/49/6
f 64/50/3 70/47/3 59/51/3
f 62/52/7 72/48/7 63/53/7
f 1/54/5 29/31/5 9/55/5
f 13/8/4 34/56/4 15/9/4
f 16/1/3 38/57/3 14/14/3
f 8/58/4 31/22/4 12/59/4
f 60/60/5 68/61/5 57/62/5
f 14/63/8 39/64/8 20/65/8
f 10/6/7 26/24/7 4/4/7
f 51/66/2 52/67/2 56/68/2
f 18/69/9 33/26/9 13/70/9
f 15/71/10 35/72/10 17/44/10
f 48/73/1 47/74/1 46/75/1
f 20/65/7 40/76/7 18/69/7
f 72/48/8 64/77/8 63/53/8
f 60/60/6 70/78/6 69/79/6
f 68/61/10 58/80/10 57/62/10
f 62/52/9 66/81/9 65/82/9
f 62/52/1 64/83/1 60/84/1
f 11/85/4 32/25/4 10/6/4
f 31/22/7 11/86/7 12/59/7
f 7/87/5 28/20/5 8/58/5
f 9/55/4 27/88/4 7/89/4
f 2/90/3 22/29/3 1/54/3
f 3/40/5 21/91/5 2/92/5
f 25/93/7 5/38/7 6/94/7
f 4/4/3 25/93/3 6/95/3
f 16/1/1 14/14/1 8/2/1
f 4/4/1 17/17/1 19/5/1
f 5/7/1 3/96/1 13/8/1
f 20/10/1 18/18/1 1/11/1
f 7/13/1 8/2/1 14/14/1
f 20/10/1 9/12/1 7/13/1
f 11/15/1 10/6/1 19/5/1
f 16/1/1 12/3/1 11/15/1
f 6/16/1 5/7/1 15/9/1
f 17/17/1 4/4/1 6/16/1
f 2/19/1 1/11/1 18/18/1
f 13/8/1 3/96/1 2/19/1
f 28/20/2 38/32/2 37/21/2
f 36/23/2 35/97/2 26/24/2
f 33/26/2 23/39/2 24/27/2
f 22/29/2 40/37/2 39/30/2
f 27/33/2 29/31/2 39/30/2
f 39/30/2 38/32/2 27/33/2
f 30/34/2 31/22/2 37/21/2
f 37/21/2 36/23/2 30/34/2
f 25/35/2 26/24/2 35/97/2
f 35/97/2 34/28/2 25/35/2
f 40/37/2 22/29/2 21/36/2
f 21/36/2 23/39/2 33/26/2
f 5/38/3 24/27/3 23/39/3
f 58/41/4 67/98/4 66/42/4
f 17/44/5 35/72/5 36/45/5
f 66/42/2 67/98/2 68/61/2
f 68/61/2 69/79/2 70/47/2
f 70/47/2 71/99/2 72/48/2
f 72/48/2 65/82/2 66/42/2
f 66/42/2 68/61/2 70/47/2
f 19/46/6 36/45/6 37/21/6
f 64/50/3 71/99/3 70/47/3
f 62/52/7 65/82/7 72/48/7
f 1/54/5 22/29/5 29/31/5
f 13/8/4 33/100/4 34/56/4
f 16/1/3 37/101/3 38/57/3
f 8/58/4 28/20/4 31/22/4
f 60/60/5 69/79/5 68/61/5
f 14/63/8 38/32/8 39/64/8
f 10/6/7 32/25/7 26/24/7
f 52/67/2 53/102/2 54/103/2
f 54/103/2 55/104/2 52/67/2
f 55/104/2 56/68/2 52/67/2
f 56/68/2 49/105/2 50/106/2
f 50/106/2 51/66/2 56/68/2
f 18/69/9 40/76/9 33/26/9
f 15/71/10 34/28/10 35/72/10
f 46/75/1 45/107/1 42/108/1
f 45/107/1 44/109/1 42/108/1
f 44/109/1 43/110/1 42/108/1
f 42/108/1 41/111/1 46/75/1
f 41/111/1 48/73/1 46/75/1
f 20/65/7 39/64/7 40/76/7
f 72/48/8 71/112/8 64/77/8
f 60/60/6 59/113/6 70/78/6
f 68/61/10 67/114/10 58/80/10
f 62/52/9 61/115/9 66/81/9
f 60/84/1 57/116/1 58/117/1
f 58/117/1 61/118/1 62/52/1
f 62/52/1 63/53/1 64/83/1
f 64/83/1 59/119/1 60/84/1
f 60/84/1 58/117/1 62/52/1
f 11/85/4 30/120/4 32/25/4
f 31/22/7 30/120/7 11/86/7
f 7/87/5 27/88/5 28/20/5
f 9/55/4 29/31/4 27/88/4
f 2/90/3 21/91/3 22/29/3
f 3/40/5 23/39/5 21/91/5
f 25/93/7 24/27/7 5/38/7
f 4/4/3 26/24/3 25/93/3
