mtllib cargo_elevator_piston.mtl
usemtl Texture
v 0.250000 0.750000 0.250000
v 0.250000 0.750000 -0.250000
v -0.250000 0.750000 0.250000
v -0.250000 0.750000 -0.250000
v 0.250000 -0.250000 0.250000
v 0.250000 -0.250000 -0.250000
v -0.250000 -0.250000 0.250000
v -0.250000 -0.250000 -0.250000
vt 0.126984 0.677419
vt 0.190476 0.548387
vt 0.190476 0.677419
vt 0.317460 0.677419
vt 0.380952 0.548387
vt 0.380952 0.677419
vt 0.253968 0.677419
vt 0.317460 0.548387
vt 0.253968 0.548387
vt 0.126984 0.548387
vn 0.0000 0.0000 1.0000
vn -1.0000 0.0000 -0.0000
vn 0.0000 0.0000 -1.0000
vn 1.0000 0.0000 0.0000
f 3/1/1 5/2/1 1/3/1
f 4/4/2 7/5/2 3/6/2
f 2/7/3 8/8/3 4/4/3
f 1/3/4 6/9/4 2/7/4
f 3/1/1 7/10/1 5/2/1
f 4/4/2 8/8/2 7/5/2
f 2/7/3 6/9/3 8/8/3
f 1/3/4 5/2/4 6/9/4
