mtllib cargo_elevator_guide_m1_m1.mtl
usemtl Texture
v -1.250000 0.000000 -1.250000
v -1.250000 0.000000 -1.500000
v -1.500000 0.000000 -1.250000
v -1.500000 0.000000 -1.500000
v -1.250000 1.000000 -1.250000
v -1.250000 1.000000 -1.500000
v -1.500000 1.000000 -1.250000
v -1.500000 1.000000 -1.500000
vt 0.000000 0.032258
vt 0.031746 0.000000
vt 0.031746 0.032258
vt 0.000000 0.161290
vt 0.031746 0.193548
vt 0.000000 0.193548
vt 0.095238 0.032258
vt 0.063492 0.161290
vt 0.063492 0.032258
vt 0.031746 0.161290
vt 0.126984 0.032258
vt 0.095238 0.161290
vt 0.000000 0.000000
vt 0.126984 0.161290
vn 0.0000 1.0000 0.0000
vn 0.0000 -1.0000 0.0000
vn -1.0000 0.0000 0.0000
vn 0.0000 0.0000 -1.0000
vn -0.0000 0.0000 1.0000
vn 1.0000 0.0000 0.0000
f 1/1/2 4/2/2 2/3/2
f 5/4/1 8/5/1 7/6/1
f 3/7/3 8/8/3 4/9/3
f 4/9/4 6/10/4 2/3/4
f 1/11/5 7/12/5 3/7/5
f 2/3/6 5/4/6 1/1/6
f 1/1/2 3/13/2 4/2/2
f 5/4/1 6/10/1 8/5/1
f 3/7/3 7/12/3 8/8/3
f 4/9/4 8/8/4 6/10/4
f 1/11/5 5/14/5 7/12/5
f 2/3/6 6/10/6 5/4/6
