mtllib cargo_elevator_base.mtl
usemtl Texture
v -1.000000 0.000000 -1.000000
v -1.000000 0.000000 1.000000
v 1.000000 0.000000 -1.000000
v 1.000000 0.000000 1.000000
v 0.500000 0.125000 -0.500000
v -0.500000 0.125000 -0.500000
v -0.500000 0.125000 0.500000
v 0.500000 0.125000 0.500000
v 1.000000 0.125000 -1.000000
v -1.000000 0.125000 -1.000000
v -1.000000 0.125000 1.000000
v 1.000000 0.125000 1.000000
v 0.500000 0.250000 -0.500000
v -0.500000 0.250000 -0.500000
v -0.500000 0.250000 0.500000
v 0.500000 0.250000 0.500000
vt 0.380952 0.258065
vt 0.126984 0.000000
vt 0.380952 0.000000
vt 0.380952 0.016129
vt 0.396825 0.145161
vt 0.380952 0.145161
vt 0.111111 0.274194
vt 0.126984 0.532258
vt 0.111111 0.532258
vt 0.396825 0.532258
vt 0.380952 0.274194
vt 0.396825 0.274194
vt 0.126984 0.274194
vt 0.126984 0.258065
vt 0.126984 0.548387
vt 0.380952 0.532258
vt 0.380952 0.548387
vt 0.317460 0.338710
vt 0.317460 0.467742
vt 0.190476 0.467742
vt 0.190476 0.338710
vt 0.523810 0.016129
vt 0.523810 0.145161
vt 0.539683 0.145161
vt 0.539683 0.016129
vt 0.523810 -0.000000
vt 0.396825 0.016129
vt 0.396825 -0.000000
vt 0.396825 0.161290
vt 0.523810 0.161290
vn 0.0000 -1.0000 0.0000
vn -0.0000 0.0000 1.0000
vn 0.0000 0.0000 -1.0000
vn 1.0000 0.0000 0.0000
vn -1.0000 0.0000 -0.0000
vn 0.0000 1.0000 0.0000
f 3/1/1 2/2/1 1/3/1
f 8/4/2 15/5/2 7/6/2
f 4/7/2 11/8/2 2/9/2
f 1/10/3 9/11/3 3/12/3
f 3/1/4 12/13/4 4/14/4
f 2/15/5 10/16/5 1/17/5
f 5/18/6 10/16/6 6/19/6
f 6/19/6 11/8/6 7/20/6
f 7/20/6 12/13/6 8/21/6
f 8/21/6 9/11/6 5/18/6
f 15/5/6 13/22/6 14/23/6
f 6/24/3 13/22/3 5/25/3
f 5/26/4 16/27/4 8/28/4
f 7/29/5 14/23/5 6/30/5
f 3/1/1 4/14/1 2/2/1
f 8/4/2 16/27/2 15/5/2
f 4/7/2 12/13/2 11/8/2
f 1/10/3 10/16/3 9/11/3
f 3/1/4 9/11/4 12/13/4
f 2/15/5 11/8/5 10/16/5
f 5/18/6 9/11/6 10/16/6
f 6/19/6 10/16/6 11/8/6
f 7/20/6 11/8/6 12/13/6
f 8/21/6 12/13/6 9/11/6
f 15/5/6 16/27/6 13/22/6
f 6/24/3 14/23/3 13/22/3
f 5/26/4 13/22/4 16/27/4
f 7/29/5 15/5/5 14/23/5
