mtllib transition_seal_cylinder_011.mtl
usemtl Texture
v -0.026600 4.660983 -0.113792
v -0.026600 4.591441 -0.132521
v -0.026600 4.729374 0.007058
v 0.029793 4.062973 0.146624
v -0.026600 4.066120 -0.132373
v 0.029793 4.066120 -0.132373
v 0.029793 4.588294 0.146477
v -0.026600 4.062973 0.146624
v 0.029793 4.062973 0.146624
v 0.029793 4.658258 0.127827
v 0.029793 4.588294 0.146477
v 0.029793 4.591441 -0.132521
v -0.026600 4.591441 -0.132521
v 0.029793 4.660983 -0.113792
v 0.029793 4.591441 -0.132521
v -0.026600 4.660983 -0.113792
v 0.029793 4.711471 -0.062703
v 0.029793 4.660983 -0.113792
v -0.026600 4.711471 -0.062703
v 0.029793 4.729374 0.007058
v 0.029793 4.711471 -0.062703
v -0.026600 4.588294 0.146477
v 0.029793 4.658258 0.127827
v -0.026600 4.658258 0.127827
v -0.026600 4.658258 0.127827
v 0.029793 4.709897 0.076796
v -0.026600 4.709897 0.076796
v -0.026600 4.709897 0.076796
v 0.029793 4.729374 0.007058
v -0.026600 4.729374 0.007058
v 0.029793 4.591441 -0.132521
v -0.026600 4.066120 -0.132373
v -0.026600 4.591441 -0.132521
v 0.000001 1.607589 -0.196391
v -0.091744 4.144977 -0.136691
v 0.000001 4.145468 -0.161269
v -0.091744 4.144977 -0.136691
v -0.183487 4.141795 0.022168
v -0.091745 4.138617 0.181028
v -0.183487 1.603917 -0.012955
v -0.158905 4.139960 0.113884
v -0.183487 4.141795 0.022168
v 0.091747 1.600738 0.145905
v 0.000002 4.138125 0.205604
v 0.000001 1.600246 0.170482
v 0.000001 1.607589 -0.196391
v 0.091748 4.144977 -0.136691
v 0.091747 1.607098 -0.171814
v -0.158906 1.605754 -0.104670
v -0.183487 4.141795 0.022168
v -0.158905 4.143633 -0.069547
v -0.091745 1.600738 0.145905
v 0.000002 4.138125 0.205604
v -0.091745 4.138617 0.181028
v 0.091747 1.607098 -0.171814
v 0.158908 4.143632 -0.069548
v 0.158908 1.605754 -0.104670
v 0.183490 1.603917 -0.012955
v 0.158908 4.139961 0.113884
v 0.158908 1.602082 0.078762
v -0.091745 1.607098 -0.171814
v -0.158905 4.143633 -0.069547
v -0.091744 4.144977 -0.136691
v -0.158906 1.602081 0.078762
v -0.091745 4.138617 0.181028
v -0.158905 4.139960 0.113884
v 0.158908 1.605754 -0.104670
v 0.183490 4.141796 0.022167
v 0.183490 1.603917 -0.012955
v 0.158908 1.602082 0.078762
v 0.091748 4.138617 0.181028
v 0.091747 1.600738 0.145905
v -0.026600 4.591441 -0.132521
v -0.026600 4.066120 -0.132373
v -0.026600 4.588294 0.146477
v -0.026600 4.066120 -0.132373
v -0.026600 4.062973 0.146624
v -0.026600 4.588294 0.146477
v -0.026600 4.588294 0.146477
v -0.026600 4.658258 0.127827
v -0.026600 4.591441 -0.132521
v -0.026600 4.591441 -0.132521
v -0.026600 4.658258 0.127827
v -0.026600 4.709897 0.076796
v -0.026600 4.709897 0.076796
v -0.026600 4.729374 0.007058
v -0.026600 4.591441 -0.132521
v -0.026600 4.729374 0.007058
v -0.026600 4.711471 -0.062703
v -0.026600 4.660983 -0.113792
v 0.029793 4.062973 0.146624
v -0.026600 4.062973 0.146624
v -0.026600 4.066120 -0.132373
v 0.029793 4.588294 0.146477
v -0.026600 4.588294 0.146477
v -0.026600 4.062973 0.146624
v 0.029793 4.066120 -0.132373
v 0.029793 4.591441 -0.132521
v 0.029793 4.588294 0.146477
v 0.029793 4.591441 -0.132521
v 0.029793 4.660983 -0.113792
v 0.029793 4.729374 0.007058
v 0.029793 4.066120 -0.132373
v 0.029793 4.588294 0.146477
v 0.029793 4.062973 0.146624
v 0.029793 4.660983 -0.113792
v 0.029793 4.711471 -0.062703
v 0.029793 4.729374 0.007058
v 0.029793 4.729374 0.007058
v 0.029793 4.709897 0.076796
v 0.029793 4.591441 -0.132521
v 0.029793 4.709897 0.076796
v 0.029793 4.658258 0.127827
v 0.029793 4.591441 -0.132521
v -0.026600 4.591441 -0.132521
v -0.026600 4.660983 -0.113792
v 0.029793 4.660983 -0.113792
v -0.026600 4.660983 -0.113792
v -0.026600 4.711471 -0.062703
v 0.029793 4.711471 -0.062703
v -0.026600 4.711471 -0.062703
v -0.026600 4.729374 0.007058
v 0.029793 4.729374 0.007058
v -0.026600 4.588294 0.146477
v 0.029793 4.588294 0.146477
v 0.029793 4.658258 0.127827
v -0.026600 4.658258 0.127827
v 0.029793 4.658258 0.127827
v 0.029793 4.709897 0.076796
v -0.026600 4.709897 0.076796
v 0.029793 4.709897 0.076796
v 0.029793 4.729374 0.007058
v 0.029793 4.591441 -0.132521
v 0.029793 4.066120 -0.132373
v -0.026600 4.066120 -0.132373
v 0.000001 1.607589 -0.196391
v -0.091745 1.607098 -0.171814
v -0.091744 4.144977 -0.136691
v 0.091748 4.138617 0.181028
v 0.158908 4.139961 0.113884
v 0.091748 4.144977 -0.136691
v 0.158908 4.139961 0.113884
v 0.183490 4.141796 0.022167
v 0.091748 4.144977 -0.136691
v 0.183490 4.141796 0.022167
v 0.158908 4.143632 -0.069548
v 0.091748 4.144977 -0.136691
v 0.091748 4.144977 -0.136691
v 0.000001 4.145468 -0.161269
v 0.091748 4.138617 0.181028
v 0.000001 4.145468 -0.161269
v -0.091744 4.144977 -0.136691
v 0.091748 4.138617 0.181028
v -0.091744 4.144977 -0.136691
v -0.158905 4.143633 -0.069547
v -0.183487 4.141795 0.022168
v -0.183487 4.141795 0.022168
v -0.158905 4.139960 0.113884
v -0.091745 4.138617 0.181028
v -0.091745 4.138617 0.181028
v 0.000002 4.138125 0.205604
v -0.091744 4.144977 -0.136691
v 0.000002 4.138125 0.205604
v 0.091748 4.138617 0.181028
v -0.091744 4.144977 -0.136691
v -0.183487 1.603917 -0.012955
v -0.158906 1.602081 0.078762
v -0.158905 4.139960 0.113884
v 0.091747 1.600738 0.145905
v 0.091748 4.138617 0.181028
v 0.000002 4.138125 0.205604
v 0.000001 1.607589 -0.196391
v 0.000001 4.145468 -0.161269
v 0.091748 4.144977 -0.136691
v -0.158906 1.605754 -0.104670
v -0.183487 1.603917 -0.012955
v -0.183487 4.141795 0.022168
v -0.091745 1.600738 0.145905
v 0.000001 1.600246 0.170482
v 0.000002 4.138125 0.205604
v 0.091747 1.607098 -0.171814
v 0.091748 4.144977 -0.136691
v 0.158908 4.143632 -0.069548
v 0.183490 1.603917 -0.012955
v 0.183490 4.141796 0.022167
v 0.158908 4.139961 0.113884
v -0.091745 1.607098 -0.171814
v -0.158906 1.605754 -0.104670
v -0.158905 4.143633 -0.069547
v -0.158906 1.602081 0.078762
v -0.091745 1.600738 0.145905
v -0.091745 4.138617 0.181028
v 0.158908 1.605754 -0.104670
v 0.158908 4.143632 -0.069548
v 0.183490 4.141796 0.022167
v 0.158908 1.602082 0.078762
v 0.158908 4.139961 0.113884
v 0.091748 4.138617 0.181028
vt 0.060202 0.009665
vt 0.059992 0.010445
vt 0.061558 0.008899
vt 0.309397 0.017659
vt 0.309977 0.014751
vt 0.309256 0.015364
vt 0.304459 0.019011
vt 0.309977 0.018116
vt 0.309397 0.017659
vt 0.749390 0.015946
vt 0.749599 0.015161
vt 0.746471 0.015197
vt 0.303541 0.014657
vt 0.303085 0.015937
vt 0.303870 0.015521
vt 0.302407 0.015331
vt 0.302616 0.016725
vt 0.303085 0.015937
vt 0.301708 0.016512
vt 0.302582 0.017666
vt 0.302616 0.016725
vt 0.304499 0.019673
vt 0.303673 0.018978
vt 0.303465 0.019684
vt 0.303465 0.019684
vt 0.302983 0.018491
vt 0.302372 0.019097
vt 0.302372 0.019097
vt 0.302582 0.017666
vt 0.301690 0.017914
vt 0.303870 0.015521
vt 0.309977 0.014751
vt 0.303541 0.014657
vt 0.092609 0.090284
vt 0.093674 0.061828
vt 0.092609 0.061826
vt 0.595715 0.004539
vt 0.593727 0.004007
vt 0.592273 0.005461
vt 0.083025 0.090297
vt 0.084090 0.061845
vt 0.083026 0.061839
vt 0.087285 0.090308
vt 0.086220 0.061851
vt 0.086220 0.090309
vt 0.092609 0.090284
vt 0.091545 0.061828
vt 0.091544 0.090286
vt 0.094739 0.090290
vt 0.095804 0.061839
vt 0.094739 0.061832
vt 0.085155 0.090308
vt 0.086220 0.061851
vt 0.085155 0.061850
vt 0.091544 0.090286
vt 0.090480 0.061832
vt 0.090480 0.090290
vt 0.089415 0.090297
vt 0.088350 0.061845
vt 0.088350 0.090303
vt 0.093674 0.090286
vt 0.094739 0.061832
vt 0.093674 0.061828
vt 0.084090 0.090303
vt 0.085155 0.061850
vt 0.084090 0.061845
vt 0.090480 0.090290
vt 0.089415 0.061839
vt 0.089415 0.090297
vt 0.088350 0.090303
vt 0.087285 0.061850
vt 0.087285 0.090308
vt 0.059992 0.010445
vt 0.059992 0.016335
vt 0.063120 0.010481
vt 0.059992 0.016335
vt 0.063120 0.016371
vt 0.063120 0.010481
vt 0.063120 0.010481
vt 0.062912 0.009696
vt 0.059992 0.010445
vt 0.059992 0.010445
vt 0.062912 0.009696
vt 0.062340 0.009117
vt 0.062340 0.009117
vt 0.061558 0.008899
vt 0.059992 0.010445
vt 0.061558 0.008899
vt 0.060775 0.009099
vt 0.060202 0.009665
vt 0.309397 0.017659
vt 0.309977 0.018116
vt 0.309977 0.014751
vt 0.304459 0.019011
vt 0.304499 0.019673
vt 0.309977 0.018116
vt 0.746471 0.009307
vt 0.746471 0.015197
vt 0.749599 0.015161
vt 0.746471 0.015197
vt 0.746681 0.015977
vt 0.748036 0.016744
vt 0.746471 0.009307
vt 0.749599 0.015161
vt 0.749599 0.009271
vt 0.746681 0.015977
vt 0.747254 0.016543
vt 0.748036 0.016744
vt 0.748036 0.016744
vt 0.748818 0.016525
vt 0.746471 0.015197
vt 0.748818 0.016525
vt 0.749390 0.015946
vt 0.746471 0.015197
vt 0.303541 0.014657
vt 0.302407 0.015331
vt 0.303085 0.015937
vt 0.302407 0.015331
vt 0.301708 0.016512
vt 0.302616 0.016725
vt 0.301708 0.016512
vt 0.301690 0.017914
vt 0.302582 0.017666
vt 0.304499 0.019673
vt 0.304459 0.019011
vt 0.303673 0.018978
vt 0.303465 0.019684
vt 0.303673 0.018978
vt 0.302983 0.018491
vt 0.302372 0.019097
vt 0.302983 0.018491
vt 0.302582 0.017666
vt 0.303870 0.015521
vt 0.309256 0.015364
vt 0.309977 0.014751
vt 0.092609 0.090284
vt 0.093674 0.090286
vt 0.093674 0.061828
vt 0.592805 0.007449
vt 0.593727 0.007981
vt 0.596247 0.006526
vt 0.593727 0.007981
vt 0.594792 0.007981
vt 0.596247 0.006526
vt 0.594792 0.007981
vt 0.595715 0.007449
vt 0.596247 0.006526
vt 0.596247 0.006526
vt 0.596247 0.005462
vt 0.592805 0.007449
vt 0.596247 0.005462
vt 0.595715 0.004539
vt 0.592805 0.007449
vt 0.595715 0.004539
vt 0.594792 0.004007
vt 0.593727 0.004007
vt 0.593727 0.004007
vt 0.592805 0.004539
vt 0.592273 0.005461
vt 0.592273 0.005461
vt 0.592273 0.006526
vt 0.595715 0.004539
vt 0.592273 0.006526
vt 0.592805 0.007449
vt 0.595715 0.004539
vt 0.083025 0.090297
vt 0.084090 0.090303
vt 0.084090 0.061845
vt 0.087285 0.090308
vt 0.087285 0.061850
vt 0.086220 0.061851
vt 0.092609 0.090284
vt 0.092609 0.061826
vt 0.091545 0.061828
vt 0.094739 0.090290
vt 0.095804 0.090297
vt 0.095804 0.061839
vt 0.085155 0.090308
vt 0.086220 0.090309
vt 0.086220 0.061851
vt 0.091544 0.090286
vt 0.091545 0.061828
vt 0.090480 0.061832
vt 0.089415 0.090297
vt 0.089415 0.061839
vt 0.088350 0.061845
vt 0.093674 0.090286
vt 0.094739 0.090290
vt 0.094739 0.061832
vt 0.084090 0.090303
vt 0.085155 0.090308
vt 0.085155 0.061850
vt 0.090480 0.090290
vt 0.090480 0.061832
vt 0.089415 0.061839
vt 0.088350 0.090303
vt 0.088350 0.061845
vt 0.087285 0.061850
vn -1.000000 -0.000000 0.000000
vn -1.000000 0.000000 0.000000
vn -1.000000 -0.000000 0.000000
vn 0.000000 -0.999936 -0.011278
vn 0.000000 -0.999936 -0.011278
vn 0.000000 -0.999937 -0.011278
vn 0.000000 0.130025 0.991511
vn 0.000000 0.000280 1.000000
vn 0.000000 0.000280 1.000000
vn 1.000000 0.000000 0.000000
vn 1.000000 0.000000 0.000000
vn 1.000000 0.000000 0.000000
vn 0.000000 0.131021 -0.991380
vn 0.000000 0.503116 -0.864219
vn 0.000000 0.131021 -0.991380
vn 0.000000 0.503116 -0.864219
vn 0.000000 0.870122 -0.492836
vn 0.000000 0.503116 -0.864219
vn 0.000000 0.870122 -0.492836
vn 0.000000 0.999944 0.010563
vn 0.000000 0.870122 -0.492836
vn 0.000000 0.130025 0.991511
vn 0.000000 0.496872 0.867824
vn 0.000000 0.496872 0.867824
vn 0.000000 0.496872 0.867824
vn 0.000000 0.861878 0.507116
vn 0.000000 0.861878 0.507116
vn 0.000000 0.861878 0.507116
vn 0.000000 0.999944 0.010563
vn 0.000000 0.999944 0.010563
vn 0.000000 0.131021 -0.991380
vn 0.000000 -0.000281 -1.000000
vn 0.000000 0.131021 -0.991380
vn 0.000002 0.013838 -0.999904
vn -0.499539 0.011988 -0.866209
vn -0.000001 0.013838 -0.999904
vn 0.000010 0.999800 0.020014
vn -0.000012 0.999800 0.020015
vn -0.000005 0.999800 0.020011
vn -1.000000 -0.000014 0.001017
vn -0.866451 -0.006909 0.499215
vn -1.000000 0.000014 -0.001020
vn 0.499536 -0.011988 0.866210
vn 0.000000 -0.013838 0.999904
vn 0.000000 -0.013838 0.999904
vn 0.000002 0.013838 -0.999904
vn 0.499535 0.011988 -0.866211
vn 0.500417 0.011981 -0.865702
vn -0.866452 0.006909 -0.499212
vn -1.000000 0.000014 -0.001020
vn -0.865570 0.006930 -0.500741
vn -0.499536 -0.011988 0.866210
vn 0.000000 -0.013838 0.999904
vn -0.500413 -0.011981 0.865704
vn 0.500417 0.011981 -0.865702
vn 0.865568 0.006930 -0.500743
vn 0.866450 0.006909 -0.499215
vn 1.000000 -0.000014 0.001016
vn 0.866451 -0.006909 0.499214
vn 0.865571 -0.006930 0.500739
vn -0.500417 0.011981 -0.865702
vn -0.865570 0.006930 -0.500741
vn -0.499539 0.011988 -0.866209
vn -0.865571 -0.006930 0.500738
vn -0.500413 -0.011981 0.865704
vn -0.866451 -0.006909 0.499215
vn 0.866450 0.006909 -0.499215
vn 1.000000 0.000014 -0.001019
vn 1.000000 -0.000014 0.001016
vn 0.865571 -0.006930 0.500739
vn 0.500414 -0.011981 0.865704
vn 0.499536 -0.011988 0.866210
vn -1.000000 0.000000 0.000000
vn -1.000000 0.000000 0.000000
vn -1.000000 -0.000000 0.000000
vn -1.000000 0.000000 0.000000
vn -1.000000 0.000000 0.000000
vn -1.000000 -0.000000 0.000000
vn -1.000000 -0.000000 0.000000
vn -1.000000 -0.000000 0.000000
vn -1.000000 0.000000 0.000000
vn -1.000000 0.000000 0.000000
vn -1.000000 -0.000000 0.000000
vn -1.000000 -0.000000 0.000000
vn -1.000000 -0.000000 0.000000
vn -1.000000 -0.000000 0.000000
vn -1.000000 0.000000 0.000000
vn -1.000000 -0.000000 0.000000
vn -1.000000 -0.000000 0.000000
vn -1.000000 -0.000000 0.000000
vn 0.000000 -0.999936 -0.011278
vn 0.000000 -0.999937 -0.011278
vn 0.000000 -0.999936 -0.011278
vn 0.000000 0.130025 0.991511
vn 0.000000 0.130025 0.991511
vn 0.000000 0.000280 1.000000
vn 1.000000 0.000000 0.000000
vn 1.000000 0.000000 0.000000
vn 1.000000 0.000000 0.000000
vn 1.000000 0.000000 0.000000
vn 1.000000 0.000000 0.000000
vn 1.000000 0.000000 0.000000
vn 1.000000 0.000000 0.000000
vn 1.000000 0.000000 0.000000
vn 1.000000 0.000000 0.000000
vn 1.000000 0.000000 0.000000
vn 1.000000 0.000000 0.000000
vn 1.000000 0.000000 0.000000
vn 1.000000 0.000000 0.000000
vn 1.000000 0.000000 0.000000
vn 1.000000 0.000000 0.000000
vn 1.000000 0.000000 0.000000
vn 1.000000 0.000000 0.000000
vn 1.000000 0.000000 0.000000
vn 0.000000 0.131021 -0.991380
vn 0.000000 0.503116 -0.864219
vn 0.000000 0.503116 -0.864219
vn 0.000000 0.503116 -0.864219
vn 0.000000 0.870122 -0.492836
vn 0.000000 0.870122 -0.492836
vn 0.000000 0.870122 -0.492836
vn 0.000000 0.999944 0.010563
vn 0.000000 0.999944 0.010563
vn 0.000000 0.130025 0.991511
vn 0.000000 0.130025 0.991511
vn 0.000000 0.496872 0.867824
vn 0.000000 0.496872 0.867824
vn 0.000000 0.496872 0.867824
vn 0.000000 0.861878 0.507116
vn 0.000000 0.861878 0.507116
vn 0.000000 0.861878 0.507116
vn 0.000000 0.999944 0.010563
vn 0.000000 0.131021 -0.991380
vn 0.000000 -0.000281 -1.000000
vn 0.000000 -0.000281 -1.000000
vn 0.000002 0.013838 -0.999904
vn -0.500417 0.011981 -0.865702
vn -0.499539 0.011988 -0.866209
vn 0.000006 0.999800 0.020011
vn 0.000020 0.999800 0.020011
vn -0.000011 0.999800 0.020013
vn 0.000020 0.999800 0.020011
vn 0.000006 0.999800 0.020009
vn -0.000011 0.999800 0.020013
vn 0.000006 0.999800 0.020009
vn -0.000026 0.999799 0.020025
vn -0.000011 0.999800 0.020013
vn -0.000011 0.999800 0.020013
vn 0.000002 0.999800 0.020010
vn 0.000006 0.999800 0.020011
vn 0.000002 0.999800 0.020010
vn 0.000010 0.999800 0.020014
vn 0.000006 0.999800 0.020011
vn 0.000010 0.999800 0.020014
vn 0.000079 0.999799 0.020052
vn -0.000012 0.999800 0.020015
vn -0.000012 0.999800 0.020015
vn 0.000000 0.999800 0.020002
vn -0.000005 0.999800 0.020011
vn -0.000005 0.999800 0.020011
vn 0.000000 0.999800 0.020011
vn 0.000010 0.999800 0.020014
vn 0.000000 0.999800 0.020011
vn 0.000006 0.999800 0.020011
vn 0.000010 0.999800 0.020014
vn -1.000000 -0.000014 0.001017
vn -0.865571 -0.006930 0.500738
vn -0.866451 -0.006909 0.499215
vn 0.499536 -0.011988 0.866210
vn 0.500414 -0.011981 0.865704
vn 0.000000 -0.013838 0.999904
vn 0.000002 0.013838 -0.999904
vn -0.000001 0.013838 -0.999904
vn 0.499535 0.011988 -0.866211
vn -0.866452 0.006909 -0.499212
vn -1.000000 -0.000014 0.001017
vn -1.000000 0.000014 -0.001020
vn -0.499536 -0.011988 0.866210
vn 0.000000 -0.013838 0.999904
vn 0.000000 -0.013838 0.999904
vn 0.500417 0.011981 -0.865702
vn 0.499535 0.011988 -0.866211
vn 0.865568 0.006930 -0.500743
vn 1.000000 -0.000014 0.001016
vn 1.000000 0.000014 -0.001019
vn 0.866451 -0.006909 0.499214
vn -0.500417 0.011981 -0.865702
vn -0.866452 0.006909 -0.499212
vn -0.865570 0.006930 -0.500741
vn -0.865571 -0.006930 0.500738
vn -0.499536 -0.011988 0.866210
vn -0.500413 -0.011981 0.865704
vn 0.866450 0.006909 -0.499215
vn 0.865568 0.006930 -0.500743
vn 1.000000 0.000014 -0.001019
vn 0.865571 -0.006930 0.500739
vn 0.866451 -0.006909 0.499214
vn 0.500414 -0.011981 0.865704
f 1/1/1 2/2/2 3/3/3
f 4/4/4 5/5/5 6/6/6
f 7/7/7 8/8/8 9/9/9
f 10/10/10 11/11/11 12/12/12
f 13/13/13 14/14/14 15/15/15
f 16/16/16 17/17/17 18/18/18
f 19/19/19 20/20/20 21/21/21
f 22/22/22 23/23/23 24/24/24
f 25/25/25 26/26/26 27/27/27
f 28/28/28 29/29/29 30/30/30
f 31/31/31 32/32/32 33/33/33
f 34/34/34 35/35/35 36/36/36
f 37/37/37 38/38/38 39/39/39
f 40/40/40 41/41/41 42/42/42
f 43/43/43 44/44/44 45/45/45
f 46/46/46 47/47/47 48/48/48
f 49/49/49 50/50/50 51/51/51
f 52/52/52 53/53/53 54/54/54
f 55/55/55 56/56/56 57/57/57
f 58/58/58 59/59/59 60/60/60
f 61/61/61 62/62/62 63/63/63
f 64/64/64 65/65/65 66/66/66
f 67/67/67 68/68/68 69/69/69
f 70/70/70 71/71/71 72/72/72
f 73/73/73 74/74/74 75/75/75
f 76/76/76 77/77/77 78/78/78
f 79/79/79 80/80/80 81/81/81
f 82/82/82 83/83/83 84/84/84
f 85/85/85 86/86/86 87/87/87
f 88/88/88 89/89/89 90/90/90
f 91/91/91 92/92/92 93/93/93
f 94/94/94 95/95/95 96/96/96
f 97/97/97 98/98/98 99/99/99
f 100/100/100 101/101/101 102/102/102
f 103/103/103 104/104/104 105/105/105
f 106/106/106 107/107/107 108/108/108
f 109/109/109 110/110/110 111/111/111
f 112/112/112 113/113/113 114/114/114
f 115/115/115 116/116/116 117/117/117
f 118/118/118 119/119/119 120/120/120
f 121/121/121 122/122/122 123/123/123
f 124/124/124 125/125/125 126/126/126
f 127/127/127 128/128/128 129/129/129
f 130/130/130 131/131/131 132/132/132
f 133/133/133 134/134/134 135/135/135
f 136/136/136 137/137/137 138/138/138
f 139/139/139 140/140/140 141/141/141
f 142/142/142 143/143/143 144/144/144
f 145/145/145 146/146/146 147/147/147
f 148/148/148 149/149/149 150/150/150
f 151/151/151 152/152/152 153/153/153
f 154/154/154 155/155/155 156/156/156
f 157/157/157 158/158/158 159/159/159
f 160/160/160 161/161/161 162/162/162
f 163/163/163 164/164/164 165/165/165
f 166/166/166 167/167/167 168/168/168
f 169/169/169 170/170/170 171/171/171
f 172/172/172 173/173/173 174/174/174
f 175/175/175 176/176/176 177/177/177
f 178/178/178 179/179/179 180/180/180
f 181/181/181 182/182/182 183/183/183
f 184/184/184 185/185/185 186/186/186
f 187/187/187 188/188/188 189/189/189
f 190/190/190 191/191/191 192/192/192
f 193/193/193 194/194/194 195/195/195
f 196/196/196 197/197/197 198/198/198
