mtllib transition_seal_cylinder_003.mtl
usemtl Texture
v -0.273237 1.941133 -0.015060
v -0.241136 0.353721 -0.160468
v -0.282591 0.353338 -0.015054
v -0.231781 1.941516 -0.160475
v -0.132528 0.353540 -0.265676
v -0.241136 0.353721 -0.160468
v -0.123174 1.941336 -0.265683
v 0.014130 0.352845 -0.302485
v -0.132528 0.353540 -0.265676
v 0.014130 0.352845 -0.302485
v 0.168898 1.939615 -0.261040
v 0.159543 0.351820 -0.261033
v 0.159543 0.351820 -0.261033
v 0.274101 1.938536 -0.152433
v 0.264747 0.350741 -0.152427
v 0.264747 0.350741 -0.152427
v 0.310907 1.937692 -0.005775
v 0.301552 0.349897 -0.005768
v 0.301552 0.349897 -0.005768
v 0.269452 1.937309 0.139640
v 0.260097 0.349514 0.139647
v 0.260097 0.349514 0.139647
v 0.160844 1.937489 0.244847
v 0.151489 0.349694 0.244854
v 0.151489 0.349694 0.244854
v 0.014185 1.938186 0.281657
v 0.004830 0.350390 0.281664
v 0.014185 1.938186 0.281657
v -0.140582 0.351415 0.240212
v 0.004830 0.350390 0.281664
v 0.271062 1.937902 -0.005942
v 0.236252 2.105165 0.119397
v 0.235258 1.936947 0.119607
v -0.131228 1.939210 0.240205
v -0.245786 0.352494 0.131606
v -0.140582 0.351415 0.240212
v -0.236431 1.940289 0.131599
v -0.282591 0.353338 -0.015054
v -0.245786 0.352494 0.131606
v 0.013319 0.352631 -0.251484
v 0.132926 0.280730 -0.217576
v 0.012905 0.281576 -0.251789
v -0.197603 1.941830 -0.139510
v -0.273237 1.941133 -0.015060
v -0.233407 1.940875 -0.013961
v -0.103806 1.942131 -0.230344
v -0.231781 1.941516 -0.160475
v -0.197603 1.941830 -0.139510
v 0.022850 1.941698 -0.262124
v -0.123174 1.941336 -0.265683
v -0.103806 1.942131 -0.230344
v 0.022850 1.941698 -0.262124
v 0.168898 1.939615 -0.261040
v 0.023485 1.940639 -0.302491
v 0.148428 1.940646 -0.226335
v 0.274101 1.938536 -0.152433
v 0.168898 1.939615 -0.261040
v 0.239280 1.939256 -0.132565
v 0.310907 1.937692 -0.005775
v 0.274101 1.938536 -0.152433
v 0.271062 1.937902 -0.005942
v 0.269452 1.937309 0.139640
v 0.310907 1.937692 -0.005775
v 0.235258 1.936947 0.119607
v 0.160844 1.937489 0.244847
v 0.269452 1.937309 0.139640
v 0.141461 1.936645 0.210441
v 0.014185 1.938186 0.281657
v 0.160844 1.937489 0.244847
v -0.110773 1.938132 0.206431
v 0.014185 1.938186 0.281657
v 0.014805 1.937079 0.242221
v -0.201625 1.939521 0.112662
v -0.131228 1.939210 0.240205
v -0.110773 1.938132 0.206431
v -0.233407 1.940875 -0.013961
v -0.236431 1.940289 0.131599
v -0.201625 1.939521 0.112662
v 0.022850 1.941698 -0.262124
v 0.149422 2.108864 -0.226544
v 0.148428 1.940646 -0.226335
v -0.201625 1.939521 0.112662
v -0.109779 2.106349 0.206222
v -0.200631 2.107739 0.112453
v -0.197603 1.941830 -0.139510
v -0.232413 2.109093 -0.014170
v -0.196609 2.110047 -0.139719
v 0.235258 1.936947 0.119607
v 0.142456 2.104864 0.210232
v 0.141461 1.936645 0.210441
v 0.148428 1.940646 -0.226335
v 0.240274 2.107473 -0.132774
v 0.239280 1.939256 -0.132565
v -0.233407 1.940875 -0.013961
v -0.200631 2.107739 0.112453
v -0.232413 2.109093 -0.014170
v -0.103806 1.942131 -0.230344
v -0.196609 2.110047 -0.139719
v -0.102812 2.110350 -0.230554
v 0.141461 1.936645 0.210441
v 0.015800 2.105297 0.242012
v 0.014805 1.937079 0.242221
v 0.239280 1.939256 -0.132565
v 0.272056 2.106120 -0.006151
v 0.271062 1.937902 -0.005942
v 0.022850 1.941698 -0.262124
v -0.102812 2.110350 -0.230554
v 0.023844 2.109916 -0.262333
v -0.110773 1.938132 0.206431
v 0.015800 2.105297 0.242012
v -0.109779 2.106349 0.206222
v 0.142456 2.104864 0.210232
v 0.272056 2.106120 -0.006151
v 0.149422 2.108864 -0.226544
v -0.057559 0.002505 -0.202456
v 0.080064 0.311397 -0.185597
v 0.078473 0.001704 -0.200293
v 0.078473 0.001704 -0.200293
v 0.072862 0.000337 0.152217
v 0.074640 -0.175254 -0.024738
v -0.057559 0.002505 -0.202456
v -0.061392 -0.174452 -0.026900
v -0.063171 0.001138 0.150054
v 0.072862 0.000337 0.152217
v -0.063128 -0.125720 0.100331
v 0.072905 -0.126522 0.102493
v -0.063128 -0.125720 0.100331
v 0.074640 -0.175254 -0.024738
v 0.072905 -0.126522 0.102493
v 0.078473 0.001704 -0.200293
v -0.059083 -0.124735 -0.153741
v -0.057559 0.002505 -0.202456
v -0.059083 -0.124735 -0.153741
v 0.074640 -0.175254 -0.024738
v -0.061392 -0.174452 -0.026900
v -0.063171 0.001138 0.150054
v 0.074453 0.310030 0.166913
v -0.061580 0.310832 0.164750
v -0.231591 0.353038 -0.014243
v -0.241136 0.353721 -0.160468
v -0.197374 0.353354 -0.134266
v -0.197374 0.353354 -0.134266
v -0.132528 0.353540 -0.265676
v -0.107731 0.353205 -0.221102
v -0.107731 0.353205 -0.221102
v 0.014130 0.352845 -0.302485
v 0.013319 0.352631 -0.251484
v 0.013319 0.352631 -0.251484
v 0.159543 0.351820 -0.261033
v 0.133340 0.351785 -0.217270
v 0.133340 0.351785 -0.217270
v 0.264747 0.350741 -0.152427
v 0.220173 0.350894 -0.127629
v 0.220173 0.350894 -0.127629
v 0.301552 0.349897 -0.005768
v 0.250551 0.350197 -0.006578
v 0.250551 0.350197 -0.006578
v 0.260097 0.349514 0.139647
v 0.216335 0.349881 0.113445
v 0.126692 0.350030 0.200281
v 0.260097 0.349514 0.139647
v 0.151489 0.349694 0.244854
v 0.126692 0.350030 0.200281
v 0.004830 0.350390 0.281664
v 0.005642 0.350605 0.230663
v 0.005642 0.350605 0.230663
v -0.140582 0.351415 0.240212
v -0.114379 0.351450 0.196449
v -0.201212 0.352341 0.106807
v -0.140582 0.351415 0.240212
v -0.245786 0.352494 0.131606
v -0.231591 0.353038 -0.014243
v -0.245786 0.352494 0.131606
v -0.282591 0.353338 -0.015054
v 0.012905 0.281576 -0.251789
v 0.219759 0.279839 -0.127934
v 0.215921 0.278826 0.113139
v -0.201212 0.352341 0.106807
v -0.114793 0.280396 0.196144
v -0.114379 0.351450 0.196449
v -0.197374 0.353354 -0.134266
v -0.232005 0.281983 -0.014548
v -0.231591 0.353038 -0.014243
v 0.216335 0.349881 0.113445
v 0.126278 0.278976 0.199976
v 0.215921 0.278826 0.113139
v 0.133340 0.351785 -0.217270
v 0.219759 0.279839 -0.127934
v 0.132926 0.280730 -0.217576
v -0.231591 0.353038 -0.014243
v -0.201626 0.281286 0.106502
v -0.201212 0.352341 0.106807
v -0.197374 0.353354 -0.134266
v -0.108145 0.282150 -0.221408
v -0.197788 0.282299 -0.134571
v 0.126692 0.350030 0.200281
v 0.005229 0.279550 0.230357
v 0.126278 0.278976 0.199976
v 0.220173 0.350894 -0.127629
v 0.250138 0.279142 -0.006884
v 0.219759 0.279839 -0.127934
v -0.107731 0.353205 -0.221102
v 0.012905 0.281576 -0.251789
v -0.108145 0.282150 -0.221408
v 0.005642 0.350605 0.230663
v -0.114793 0.280396 0.196144
v 0.005229 0.279550 0.230357
v 0.250551 0.350197 -0.006578
v 0.215921 0.278826 0.113139
v 0.250138 0.279142 -0.006884
v -0.273237 1.941133 -0.015060
v -0.231781 1.941516 -0.160475
v -0.241136 0.353721 -0.160468
v -0.231781 1.941516 -0.160475
v -0.123174 1.941336 -0.265683
v -0.132528 0.353540 -0.265676
v -0.123174 1.941336 -0.265683
v 0.023485 1.940639 -0.302491
v 0.014130 0.352845 -0.302485
v 0.014130 0.352845 -0.302485
v 0.023485 1.940639 -0.302491
v 0.168898 1.939615 -0.261040
v 0.159543 0.351820 -0.261033
v 0.168898 1.939615 -0.261040
v 0.274101 1.938536 -0.152433
v 0.264747 0.350741 -0.152427
v 0.274101 1.938536 -0.152433
v 0.310907 1.937692 -0.005775
v 0.301552 0.349897 -0.005768
v 0.310907 1.937692 -0.005775
v 0.269452 1.937309 0.139640
v 0.260097 0.349514 0.139647
v 0.269452 1.937309 0.139640
v 0.160844 1.937489 0.244847
v 0.151489 0.349694 0.244854
v 0.160844 1.937489 0.244847
v 0.014185 1.938186 0.281657
v 0.014185 1.938186 0.281657
v -0.131228 1.939210 0.240205
v -0.140582 0.351415 0.240212
v 0.271062 1.937902 -0.005942
v 0.272056 2.106120 -0.006151
v 0.236252 2.105165 0.119397
v -0.131228 1.939210 0.240205
v -0.236431 1.940289 0.131599
v -0.245786 0.352494 0.131606
v -0.236431 1.940289 0.131599
v -0.273237 1.941133 -0.015060
v -0.282591 0.353338 -0.015054
v 0.013319 0.352631 -0.251484
v 0.133340 0.351785 -0.217270
v 0.132926 0.280730 -0.217576
v -0.197603 1.941830 -0.139510
v -0.231781 1.941516 -0.160475
v -0.273237 1.941133 -0.015060
v -0.103806 1.942131 -0.230344
v -0.123174 1.941336 -0.265683
v -0.231781 1.941516 -0.160475
v 0.022850 1.941698 -0.262124
v 0.023485 1.940639 -0.302491
v -0.123174 1.941336 -0.265683
v 0.022850 1.941698 -0.262124
v 0.148428 1.940646 -0.226335
v 0.168898 1.939615 -0.261040
v 0.148428 1.940646 -0.226335
v 0.239280 1.939256 -0.132565
v 0.274101 1.938536 -0.152433
v 0.239280 1.939256 -0.132565
v 0.271062 1.937902 -0.005942
v 0.310907 1.937692 -0.005775
v 0.271062 1.937902 -0.005942
v 0.235258 1.936947 0.119607
v 0.269452 1.937309 0.139640
v 0.235258 1.936947 0.119607
v 0.141461 1.936645 0.210441
v 0.160844 1.937489 0.244847
v 0.141461 1.936645 0.210441
v 0.014805 1.937079 0.242221
v 0.014185 1.938186 0.281657
v -0.110773 1.938132 0.206431
v -0.131228 1.939210 0.240205
v 0.014185 1.938186 0.281657
v -0.201625 1.939521 0.112662
v -0.236431 1.940289 0.131599
v -0.131228 1.939210 0.240205
v -0.233407 1.940875 -0.013961
v -0.273237 1.941133 -0.015060
v -0.236431 1.940289 0.131599
v 0.022850 1.941698 -0.262124
v 0.023844 2.109916 -0.262333
v 0.149422 2.108864 -0.226544
v -0.201625 1.939521 0.112662
v -0.110773 1.938132 0.206431
v -0.109779 2.106349 0.206222
v -0.197603 1.941830 -0.139510
v -0.233407 1.940875 -0.013961
v -0.232413 2.109093 -0.014170
v 0.235258 1.936947 0.119607
v 0.236252 2.105165 0.119397
v 0.142456 2.104864 0.210232
v 0.148428 1.940646 -0.226335
v 0.149422 2.108864 -0.226544
v 0.240274 2.107473 -0.132774
v -0.233407 1.940875 -0.013961
v -0.201625 1.939521 0.112662
v -0.200631 2.107739 0.112453
v -0.103806 1.942131 -0.230344
v -0.197603 1.941830 -0.139510
v -0.196609 2.110047 -0.139719
v 0.141461 1.936645 0.210441
v 0.142456 2.104864 0.210232
v 0.015800 2.105297 0.242012
v 0.239280 1.939256 -0.132565
v 0.240274 2.107473 -0.132774
v 0.272056 2.106120 -0.006151
v 0.022850 1.941698 -0.262124
v -0.103806 1.942131 -0.230344
v -0.102812 2.110350 -0.230554
v -0.110773 1.938132 0.206431
v 0.014805 1.937079 0.242221
v 0.015800 2.105297 0.242012
v -0.102812 2.110350 -0.230554
v -0.196609 2.110047 -0.139719
v -0.109779 2.106349 0.206222
v -0.196609 2.110047 -0.139719
v -0.232413 2.109093 -0.014170
v -0.109779 2.106349 0.206222
v -0.232413 2.109093 -0.014170
v -0.200631 2.107739 0.112453
v -0.109779 2.106349 0.206222
v -0.109779 2.106349 0.206222
v 0.015800 2.105297 0.242012
v -0.102812 2.110350 -0.230554
v 0.015800 2.105297 0.242012
v 0.142456 2.104864 0.210232
v 0.023844 2.109916 -0.262333
v -0.102812 2.110350 -0.230554
v 0.015800 2.105297 0.242012
v 0.023844 2.109916 -0.262333
v 0.142456 2.104864 0.210232
v 0.236252 2.105165 0.119397
v 0.272056 2.106120 -0.006151
v 0.272056 2.106120 -0.006151
v 0.240274 2.107473 -0.132774
v 0.149422 2.108864 -0.226544
v 0.149422 2.108864 -0.226544
v 0.023844 2.109916 -0.262333
v 0.142456 2.104864 0.210232
v -0.057559 0.002505 -0.202456
v -0.055968 0.312199 -0.187759
v 0.080064 0.311397 -0.185597
v 0.074453 0.310030 0.166913
v 0.072862 0.000337 0.152217
v 0.080064 0.311397 -0.185597
v 0.072862 0.000337 0.152217
v 0.072905 -0.126522 0.102493
v 0.074640 -0.175254 -0.024738
v 0.080064 0.311397 -0.185597
v 0.072862 0.000337 0.152217
v 0.078473 0.001704 -0.200293
v 0.074640 -0.175254 -0.024738
v 0.076949 -0.125537 -0.151578
v 0.078473 0.001704 -0.200293
v -0.063171 0.001138 0.150054
v -0.061580 0.310832 0.164750
v -0.055968 0.312199 -0.187759
v -0.055968 0.312199 -0.187759
v -0.057559 0.002505 -0.202456
v -0.063171 0.001138 0.150054
v -0.057559 0.002505 -0.202456
v -0.059083 -0.124735 -0.153741
v -0.061392 -0.174452 -0.026900
v -0.063171 0.001138 0.150054
v -0.061392 -0.174452 -0.026900
v -0.063128 -0.125720 0.100331
v 0.072862 0.000337 0.152217
v -0.063171 0.001138 0.150054
v -0.063128 -0.125720 0.100331
v -0.063128 -0.125720 0.100331
v -0.061392 -0.174452 -0.026900
v 0.074640 -0.175254 -0.024738
v 0.078473 0.001704 -0.200293
v 0.076949 -0.125537 -0.151578
v -0.059083 -0.124735 -0.153741
v -0.059083 -0.124735 -0.153741
v 0.076949 -0.125537 -0.151578
v 0.074640 -0.175254 -0.024738
v -0.063171 0.001138 0.150054
v 0.072862 0.000337 0.152217
v 0.074453 0.310030 0.166913
v -0.231591 0.353038 -0.014243
v -0.282591 0.353338 -0.015054
v -0.241136 0.353721 -0.160468
v -0.197374 0.353354 -0.134266
v -0.241136 0.353721 -0.160468
v -0.132528 0.353540 -0.265676
v -0.107731 0.353205 -0.221102
v -0.132528 0.353540 -0.265676
v 0.014130 0.352845 -0.302485
v 0.013319 0.352631 -0.251484
v 0.014130 0.352845 -0.302485
v 0.159543 0.351820 -0.261033
v 0.133340 0.351785 -0.217270
v 0.159543 0.351820 -0.261033
v 0.264747 0.350741 -0.152427
v 0.220173 0.350894 -0.127629
v 0.264747 0.350741 -0.152427
v 0.301552 0.349897 -0.005768
v 0.250551 0.350197 -0.006578
v 0.301552 0.349897 -0.005768
v 0.260097 0.349514 0.139647
v 0.126692 0.350030 0.200281
v 0.216335 0.349881 0.113445
v 0.260097 0.349514 0.139647
v 0.126692 0.350030 0.200281
v 0.151489 0.349694 0.244854
v 0.004830 0.350390 0.281664
v 0.005642 0.350605 0.230663
v 0.004830 0.350390 0.281664
v -0.140582 0.351415 0.240212
v -0.201212 0.352341 0.106807
v -0.114379 0.351450 0.196449
v -0.140582 0.351415 0.240212
v -0.231591 0.353038 -0.014243
v -0.201212 0.352341 0.106807
v -0.245786 0.352494 0.131606
v -0.201626 0.281286 0.106502
v -0.232005 0.281983 -0.014548
v -0.197788 0.282299 -0.134571
v -0.197788 0.282299 -0.134571
v -0.108145 0.282150 -0.221408
v 0.012905 0.281576 -0.251789
v 0.012905 0.281576 -0.251789
v 0.132926 0.280730 -0.217576
v 0.219759 0.279839 -0.127934
v 0.219759 0.279839 -0.127934
v 0.250138 0.279142 -0.006884
v 0.215921 0.278826 0.113139
v 0.215921 0.278826 0.113139
v 0.126278 0.278976 0.199976
v 0.005229 0.279550 0.230357
v 0.005229 0.279550 0.230357
v -0.114793 0.280396 0.196144
v 0.215921 0.278826 0.113139
v -0.114793 0.280396 0.196144
v -0.201626 0.281286 0.106502
v 0.215921 0.278826 0.113139
v -0.201626 0.281286 0.106502
v -0.197788 0.282299 -0.134571
v 0.215921 0.278826 0.113139
v -0.197788 0.282299 -0.134571
v 0.012905 0.281576 -0.251789
v 0.215921 0.278826 0.113139
v -0.201212 0.352341 0.106807
v -0.201626 0.281286 0.106502
v -0.114793 0.280396 0.196144
v -0.197374 0.353354 -0.134266
v -0.197788 0.282299 -0.134571
v -0.232005 0.281983 -0.014548
v 0.216335 0.349881 0.113445
v 0.126692 0.350030 0.200281
v 0.126278 0.278976 0.199976
v 0.133340 0.351785 -0.217270
v 0.220173 0.350894 -0.127629
v 0.219759 0.279839 -0.127934
v -0.231591 0.353038 -0.014243
v -0.232005 0.281983 -0.014548
v -0.201626 0.281286 0.106502
v -0.197374 0.353354 -0.134266
v -0.107731 0.353205 -0.221102
v -0.108145 0.282150 -0.221408
v 0.126692 0.350030 0.200281
v 0.005642 0.350605 0.230663
v 0.005229 0.279550 0.230357
v 0.220173 0.350894 -0.127629
v 0.250551 0.350197 -0.006578
v 0.250138 0.279142 -0.006884
v -0.107731 0.353205 -0.221102
v 0.013319 0.352631 -0.251484
v 0.012905 0.281576 -0.251789
v 0.005642 0.350605 0.230663
v -0.114379 0.351450 0.196449
v -0.114793 0.280396 0.196144
v 0.250551 0.350197 -0.006578
v 0.216335 0.349881 0.113445
v 0.215921 0.278826 0.113139
vt 0.956742 0.802689
vt 0.957636 0.833255
vt 0.956939 0.833636
vt 0.957223 0.800966
vt 0.958346 0.833595
vt 0.957636 0.833255
vt 0.957665 0.802763
vt 0.958939 0.834626
vt 0.958346 0.833595
vt 0.958939 0.834626
vt 0.958040 0.805489
vt 0.959294 0.836303
vt 0.959294 0.836303
vt 0.957946 0.806398
vt 0.959294 0.838579
vt 0.959294 0.838579
vt 0.957687 0.806978
vt 0.958833 0.841396
vt 0.958833 0.841396
vt 0.957330 0.807197
vt 0.957810 0.844697
vt 0.957810 0.844697
vt 0.956989 0.807006
vt 0.956698 0.841448
vt 0.956698 0.841448
vt 0.956753 0.806442
vt 0.956156 0.838659
vt 0.956753 0.806442
vt 0.956086 0.836390
vt 0.956156 0.838659
vt 0.145538 0.014618
vt 0.143928 0.015400
vt 0.145439 0.015349
vt 0.956565 0.805474
vt 0.956383 0.834697
vt 0.956086 0.836390
vt 0.956517 0.804179
vt 0.956939 0.833636
vt 0.956383 0.834697
vt 0.980715 0.009405
vt 0.981278 0.010385
vt 0.981278 0.009235
vt 0.838637 0.004530
vt 0.837616 0.004249
vt 0.837687 0.004530
vt 0.839458 0.005005
vt 0.838715 0.004249
vt 0.838637 0.004530
vt 0.839933 0.005827
vt 0.839667 0.004799
vt 0.839458 0.005005
vt 0.839933 0.005827
vt 0.840217 0.006850
vt 0.840217 0.005751
vt 0.839933 0.006776
vt 0.839667 0.007802
vt 0.840217 0.006850
vt 0.839459 0.007598
vt 0.838715 0.008351
vt 0.839667 0.007802
vt 0.838637 0.008073
vt 0.837616 0.008351
vt 0.838715 0.008351
vt 0.837688 0.008073
vt 0.836664 0.007802
vt 0.837616 0.008351
vt 0.836866 0.007598
vt 0.836114 0.006850
vt 0.836664 0.007802
vt 0.836391 0.005827
vt 0.836114 0.006850
vt 0.836391 0.006776
vt 0.836866 0.005005
vt 0.836114 0.005751
vt 0.836391 0.005827
vt 0.837687 0.004530
vt 0.836664 0.004799
vt 0.836866 0.005005
vt 0.147284 0.013776
vt 0.146480 0.012458
vt 0.146607 0.013721
vt 0.147620 0.016183
vt 0.147368 0.018060
vt 0.148710 0.017227
vt 0.148099 0.014838
vt 0.149422 0.015922
vt 0.149422 0.014502
vt 0.145439 0.015349
vt 0.144367 0.016911
vt 0.145703 0.016020
vt 0.146607 0.013721
vt 0.145213 0.012898
vt 0.145979 0.014032
vt 0.148022 0.015567
vt 0.148710 0.017227
vt 0.149422 0.015922
vt 0.147825 0.014189
vt 0.149422 0.014502
vt 0.148764 0.013329
vt 0.145703 0.016020
vt 0.145641 0.018078
vt 0.146266 0.016439
vt 0.145979 0.014032
vt 0.144265 0.013952
vt 0.145538 0.014618
vt 0.147284 0.013776
vt 0.148764 0.013329
vt 0.147705 0.012673
vt 0.146967 0.016500
vt 0.145641 0.018078
vt 0.147368 0.018060
vt 0.994775 0.040034
vt 0.995249 0.038262
vt 0.993952 0.036966
vt 0.071134 0.014117
vt 0.072123 0.016371
vt 0.072123 0.014117
vt 0.992467 0.806689
vt 0.995028 0.806800
vt 0.993803 0.805464
vt 0.992467 0.819433
vt 0.993803 0.820657
vt 0.995028 0.819321
vt 0.072123 0.010155
vt 0.071134 0.011146
vt 0.072123 0.011146
vt 0.071134 0.011146
vt 0.072123 0.012136
vt 0.072123 0.011146
vt 0.072123 0.014117
vt 0.071134 0.013127
vt 0.071134 0.014117
vt 0.071134 0.013127
vt 0.072123 0.012136
vt 0.071134 0.012136
vt 0.071134 0.010155
vt 0.072123 0.007902
vt 0.071134 0.007902
vt 0.994963 0.109439
vt 0.995775 0.108749
vt 0.995417 0.108653
vt 0.995417 0.108653
vt 0.995775 0.107650
vt 0.995417 0.107746
vt 0.995417 0.107746
vt 0.995225 0.106698
vt 0.994963 0.106960
vt 0.994963 0.106960
vt 0.994273 0.106148
vt 0.994177 0.106506
vt 0.994177 0.106506
vt 0.993174 0.106148
vt 0.993270 0.106506
vt 0.993270 0.106506
vt 0.992222 0.106698
vt 0.992484 0.106960
vt 0.992484 0.106960
vt 0.991672 0.107650
vt 0.992031 0.107746
vt 0.992031 0.108653
vt 0.991672 0.107650
vt 0.991672 0.108749
vt 0.992031 0.108653
vt 0.992222 0.109701
vt 0.992484 0.109439
vt 0.992484 0.109439
vt 0.993174 0.110250
vt 0.993270 0.109892
vt 0.994177 0.109892
vt 0.993174 0.110250
vt 0.994273 0.110250
vt 0.994963 0.109439
vt 0.994273 0.110250
vt 0.995225 0.109701
vt 0.475388 0.004954
vt 0.473695 0.004501
vt 0.472455 0.005740
vt 0.978032 0.008699
vt 0.976902 0.009197
vt 0.977552 0.009419
vt 0.979632 0.008290
vt 0.978702 0.007753
vt 0.978812 0.008322
vt 0.978637 0.011393
vt 0.977500 0.011435
vt 0.978514 0.011982
vt 0.980694 0.010244
vt 0.980689 0.011390
vt 0.981278 0.010385
vt 0.978812 0.008322
vt 0.977651 0.008210
vt 0.978032 0.008699
vt 0.979632 0.008290
vt 0.980700 0.008276
vt 0.979764 0.007786
vt 0.977904 0.010988
vt 0.976900 0.010432
vt 0.977500 0.011435
vt 0.980250 0.010974
vt 0.979677 0.011972
vt 0.980689 0.011390
vt 0.980321 0.008690
vt 0.981278 0.009235
vt 0.980700 0.008276
vt 0.977500 0.010260
vt 0.976902 0.009197
vt 0.976900 0.010432
vt 0.979498 0.011393
vt 0.978514 0.011982
vt 0.979677 0.011972
vt 0.956742 0.802689
vt 0.957223 0.800966
vt 0.957636 0.833255
vt 0.957223 0.800966
vt 0.957665 0.802763
vt 0.958346 0.833595
vt 0.957665 0.802763
vt 0.957895 0.804302
vt 0.958939 0.834626
vt 0.958939 0.834626
vt 0.957895 0.804302
vt 0.958040 0.805489
vt 0.959294 0.836303
vt 0.958040 0.805489
vt 0.957946 0.806398
vt 0.959294 0.838579
vt 0.957946 0.806398
vt 0.957687 0.806978
vt 0.958833 0.841396
vt 0.957687 0.806978
vt 0.957330 0.807197
vt 0.957810 0.844697
vt 0.957330 0.807197
vt 0.956989 0.807006
vt 0.956698 0.841448
vt 0.956989 0.807006
vt 0.956753 0.806442
vt 0.956753 0.806442
vt 0.956565 0.805474
vt 0.956086 0.836390
vt 0.145538 0.014618
vt 0.144265 0.013952
vt 0.143928 0.015400
vt 0.956565 0.805474
vt 0.956517 0.804179
vt 0.956383 0.834697
vt 0.956517 0.804179
vt 0.956742 0.802689
vt 0.956939 0.833636
vt 0.980715 0.009405
vt 0.980694 0.010244
vt 0.981278 0.010385
vt 0.838637 0.004530
vt 0.838715 0.004249
vt 0.837616 0.004249
vt 0.839458 0.005005
vt 0.839667 0.004799
vt 0.838715 0.004249
vt 0.839933 0.005827
vt 0.840217 0.005751
vt 0.839667 0.004799
vt 0.839933 0.005827
vt 0.839933 0.006776
vt 0.840217 0.006850
vt 0.839933 0.006776
vt 0.839459 0.007598
vt 0.839667 0.007802
vt 0.839459 0.007598
vt 0.838637 0.008073
vt 0.838715 0.008351
vt 0.838637 0.008073
vt 0.837688 0.008073
vt 0.837616 0.008351
vt 0.837688 0.008073
vt 0.836866 0.007598
vt 0.836664 0.007802
vt 0.836866 0.007598
vt 0.836391 0.006776
vt 0.836114 0.006850
vt 0.836391 0.005827
vt 0.836114 0.005751
vt 0.836114 0.006850
vt 0.836866 0.005005
vt 0.836664 0.004799
vt 0.836114 0.005751
vt 0.837687 0.004530
vt 0.837616 0.004249
vt 0.836664 0.004799
vt 0.147284 0.013776
vt 0.147705 0.012673
vt 0.146480 0.012458
vt 0.147620 0.016183
vt 0.146967 0.016500
vt 0.147368 0.018060
vt 0.148099 0.014838
vt 0.148022 0.015567
vt 0.149422 0.015922
vt 0.145439 0.015349
vt 0.143928 0.015400
vt 0.144367 0.016911
vt 0.146607 0.013721
vt 0.146480 0.012458
vt 0.145213 0.012898
vt 0.148022 0.015567
vt 0.147620 0.016183
vt 0.148710 0.017227
vt 0.147825 0.014189
vt 0.148099 0.014838
vt 0.149422 0.014502
vt 0.145703 0.016020
vt 0.144367 0.016911
vt 0.145641 0.018078
vt 0.145979 0.014032
vt 0.145213 0.012898
vt 0.144265 0.013952
vt 0.147284 0.013776
vt 0.147825 0.014189
vt 0.148764 0.013329
vt 0.146967 0.016500
vt 0.146266 0.016439
vt 0.145641 0.018078
vt 0.992181 0.037441
vt 0.991707 0.038263
vt 0.993003 0.040508
vt 0.991707 0.038263
vt 0.991707 0.039212
vt 0.993003 0.040508
vt 0.991707 0.039212
vt 0.992181 0.040034
vt 0.993003 0.040508
vt 0.993003 0.040508
vt 0.993952 0.040508
vt 0.992181 0.037441
vt 0.993952 0.040508
vt 0.994775 0.040034
vt 0.993003 0.036966
vt 0.992181 0.037441
vt 0.993952 0.040508
vt 0.993003 0.036966
vt 0.994775 0.040034
vt 0.995249 0.039212
vt 0.995249 0.038262
vt 0.995249 0.038262
vt 0.994775 0.037441
vt 0.993952 0.036966
vt 0.993952 0.036966
vt 0.993003 0.036966
vt 0.994775 0.040034
vt 0.071134 0.014117
vt 0.071134 0.016371
vt 0.072123 0.016371
vt 0.995028 0.809054
vt 0.995028 0.806800
vt 0.992467 0.808943
vt 0.995028 0.806800
vt 0.994710 0.805862
vt 0.993803 0.805464
vt 0.992467 0.808943
vt 0.995028 0.806800
vt 0.992467 0.806689
vt 0.993803 0.805464
vt 0.992865 0.805782
vt 0.992467 0.806689
vt 0.995028 0.819321
vt 0.995028 0.817068
vt 0.992467 0.817179
vt 0.992467 0.817179
vt 0.992467 0.819433
vt 0.995028 0.819321
vt 0.992467 0.819433
vt 0.992865 0.820340
vt 0.993803 0.820657
vt 0.995028 0.819321
vt 0.993803 0.820657
vt 0.994710 0.820260
vt 0.072123 0.010155
vt 0.071134 0.010155
vt 0.071134 0.011146
vt 0.071134 0.011146
vt 0.071134 0.012136
vt 0.072123 0.012136
vt 0.072123 0.014117
vt 0.072123 0.013127
vt 0.071134 0.013127
vt 0.071134 0.013127
vt 0.072123 0.013127
vt 0.072123 0.012136
vt 0.071134 0.010155
vt 0.072123 0.010155
vt 0.072123 0.007902
vt 0.994963 0.109439
vt 0.995225 0.109701
vt 0.995775 0.108749
vt 0.995417 0.108653
vt 0.995775 0.108749
vt 0.995775 0.107650
vt 0.995417 0.107746
vt 0.995775 0.107650
vt 0.995225 0.106698
vt 0.994963 0.106960
vt 0.995225 0.106698
vt 0.994273 0.106148
vt 0.994177 0.106506
vt 0.994273 0.106148
vt 0.993174 0.106148
vt 0.993270 0.106506
vt 0.993174 0.106148
vt 0.992222 0.106698
vt 0.992484 0.106960
vt 0.992222 0.106698
vt 0.991672 0.107650
vt 0.992031 0.108653
vt 0.992031 0.107746
vt 0.991672 0.107650
vt 0.992031 0.108653
vt 0.991672 0.108749
vt 0.992222 0.109701
vt 0.992484 0.109439
vt 0.992222 0.109701
vt 0.993174 0.110250
vt 0.994177 0.109892
vt 0.993270 0.109892
vt 0.993174 0.110250
vt 0.994963 0.109439
vt 0.994177 0.109892
vt 0.994273 0.110250
vt 0.474602 0.007886
vt 0.475388 0.007433
vt 0.475841 0.006647
vt 0.475841 0.006647
vt 0.475841 0.005740
vt 0.475388 0.004954
vt 0.475388 0.004954
vt 0.474602 0.004501
vt 0.473695 0.004501
vt 0.473695 0.004501
vt 0.472909 0.004954
vt 0.472455 0.005740
vt 0.472455 0.005740
vt 0.472455 0.006647
vt 0.472909 0.007433
vt 0.472909 0.007433
vt 0.473695 0.007886
vt 0.472455 0.005740
vt 0.473695 0.007886
vt 0.474602 0.007886
vt 0.472455 0.005740
vt 0.474602 0.007886
vt 0.475841 0.006647
vt 0.472455 0.005740
vt 0.475841 0.006647
vt 0.475388 0.004954
vt 0.472455 0.005740
vt 0.978032 0.008699
vt 0.977651 0.008210
vt 0.976902 0.009197
vt 0.979632 0.008290
vt 0.979764 0.007786
vt 0.978702 0.007753
vt 0.978637 0.011393
vt 0.977904 0.010988
vt 0.977500 0.011435
vt 0.980694 0.010244
vt 0.980250 0.010974
vt 0.980689 0.011390
vt 0.978812 0.008322
vt 0.978702 0.007753
vt 0.977651 0.008210
vt 0.979632 0.008290
vt 0.980321 0.008690
vt 0.980700 0.008276
vt 0.977904 0.010988
vt 0.977500 0.010260
vt 0.976900 0.010432
vt 0.980250 0.010974
vt 0.979498 0.011393
vt 0.979677 0.011972
vt 0.980321 0.008690
vt 0.980715 0.009405
vt 0.981278 0.009235
vt 0.977500 0.010260
vt 0.977552 0.009419
vt 0.976902 0.009197
vt 0.979498 0.011393
vt 0.978637 0.011393
vt 0.978514 0.011982
vn -0.999845 0.005891 -0.016602
vn -0.858267 0.005054 -0.513178
vn -0.999867 0.005891 -0.015185
vn -0.857637 0.005051 -0.514230
vn -0.486470 0.002862 -0.873692
vn -0.858267 0.005054 -0.513178
vn -0.485851 0.002859 -0.874037
vn 0.015893 -0.000098 -0.999874
vn -0.486470 0.002862 -0.873692
vn 0.015893 -0.000098 -0.999874
vn 0.513385 -0.003028 -0.858153
vn 0.513993 -0.003032 -0.857789
vn 0.513993 -0.003032 -0.857789
vn 0.873548 -0.005149 -0.486711
vn 0.874144 -0.005152 -0.485640
vn 0.874144 -0.005152 -0.485640
vn 0.999867 -0.005891 0.015185
vn 0.999845 -0.005891 0.016602
vn 0.999845 -0.005891 0.016602
vn 0.858267 -0.005054 0.513178
vn 0.857637 -0.005051 0.514231
vn 0.857637 -0.005051 0.514231
vn 0.486470 -0.002862 0.873692
vn 0.485852 -0.002859 0.874036
vn 0.485852 -0.002859 0.874036
vn -0.015892 0.000098 0.999874
vn -0.015893 0.000098 0.999874
vn -0.015892 0.000098 0.999874
vn -0.513386 0.003028 0.858153
vn -0.015893 0.000098 0.999874
vn 0.999827 -0.005889 0.017623
vn 0.858673 -0.004438 0.512504
vn 0.857134 -0.004426 0.515074
vn -0.513993 0.003032 0.857789
vn -0.873547 0.005149 0.486712
vn -0.513386 0.003028 0.858153
vn -0.874144 0.005152 0.485639
vn -0.999867 0.005891 -0.015185
vn -0.873547 0.005149 0.486712
vn 0.015919 0.004204 -0.999865
vn 0.513715 0.000698 -0.857961
vn 0.015918 0.004203 -0.999865
vn -0.006915 0.999975 -0.001188
vn 0.004718 0.999972 0.005832
vn 0.007621 0.999948 0.006780
vn -0.007118 0.999821 -0.017514
vn -0.008676 0.999958 -0.003088
vn -0.006915 0.999975 -0.001188
vn 0.006293 0.999657 -0.025407
vn -0.007522 0.999794 -0.018883
vn -0.007118 0.999821 -0.017514
vn 0.006293 0.999657 -0.025407
vn 0.019895 0.999632 -0.018446
vn 0.006304 0.999639 -0.026115
vn 0.019448 0.999665 -0.017090
vn 0.020543 0.999786 -0.002620
vn 0.019895 0.999632 -0.018446
vn 0.018722 0.999825 -0.000776
vn 0.006870 0.999959 0.005867
vn 0.020543 0.999786 -0.002620
vn 0.003938 0.999970 0.006723
vn -0.007594 0.999969 -0.001904
vn 0.006870 0.999959 0.005867
vn -0.010231 0.999945 -0.002493
vn -0.008212 0.999794 -0.018553
vn -0.007594 0.999969 -0.001904
vn -0.009491 0.999763 -0.019584
vn 0.006322 0.999613 -0.027086
vn -0.008212 0.999794 -0.018553
vn 0.021873 0.999579 -0.019074
vn 0.006322 0.999613 -0.027086
vn 0.006337 0.999590 -0.027941
vn 0.022088 0.999754 -0.001979
vn 0.020563 0.999625 -0.018084
vn 0.021873 0.999579 -0.019074
vn 0.007621 0.999948 0.006780
vn 0.019435 0.999810 -0.001475
vn 0.022088 0.999754 -0.001979
vn 0.015886 -0.001339 -0.999873
vn 0.512855 -0.004101 -0.858466
vn 0.514339 -0.004109 -0.857577
vn -0.873064 0.005767 0.487572
vn -0.514338 0.004107 0.857578
vn -0.874521 0.005773 0.484954
vn -0.858672 0.004438 -0.512506
vn -0.999827 0.005888 -0.017623
vn -0.857135 0.004425 -0.515074
vn 0.857134 -0.004426 0.515074
vn 0.486835 -0.001791 0.873492
vn 0.485324 -0.001781 0.874333
vn 0.514339 -0.004109 -0.857577
vn 0.873064 -0.005768 -0.487571
vn 0.874521 -0.005773 -0.484953
vn -0.999882 0.005893 -0.014165
vn -0.874521 0.005773 0.484954
vn -0.999827 0.005888 -0.017623
vn -0.486834 0.001790 -0.873493
vn -0.857135 0.004425 -0.515074
vn -0.485323 0.001780 -0.874333
vn 0.485324 -0.001781 0.874333
vn -0.015886 0.001338 0.999873
vn -0.015886 0.001338 0.999873
vn 0.874521 -0.005773 -0.484953
vn 0.999882 -0.005893 0.014164
vn 0.999827 -0.005889 0.017623
vn 0.015886 -0.001339 -0.999873
vn -0.485323 0.001780 -0.874333
vn 0.015887 -0.001338 -0.999873
vn -0.512855 0.004100 0.858466
vn -0.015886 0.001338 0.999873
vn -0.514338 0.004107 0.857578
vn 0.005743 0.999941 0.009248
vn 0.005750 0.999941 0.009248
vn 0.005744 0.999941 0.009248
vn 0.014759 -0.158540 -0.987242
vn 0.016155 0.047311 -0.998750
vn 0.014759 -0.158540 -0.987242
vn 0.999856 -0.005891 0.015894
vn 0.999856 -0.005890 0.015894
vn 0.999856 -0.005890 0.015894
vn -0.999856 0.005890 -0.015894
vn -0.999856 0.005890 -0.015894
vn -0.999856 0.005890 -0.015894
vn -0.016773 -0.208869 0.977800
vn -0.015375 -0.709831 0.704204
vn -0.015376 -0.709831 0.704204
vn -0.015375 -0.709831 0.704204
vn -0.005827 -0.999975 -0.003969
vn -0.015376 -0.709831 0.704204
vn 0.014759 -0.158540 -0.987242
vn 0.007134 -0.704348 -0.709819
vn 0.014759 -0.158540 -0.987242
vn 0.007134 -0.704348 -0.709819
vn -0.005827 -0.999975 -0.003969
vn -0.005828 -0.999975 -0.003969
vn -0.016773 -0.208869 0.977800
vn -0.016155 -0.047311 0.998750
vn -0.016155 -0.047311 0.998750
vn -0.005823 -0.999974 -0.004295
vn -0.005828 -0.999974 -0.004295
vn -0.005829 -0.999974 -0.004295
vn -0.005829 -0.999974 -0.004295
vn -0.005821 -0.999974 -0.004294
vn -0.005819 -0.999974 -0.004293
vn -0.005819 -0.999974 -0.004293
vn -0.005822 -0.999974 -0.004291
vn -0.005822 -0.999974 -0.004291
vn -0.005822 -0.999974 -0.004291
vn -0.005824 -0.999974 -0.004293
vn -0.005823 -0.999974 -0.004295
vn -0.005823 -0.999974 -0.004295
vn -0.005816 -0.999974 -0.004299
vn -0.005816 -0.999974 -0.004301
vn -0.005816 -0.999974 -0.004301
vn -0.005812 -0.999974 -0.004295
vn -0.005814 -0.999974 -0.004295
vn -0.005814 -0.999974 -0.004295
vn -0.005826 -0.999974 -0.004296
vn -0.005829 -0.999974 -0.004296
vn -0.005823 -0.999974 -0.004292
vn -0.005826 -0.999974 -0.004296
vn -0.005823 -0.999974 -0.004292
vn -0.005823 -0.999974 -0.004292
vn -0.005824 -0.999974 -0.004291
vn -0.005823 -0.999974 -0.004291
vn -0.005823 -0.999974 -0.004291
vn -0.005823 -0.999974 -0.004292
vn -0.005823 -0.999974 -0.004293
vn -0.005823 -0.999974 -0.004295
vn -0.005823 -0.999974 -0.004292
vn -0.005823 -0.999974 -0.004294
vn -0.005823 -0.999974 -0.004295
vn -0.005823 -0.999974 -0.004294
vn -0.005822 -0.999974 -0.004295
vn -0.005823 -0.999974 -0.004295
vn -0.005824 -0.999974 -0.004294
vn -0.005823 -0.999974 -0.004294
vn -0.873860 0.003001 0.486169
vn -0.513714 -0.000695 0.857961
vn -0.513715 -0.000696 0.857961
vn -0.857942 0.007202 -0.513697
vn -0.999856 0.005892 -0.015894
vn -0.999856 0.005892 -0.015893
vn 0.857942 -0.007202 0.513696
vn 0.486144 -0.006585 0.873854
vn 0.857943 -0.007202 0.513695
vn 0.513716 0.000698 -0.857960
vn 0.873860 -0.003001 -0.486168
vn 0.513715 0.000698 -0.857961
vn -0.999856 0.005892 -0.015893
vn -0.873860 0.003001 0.486168
vn -0.873860 0.003001 0.486169
vn -0.857942 0.007202 -0.513697
vn -0.486142 0.006587 -0.873855
vn -0.857942 0.007201 -0.513697
vn 0.486143 -0.006584 0.873855
vn -0.015918 -0.004202 0.999865
vn 0.486144 -0.006585 0.873854
vn 0.873861 -0.003001 -0.486168
vn 0.999856 -0.005890 0.015894
vn 0.873860 -0.003001 -0.486168
vn -0.486142 0.006587 -0.873855
vn 0.015918 0.004203 -0.999865
vn -0.486142 0.006587 -0.873855
vn -0.015919 -0.004203 0.999865
vn -0.513714 -0.000695 0.857961
vn -0.015918 -0.004202 0.999865
vn 0.999856 -0.005889 0.015896
vn 0.857943 -0.007202 0.513695
vn 0.999856 -0.005890 0.015894
vn -0.999845 0.005891 -0.016602
vn -0.857637 0.005051 -0.514230
vn -0.858267 0.005054 -0.513178
vn -0.857637 0.005051 -0.514230
vn -0.485851 0.002859 -0.874037
vn -0.486470 0.002862 -0.873692
vn -0.485851 0.002859 -0.874037
vn 0.015893 -0.000098 -0.999874
vn 0.015893 -0.000098 -0.999874
vn 0.015893 -0.000098 -0.999874
vn 0.015893 -0.000098 -0.999874
vn 0.513385 -0.003028 -0.858153
vn 0.513993 -0.003032 -0.857789
vn 0.513385 -0.003028 -0.858153
vn 0.873548 -0.005149 -0.486711
vn 0.874144 -0.005152 -0.485640
vn 0.873548 -0.005149 -0.486711
vn 0.999867 -0.005891 0.015185
vn 0.999845 -0.005891 0.016602
vn 0.999867 -0.005891 0.015185
vn 0.858267 -0.005054 0.513178
vn 0.857637 -0.005051 0.514231
vn 0.858267 -0.005054 0.513178
vn 0.486470 -0.002862 0.873692
vn 0.485852 -0.002859 0.874036
vn 0.486470 -0.002862 0.873692
vn -0.015892 0.000098 0.999874
vn -0.015892 0.000098 0.999874
vn -0.513993 0.003032 0.857789
vn -0.513386 0.003028 0.858153
vn 0.999827 -0.005889 0.017623
vn 0.999882 -0.005893 0.014164
vn 0.858673 -0.004438 0.512504
vn -0.513993 0.003032 0.857789
vn -0.874144 0.005152 0.485639
vn -0.873547 0.005149 0.486712
vn -0.874144 0.005152 0.485639
vn -0.999845 0.005891 -0.016602
vn -0.999867 0.005891 -0.015185
vn 0.015919 0.004204 -0.999865
vn 0.513716 0.000698 -0.857960
vn 0.513715 0.000698 -0.857961
vn -0.006915 0.999975 -0.001188
vn -0.008676 0.999958 -0.003088
vn 0.004718 0.999972 0.005832
vn -0.007118 0.999821 -0.017514
vn -0.007522 0.999794 -0.018883
vn -0.008676 0.999958 -0.003088
vn 0.006293 0.999657 -0.025407
vn 0.006304 0.999639 -0.026115
vn -0.007522 0.999794 -0.018883
vn 0.006293 0.999657 -0.025407
vn 0.019448 0.999665 -0.017090
vn 0.019895 0.999632 -0.018446
vn 0.019448 0.999665 -0.017090
vn 0.018722 0.999825 -0.000776
vn 0.020543 0.999786 -0.002620
vn 0.018722 0.999825 -0.000776
vn 0.003938 0.999970 0.006723
vn 0.006870 0.999959 0.005867
vn 0.003938 0.999970 0.006723
vn -0.010231 0.999945 -0.002493
vn -0.007594 0.999969 -0.001904
vn -0.010231 0.999945 -0.002493
vn -0.009491 0.999763 -0.019584
vn -0.008212 0.999794 -0.018553
vn -0.009491 0.999763 -0.019584
vn 0.006337 0.999590 -0.027941
vn 0.006322 0.999613 -0.027086
vn 0.021873 0.999579 -0.019074
vn 0.020563 0.999625 -0.018084
vn 0.006322 0.999613 -0.027086
vn 0.022088 0.999754 -0.001979
vn 0.019435 0.999810 -0.001475
vn 0.020563 0.999625 -0.018084
vn 0.007621 0.999948 0.006780
vn 0.004718 0.999972 0.005832
vn 0.019435 0.999810 -0.001475
vn 0.015886 -0.001339 -0.999873
vn 0.015887 -0.001338 -0.999873
vn 0.512855 -0.004101 -0.858466
vn -0.873064 0.005767 0.487572
vn -0.512855 0.004100 0.858466
vn -0.514338 0.004107 0.857578
vn -0.858672 0.004438 -0.512506
vn -0.999882 0.005893 -0.014165
vn -0.999827 0.005888 -0.017623
vn 0.857134 -0.004426 0.515074
vn 0.858673 -0.004438 0.512504
vn 0.486835 -0.001791 0.873492
vn 0.514339 -0.004109 -0.857577
vn 0.512855 -0.004101 -0.858466
vn 0.873064 -0.005768 -0.487571
vn -0.999882 0.005893 -0.014165
vn -0.873064 0.005767 0.487572
vn -0.874521 0.005773 0.484954
vn -0.486834 0.001790 -0.873493
vn -0.858672 0.004438 -0.512506
vn -0.857135 0.004425 -0.515074
vn 0.485324 -0.001781 0.874333
vn 0.486835 -0.001791 0.873492
vn -0.015886 0.001338 0.999873
vn 0.874521 -0.005773 -0.484953
vn 0.873064 -0.005768 -0.487571
vn 0.999882 -0.005893 0.014164
vn 0.015886 -0.001339 -0.999873
vn -0.486834 0.001790 -0.873493
vn -0.485323 0.001780 -0.874333
vn -0.512855 0.004100 0.858466
vn -0.015886 0.001338 0.999873
vn -0.015886 0.001338 0.999873
vn 0.005742 0.999941 0.009249
vn 0.005739 0.999941 0.009248
vn 0.005744 0.999941 0.009249
vn 0.005739 0.999941 0.009248
vn 0.005751 0.999941 0.009245
vn 0.005744 0.999941 0.009249
vn 0.005751 0.999941 0.009245
vn 0.005748 0.999941 0.009248
vn 0.005744 0.999941 0.009249
vn 0.005744 0.999941 0.009249
vn 0.005743 0.999941 0.009249
vn 0.005742 0.999941 0.009249
vn 0.005743 0.999941 0.009249
vn 0.005743 0.999941 0.009248
vn 0.005742 0.999941 0.009249
vn 0.005742 0.999941 0.009249
vn 0.005743 0.999941 0.009249
vn 0.005742 0.999941 0.009249
vn 0.005743 0.999941 0.009248
vn 0.005741 0.999941 0.009244
vn 0.005750 0.999941 0.009248
vn 0.005750 0.999941 0.009248
vn 0.005769 0.999941 0.009239
vn 0.005744 0.999941 0.009248
vn 0.005744 0.999941 0.009248
vn 0.005742 0.999941 0.009249
vn 0.005743 0.999941 0.009248
vn 0.014759 -0.158540 -0.987242
vn 0.016154 0.047311 -0.998750
vn 0.016155 0.047311 -0.998750
vn 0.999856 -0.005891 0.015894
vn 0.999856 -0.005890 0.015894
vn 0.999856 -0.005891 0.015894
vn 0.999856 -0.005890 0.015894
vn 0.999857 -0.005889 0.015892
vn 0.999856 -0.005890 0.015894
vn 0.999856 -0.005891 0.015894
vn 0.999856 -0.005890 0.015894
vn 0.999856 -0.005891 0.015894
vn 0.999856 -0.005890 0.015894
vn 0.999856 -0.005890 0.015895
vn 0.999856 -0.005891 0.015894
vn -0.999856 0.005890 -0.015894
vn -0.999856 0.005891 -0.015894
vn -0.999856 0.005891 -0.015894
vn -0.999856 0.005891 -0.015894
vn -0.999856 0.005890 -0.015894
vn -0.999856 0.005890 -0.015894
vn -0.999856 0.005890 -0.015894
vn -0.999856 0.005891 -0.015893
vn -0.999856 0.005890 -0.015894
vn -0.999856 0.005890 -0.015894
vn -0.999856 0.005890 -0.015894
vn -0.999856 0.005890 -0.015894
vn -0.016773 -0.208869 0.977800
vn -0.016773 -0.208869 0.977800
vn -0.015375 -0.709831 0.704204
vn -0.015375 -0.709831 0.704204
vn -0.005828 -0.999975 -0.003969
vn -0.005827 -0.999975 -0.003969
vn 0.014759 -0.158540 -0.987242
vn 0.007134 -0.704348 -0.709819
vn 0.007134 -0.704348 -0.709819
vn 0.007134 -0.704348 -0.709819
vn 0.007134 -0.704348 -0.709819
vn -0.005827 -0.999975 -0.003969
vn -0.016773 -0.208869 0.977800
vn -0.016773 -0.208869 0.977800
vn -0.016155 -0.047311 0.998750
vn -0.005823 -0.999974 -0.004295
vn -0.005822 -0.999974 -0.004295
vn -0.005828 -0.999974 -0.004295
vn -0.005829 -0.999974 -0.004295
vn -0.005828 -0.999974 -0.004295
vn -0.005821 -0.999974 -0.004294
vn -0.005819 -0.999974 -0.004293
vn -0.005821 -0.999974 -0.004294
vn -0.005822 -0.999974 -0.004291
vn -0.005822 -0.999974 -0.004291
vn -0.005822 -0.999974 -0.004291
vn -0.005824 -0.999974 -0.004293
vn -0.005823 -0.999974 -0.004295
vn -0.005824 -0.999974 -0.004293
vn -0.005816 -0.999974 -0.004299
vn -0.005816 -0.999974 -0.004301
vn -0.005816 -0.999974 -0.004299
vn -0.005812 -0.999974 -0.004295
vn -0.005814 -0.999974 -0.004295
vn -0.005812 -0.999974 -0.004295
vn -0.005826 -0.999974 -0.004296
vn -0.005823 -0.999974 -0.004292
vn -0.005829 -0.999974 -0.004296
vn -0.005826 -0.999974 -0.004296
vn -0.005823 -0.999974 -0.004292
vn -0.005823 -0.999974 -0.004292
vn -0.005824 -0.999974 -0.004291
vn -0.005823 -0.999974 -0.004291
vn -0.005824 -0.999974 -0.004291
vn -0.005823 -0.999974 -0.004292
vn -0.005823 -0.999974 -0.004295
vn -0.005823 -0.999974 -0.004293
vn -0.005823 -0.999974 -0.004292
vn -0.005823 -0.999974 -0.004295
vn -0.005823 -0.999974 -0.004295
vn -0.005823 -0.999974 -0.004294
vn -0.005823 -0.999974 -0.004294
vn -0.005822 -0.999974 -0.004294
vn -0.005823 -0.999974 -0.004295
vn -0.005823 -0.999974 -0.004295
vn -0.005826 -0.999974 -0.004301
vn -0.005823 -0.999974 -0.004295
vn -0.005823 -0.999974 -0.004295
vn -0.005823 -0.999974 -0.004295
vn -0.005824 -0.999974 -0.004294
vn -0.005824 -0.999974 -0.004294
vn -0.005822 -0.999974 -0.004294
vn -0.005823 -0.999974 -0.004294
vn -0.005823 -0.999974 -0.004294
vn -0.005819 -0.999974 -0.004288
vn -0.005823 -0.999974 -0.004295
vn -0.005823 -0.999974 -0.004295
vn -0.005823 -0.999974 -0.004296
vn -0.005823 -0.999974 -0.004294
vn -0.005823 -0.999974 -0.004296
vn -0.005823 -0.999974 -0.004294
vn -0.005823 -0.999974 -0.004294
vn -0.005823 -0.999974 -0.004294
vn -0.005823 -0.999974 -0.004295
vn -0.005823 -0.999974 -0.004294
vn -0.005823 -0.999974 -0.004295
vn -0.005823 -0.999974 -0.004295
vn -0.005823 -0.999974 -0.004294
vn -0.873860 0.003001 0.486169
vn -0.873860 0.003001 0.486168
vn -0.513714 -0.000695 0.857961
vn -0.857942 0.007202 -0.513697
vn -0.857942 0.007201 -0.513697
vn -0.999856 0.005892 -0.015894
vn 0.857942 -0.007202 0.513696
vn 0.486143 -0.006584 0.873855
vn 0.486144 -0.006585 0.873854
vn 0.513716 0.000698 -0.857960
vn 0.873861 -0.003001 -0.486168
vn 0.873860 -0.003001 -0.486168
vn -0.999856 0.005892 -0.015893
vn -0.999856 0.005892 -0.015894
vn -0.873860 0.003001 0.486168
vn -0.857942 0.007202 -0.513697
vn -0.486142 0.006587 -0.873855
vn -0.486142 0.006587 -0.873855
vn 0.486143 -0.006584 0.873855
vn -0.015919 -0.004203 0.999865
vn -0.015918 -0.004202 0.999865
vn 0.873861 -0.003001 -0.486168
vn 0.999856 -0.005889 0.015896
vn 0.999856 -0.005890 0.015894
vn -0.486142 0.006587 -0.873855
vn 0.015919 0.004204 -0.999865
vn 0.015918 0.004203 -0.999865
vn -0.015919 -0.004203 0.999865
vn -0.513715 -0.000696 0.857961
vn -0.513714 -0.000695 0.857961
vn 0.999856 -0.005889 0.015896
vn 0.857942 -0.007202 0.513696
vn 0.857943 -0.007202 0.513695
f 1/1/1 2/2/2 3/3/3
f 4/4/4 5/5/5 6/6/6
f 7/7/7 8/8/8 9/9/9
f 10/10/10 11/11/11 12/12/12
f 13/13/13 14/14/14 15/15/15
f 16/16/16 17/17/17 18/18/18
f 19/19/19 20/20/20 21/21/21
f 22/22/22 23/23/23 24/24/24
f 25/25/25 26/26/26 27/27/27
f 28/28/28 29/29/29 30/30/30
f 31/31/31 32/32/32 33/33/33
f 34/34/34 35/35/35 36/36/36
f 37/37/37 38/38/38 39/39/39
f 40/40/40 41/41/41 42/42/42
f 43/43/43 44/44/44 45/45/45
f 46/46/46 47/47/47 48/48/48
f 49/49/49 50/50/50 51/51/51
f 52/52/52 53/53/53 54/54/54
f 55/55/55 56/56/56 57/57/57
f 58/58/58 59/59/59 60/60/60
f 61/61/61 62/62/62 63/63/63
f 64/64/64 65/65/65 66/66/66
f 67/67/67 68/68/68 69/69/69
f 70/70/70 71/71/71 72/72/72
f 73/73/73 74/74/74 75/75/75
f 76/76/76 77/77/77 78/78/78
f 79/79/79 80/80/80 81/81/81
f 82/82/82 83/83/83 84/84/84
f 85/85/85 86/86/86 87/87/87
f 88/88/88 89/89/89 90/90/90
f 91/91/91 92/92/92 93/93/93
f 94/94/94 95/95/95 96/96/96
f 97/97/97 98/98/98 99/99/99
f 100/100/100 101/101/101 102/102/102
f 103/103/103 104/104/104 105/105/105
f 106/106/106 107/107/107 108/108/108
f 109/109/109 110/110/110 111/111/111
f 112/112/112 113/113/113 114/114/114
f 115/115/115 116/116/116 117/117/117
f 118/118/118 119/119/119 120/120/120
f 121/121/121 122/122/122 123/123/123
f 124/124/124 125/125/125 126/126/126
f 127/127/127 128/128/128 129/129/129
f 130/130/130 131/131/131 132/132/132
f 133/133/133 134/134/134 135/135/135
f 136/136/136 137/137/137 138/138/138
f 139/139/139 140/140/140 141/141/141
f 142/142/142 143/143/143 144/144/144
f 145/145/145 146/146/146 147/147/147
f 148/148/148 149/149/149 150/150/150
f 151/151/151 152/152/152 153/153/153
f 154/154/154 155/155/155 156/156/156
f 157/157/157 158/158/158 159/159/159
f 160/160/160 161/161/161 162/162/162
f 163/163/163 164/164/164 165/165/165
f 166/166/166 167/167/167 168/168/168
f 169/169/169 170/170/170 171/171/171
f 172/172/172 173/173/173 174/174/174
f 175/175/175 176/176/176 177/177/177
f 178/178/178 179/179/179 180/180/180
f 181/181/181 182/182/182 183/183/183
f 184/184/184 185/185/185 186/186/186
f 187/187/187 188/188/188 189/189/189
f 190/190/190 191/191/191 192/192/192
f 193/193/193 194/194/194 195/195/195
f 196/196/196 197/197/197 198/198/198
f 199/199/199 200/200/200 201/201/201
f 202/202/202 203/203/203 204/204/204
f 205/205/205 206/206/206 207/207/207
f 208/208/208 209/209/209 210/210/210
f 211/211/211 212/212/212 213/213/213
f 214/214/214 215/215/215 216/216/216
f 217/217/217 218/218/218 219/219/219
f 220/220/220 221/221/221 222/222/222
f 223/223/223 224/224/224 225/225/225
f 226/226/226 227/227/227 228/228/228
f 229/229/229 230/230/230 231/231/231
f 232/232/232 233/233/233 234/234/234
f 235/235/235 236/236/236 237/237/237
f 238/238/238 239/239/239 240/240/240
f 241/241/241 242/242/242 243/243/243
f 244/244/244 245/245/245 246/246/246
f 247/247/247 248/248/248 249/249/249
f 250/250/250 251/251/251 252/252/252
f 253/253/253 254/254/254 255/255/255
f 256/256/256 257/257/257 258/258/258
f 259/259/259 260/260/260 261/261/261
f 262/262/262 263/263/263 264/264/264
f 265/265/265 266/266/266 267/267/267
f 268/268/268 269/269/269 270/270/270
f 271/271/271 272/272/272 273/273/273
f 274/274/274 275/275/275 276/276/276
f 277/277/277 278/278/278 279/279/279
f 280/280/280 281/281/281 282/282/282
f 283/283/283 284/284/284 285/285/285
f 286/286/286 287/287/287 288/288/288
f 289/289/289 290/290/290 291/291/291
f 292/292/292 293/293/293 294/294/294
f 295/295/295 296/296/296 297/297/297
f 298/298/298 299/299/299 300/300/300
f 301/301/301 302/302/302 303/303/303
f 304/304/304 305/305/305 306/306/306
f 307/307/307 308/308/308 309/309/309
f 310/310/310 311/311/311 312/312/312
f 313/313/313 314/314/314 315/315/315
f 316/316/316 317/317/317 318/318/318
f 319/319/319 320/320/320 321/321/321
f 322/322/322 323/323/323 324/324/324
f 325/325/325 326/326/326 327/327/327
f 328/328/328 329/329/329 330/330/330
f 331/331/331 332/332/332 333/333/333
f 334/334/334 335/335/335 336/336/336
f 337/337/337 338/338/338 339/339/339
f 340/340/340 341/341/341 342/342/342
f 343/343/343 344/344/344 345/345/345
f 346/346/346 347/347/347 348/348/348
f 349/349/349 350/350/350 351/351/351
f 352/352/352 353/353/353 354/354/354
f 355/355/355 356/356/356 357/357/357
f 358/358/358 359/359/359 360/360/360
f 361/361/361 362/362/362 363/363/363
f 364/364/364 365/365/365 366/366/366
f 367/367/367 368/368/368 369/369/369
f 370/370/370 371/371/371 372/372/372
f 373/373/373 374/374/374 375/375/375
f 376/376/376 377/377/377 378/378/378
f 379/379/379 380/380/380 381/381/381
f 382/382/382 383/383/383 384/384/384
f 385/385/385 386/386/386 387/387/387
f 388/388/388 389/389/389 390/390/390
f 391/391/391 392/392/392 393/393/393
f 394/394/394 395/395/395 396/396/396
f 397/397/397 398/398/398 399/399/399
f 400/400/400 401/401/401 402/402/402
f 403/403/403 404/404/404 405/405/405
f 406/406/406 407/407/407 408/408/408
f 409/409/409 410/410/410 411/411/411
f 412/412/412 413/413/413 414/414/414
f 415/415/415 416/416/416 417/417/417
f 418/418/418 419/419/419 420/420/420
f 421/421/421 422/422/422 423/423/423
f 424/424/424 425/425/425 426/426/426
f 427/427/427 428/428/428 429/429/429
f 430/430/430 431/431/431 432/432/432
f 433/433/433 434/434/434 435/435/435
f 436/436/436 437/437/437 438/438/438
f 439/439/439 440/440/440 441/441/441
f 442/442/442 443/443/443 444/444/444
f 445/445/445 446/446/446 447/447/447
f 448/448/448 449/449/449 450/450/450
f 451/451/451 452/452/452 453/453/453
f 454/454/454 455/455/455 456/456/456
f 457/457/457 458/458/458 459/459/459
f 460/460/460 461/461/461 462/462/462
f 463/463/463 464/464/464 465/465/465
f 466/466/466 467/467/467 468/468/468
f 469/469/469 470/470/470 471/471/471
f 472/472/472 473/473/473 474/474/474
f 475/475/475 476/476/476 477/477/477
f 478/478/478 479/479/479 480/480/480
f 481/481/481 482/482/482 483/483/483
f 484/484/484 485/485/485 486/486/486
