mtllib transition_seal_door_008.mtl
usemtl Texture
v 0.114917 -0.641939 -0.135369
v -0.130783 -0.248929 -0.135369
v 0.118067 -0.248403 -0.135369
v 0.263272 0.641934 -0.135369
v 0.371583 0.248925 -0.135369
v 0.263272 0.248925 -0.135369
v 0.482588 0.641934 0.886386
v 0.417937 0.248925 1.160953
v 0.482588 0.248925 0.886386
v 0.417937 0.641934 1.160953
v 0.189178 0.248925 1.160953
v 0.417937 0.248925 1.160953
v 0.189178 -0.641939 0.886386
v 0.417937 -0.641939 1.160953
v 0.189178 -0.641939 1.160953
v 0.189178 0.641934 0.886386
v 0.417937 0.641934 1.160953
v 0.482588 0.641934 0.886386
v 0.371583 0.641934 -0.135369
v 0.263272 0.641934 0.146858
v 0.482588 0.641934 0.146858
v 0.371583 -0.641939 -0.135369
v 0.263272 -0.641939 0.146858
v 0.263272 -0.641939 -0.135369
v 0.371583 0.641934 -0.135369
v 0.482588 0.248925 0.146858
v 0.371583 0.248925 -0.135369
v 0.189178 0.641934 0.886386
v 0.263272 0.248925 0.146858
v 0.189178 0.248925 0.886386
v 0.114917 -0.641939 0.146858
v -0.130783 -0.641939 -0.135369
v 0.114917 -0.641939 -0.135369
v 0.114917 0.641934 0.146858
v -0.130783 0.248925 0.146858
v 0.118067 0.249451 0.146858
v 0.114917 0.641934 -0.135369
v -0.130783 0.641934 0.146858
v 0.114917 0.641934 0.146858
v 0.114917 -0.641939 0.146858
v -0.130783 -0.248929 0.146858
v -0.130783 -0.641939 0.146858
v 0.482588 0.248925 0.886386
v 0.263272 0.248925 0.146858
v 0.482588 0.248925 0.146858
v 0.189178 -0.248929 0.886386
v 0.263272 -0.641939 0.146858
v 0.189178 -0.641939 0.886386
v 0.189178 0.248925 0.886386
v 0.482588 -0.248929 0.886386
v 0.189178 -0.248929 0.886386
v 0.371583 -0.248929 -0.135369
v 0.482588 -0.641939 0.146858
v 0.371583 -0.641939 -0.135369
v 0.417937 -0.248929 1.160953
v 0.189178 -0.641939 1.160953
v 0.417937 -0.641939 1.160953
v 0.417937 0.248925 1.160953
v 0.189178 -0.248929 1.160953
v 0.417937 -0.248929 1.160953
v 0.482588 -0.248929 0.886386
v 0.417937 -0.641939 1.160953
v 0.482588 -0.641939 0.886386
v 0.482588 0.248925 0.886386
v 0.417937 -0.248929 1.160953
v 0.482588 -0.248929 0.886386
v 0.263272 -0.248929 -0.135369
v 0.371583 -0.641939 -0.135369
v 0.263272 -0.641939 -0.135369
v 0.114917 0.641934 -0.135369
v -0.130783 0.248925 -0.135369
v -0.130783 0.641934 -0.135369
v 0.482588 -0.248929 0.146858
v 0.482588 -0.641939 0.886386
v 0.482588 -0.641939 0.146858
v 0.189178 0.248925 1.160953
v 0.189178 -0.248929 0.886386
v 0.189178 -0.248929 1.160953
v 0.189178 -0.248929 1.160953
v 0.189178 -0.641939 0.886386
v 0.189178 -0.641939 1.160953
v 0.189178 0.641934 1.160953
v 0.189178 0.248925 0.886386
v 0.189178 0.248925 1.160953
v 0.263272 0.641934 0.146858
v 0.482588 0.641934 0.886386
v 0.482588 0.641934 0.146858
v 0.263272 -0.641939 0.146858
v 0.482588 -0.641939 0.886386
v 0.189178 -0.641939 0.886386
v 0.482588 0.641934 0.146858
v 0.482588 0.248925 0.886386
v 0.482588 0.248925 0.146858
v 0.263272 -0.248929 0.146858
v 0.482588 -0.248929 0.886386
v 0.482588 -0.248929 0.146858
v -0.130783 0.248925 0.146858
v 0.118067 0.249451 -0.135369
v 0.118067 0.249451 0.146858
v 0.263272 0.248925 0.146858
v 0.263272 -0.248929 -0.135369
v 0.263272 0.248925 -0.135369
v 0.371583 0.248925 -0.135369
v 0.263272 0.248925 0.146858
v 0.263272 0.248925 -0.135369
v 0.263272 -0.248929 0.146858
v 0.371583 -0.248929 -0.135369
v 0.263272 -0.248929 -0.135369
v 0.263272 0.248925 0.146858
v 0.118067 -0.248403 0.146858
v 0.263272 -0.248929 0.146858
v 0.263272 0.248925 -0.135369
v 0.118067 -0.248403 -0.135369
v 0.118067 0.249451 -0.135369
v 0.263272 0.641934 -0.135369
v 0.118067 0.249451 -0.135369
v 0.114917 0.641934 -0.135369
v 0.263272 -0.641939 0.146858
v 0.118067 -0.248403 0.146858
v 0.114917 -0.641939 0.146858
v 0.263272 0.641934 -0.135369
v 0.114917 0.641934 0.146858
v 0.263272 0.641934 0.146858
v 0.263272 0.641934 0.146858
v 0.118067 0.249451 0.146858
v 0.263272 0.248925 0.146858
v 0.263272 -0.641939 0.146858
v 0.114917 -0.641939 -0.135369
v 0.263272 -0.641939 -0.135369
v 0.263272 -0.641939 -0.135369
v 0.118067 -0.248403 -0.135369
v 0.263272 -0.248929 -0.135369
v 0.118067 0.249451 0.146858
v 0.118067 -0.248403 -0.135369
v 0.118067 -0.248403 0.146858
v 0.118067 -0.248403 0.146858
v -0.130783 -0.248929 -0.135369
v -0.130783 -0.248929 0.146858
v 0.114917 -0.641939 -0.135369
v -0.130783 -0.641939 -0.135369
v -0.130783 -0.248929 -0.135369
v 0.263272 0.641934 -0.135369
v 0.371583 0.641934 -0.135369
v 0.371583 0.248925 -0.135369
v 0.482588 0.641934 0.886386
v 0.417937 0.641934 1.160953
v 0.417937 0.248925 1.160953
v 0.417937 0.641934 1.160953
v 0.189178 0.641934 1.160953
v 0.189178 0.248925 1.160953
v 0.189178 -0.641939 0.886386
v 0.482588 -0.641939 0.886386
v 0.417937 -0.641939 1.160953
v 0.189178 0.641934 0.886386
v 0.189178 0.641934 1.160953
v 0.417937 0.641934 1.160953
v 0.371583 0.641934 -0.135369
v 0.263272 0.641934 -0.135369
v 0.263272 0.641934 0.146858
v 0.371583 -0.641939 -0.135369
v 0.482588 -0.641939 0.146858
v 0.263272 -0.641939 0.146858
v 0.371583 0.641934 -0.135369
v 0.482588 0.641934 0.146858
v 0.482588 0.248925 0.146858
v 0.189178 0.641934 0.886386
v 0.263272 0.641934 0.146858
v 0.263272 0.248925 0.146858
v 0.114917 -0.641939 0.146858
v -0.130783 -0.641939 0.146858
v -0.130783 -0.641939 -0.135369
v 0.114917 0.641934 0.146858
v -0.130783 0.641934 0.146858
v -0.130783 0.248925 0.146858
v 0.114917 0.641934 -0.135369
v -0.130783 0.641934 -0.135369
v -0.130783 0.641934 0.146858
v 0.114917 -0.641939 0.146858
v 0.118067 -0.248403 0.146858
v -0.130783 -0.248929 0.146858
v 0.482588 0.248925 0.886386
v 0.189178 0.248925 0.886386
v 0.263272 0.248925 0.146858
v 0.189178 -0.248929 0.886386
v 0.263272 -0.248929 0.146858
v 0.263272 -0.641939 0.146858
v 0.189178 0.248925 0.886386
v 0.482588 0.248925 0.886386
v 0.482588 -0.248929 0.886386
v 0.371583 -0.248929 -0.135369
v 0.482588 -0.248929 0.146858
v 0.482588 -0.641939 0.146858
v 0.417937 -0.248929 1.160953
v 0.189178 -0.248929 1.160953
v 0.189178 -0.641939 1.160953
v 0.417937 0.248925 1.160953
v 0.189178 0.248925 1.160953
v 0.189178 -0.248929 1.160953
v 0.482588 -0.248929 0.886386
v 0.417937 -0.248929 1.160953
v 0.417937 -0.641939 1.160953
v 0.482588 0.248925 0.886386
v 0.417937 0.248925 1.160953
v 0.417937 -0.248929 1.160953
v 0.263272 -0.248929 -0.135369
v 0.371583 -0.248929 -0.135369
v 0.371583 -0.641939 -0.135369
v 0.114917 0.641934 -0.135369
v 0.118067 0.249451 -0.135369
v -0.130783 0.248925 -0.135369
v 0.482588 -0.248929 0.146858
v 0.482588 -0.248929 0.886386
v 0.482588 -0.641939 0.886386
v 0.189178 0.248925 1.160953
v 0.189178 0.248925 0.886386
v 0.189178 -0.248929 0.886386
v 0.189178 -0.248929 1.160953
v 0.189178 -0.248929 0.886386
v 0.189178 -0.641939 0.886386
v 0.189178 0.641934 1.160953
v 0.189178 0.641934 0.886386
v 0.189178 0.248925 0.886386
v 0.263272 0.641934 0.146858
v 0.189178 0.641934 0.886386
v 0.482588 0.641934 0.886386
v 0.263272 -0.641939 0.146858
v 0.482588 -0.641939 0.146858
v 0.482588 -0.641939 0.886386
v 0.482588 0.641934 0.146858
v 0.482588 0.641934 0.886386
v 0.482588 0.248925 0.886386
v 0.263272 -0.248929 0.146858
v 0.189178 -0.248929 0.886386
v 0.482588 -0.248929 0.886386
v -0.130783 0.248925 0.146858
v -0.130783 0.248925 -0.135369
v 0.118067 0.249451 -0.135369
v 0.263272 0.248925 0.146858
v 0.263272 -0.248929 0.146858
v 0.263272 -0.248929 -0.135369
v 0.371583 0.248925 -0.135369
v 0.482588 0.248925 0.146858
v 0.263272 0.248925 0.146858
v 0.263272 -0.248929 0.146858
v 0.482588 -0.248929 0.146858
v 0.371583 -0.248929 -0.135369
v 0.263272 0.248925 0.146858
v 0.118067 0.249451 0.146858
v 0.118067 -0.248403 0.146858
v 0.263272 0.248925 -0.135369
v 0.263272 -0.248929 -0.135369
v 0.118067 -0.248403 -0.135369
v 0.263272 0.641934 -0.135369
v 0.263272 0.248925 -0.135369
v 0.118067 0.249451 -0.135369
v 0.263272 -0.641939 0.146858
v 0.263272 -0.248929 0.146858
v 0.118067 -0.248403 0.146858
v 0.263272 0.641934 -0.135369
v 0.114917 0.641934 -0.135369
v 0.114917 0.641934 0.146858
v 0.263272 0.641934 0.146858
v 0.114917 0.641934 0.146858
v 0.118067 0.249451 0.146858
v 0.263272 -0.641939 0.146858
v 0.114917 -0.641939 0.146858
v 0.114917 -0.641939 -0.135369
v 0.263272 -0.641939 -0.135369
v 0.114917 -0.641939 -0.135369
v 0.118067 -0.248403 -0.135369
v 0.118067 0.249451 0.146858
v 0.118067 0.249451 -0.135369
v 0.118067 -0.248403 -0.135369
v 0.118067 -0.248403 0.146858
v 0.118067 -0.248403 -0.135369
v -0.130783 -0.248929 -0.135369
vt 0.129092 0.018466
vt 0.126390 0.022787
vt 0.129127 0.022793
vt 0.130724 0.032584
vt 0.131915 0.028262
vt 0.130724 0.028262
vt 0.952749 0.489420
vt 0.957071 0.492522
vt 0.957071 0.489420
vt 0.908363 0.468083
vt 0.912685 0.470598
vt 0.912685 0.468083
vt 0.358102 0.030966
vt 0.355083 0.028450
vt 0.355083 0.030966
vt 0.595292 0.033662
vt 0.592273 0.036178
vt 0.595292 0.036889
vt 0.606528 0.035668
vt 0.603424 0.034477
vt 0.603424 0.036889
vt 0.369337 0.028960
vt 0.366234 0.030151
vt 0.369337 0.030151
vt 0.952749 0.477953
vt 0.957071 0.481288
vt 0.957071 0.477953
vt 0.908363 0.473618
vt 0.912685 0.481791
vt 0.912685 0.473618
vt 0.366234 0.031782
vt 0.369337 0.034484
vt 0.369337 0.031782
vt 0.908363 0.483422
vt 0.912685 0.486124
vt 0.912679 0.483387
vt 0.606528 0.032846
vt 0.603424 0.030144
vt 0.603424 0.032846
vt 0.922481 0.483422
vt 0.918159 0.486124
vt 0.922481 0.486124
vt 0.972114 0.077466
vt 0.963982 0.075054
vt 0.963982 0.077466
vt 0.918159 0.473618
vt 0.922481 0.481791
vt 0.922481 0.473618
vt 0.809211 0.006348
vt 0.805985 0.011822
vt 0.809211 0.011822
vt 0.962546 0.477953
vt 0.966867 0.481288
vt 0.966867 0.477953
vt 0.918159 0.468083
vt 0.922481 0.470598
vt 0.922481 0.468083
vt 0.912685 0.468083
vt 0.918159 0.470598
vt 0.918159 0.468083
vt 0.962546 0.489420
vt 0.966867 0.492522
vt 0.966867 0.489420
vt 0.957071 0.489420
vt 0.962546 0.492522
vt 0.962546 0.489420
vt 0.130724 0.022787
vt 0.131915 0.018466
vt 0.130724 0.018466
vt 0.129092 0.032584
vt 0.126390 0.028262
vt 0.126390 0.032584
vt 0.962546 0.481288
vt 0.966867 0.489420
vt 0.966867 0.481288
vt 0.912685 0.470598
vt 0.918159 0.473618
vt 0.918159 0.470598
vt 0.918159 0.470598
vt 0.922481 0.473618
vt 0.922481 0.470598
vt 0.908363 0.470598
vt 0.912685 0.473618
vt 0.912685 0.470598
vt 0.603424 0.034477
vt 0.595292 0.036889
vt 0.603424 0.036889
vt 0.366234 0.030151
vt 0.358102 0.027739
vt 0.358102 0.030966
vt 0.952749 0.481288
vt 0.957071 0.489420
vt 0.957071 0.481288
vt 0.963982 0.069579
vt 0.972114 0.067168
vt 0.963982 0.067168
vt 0.464438 0.014771
vt 0.461335 0.017508
vt 0.464438 0.017508
vt 0.963982 0.075054
vt 0.960878 0.069579
vt 0.960878 0.075054
vt 0.960878 0.076245
vt 0.963982 0.075054
vt 0.960878 0.075054
vt 0.963982 0.069579
vt 0.960878 0.068388
vt 0.960878 0.069579
vt 0.912685 0.481791
vt 0.918154 0.483387
vt 0.918159 0.481791
vt 0.130724 0.028262
vt 0.129127 0.022793
vt 0.129127 0.028268
vt 0.130724 0.032584
vt 0.129127 0.028268
vt 0.129092 0.032584
vt 0.922481 0.481791
vt 0.918154 0.483387
vt 0.922481 0.483422
vt 0.606528 0.034477
vt 0.603424 0.032846
vt 0.603424 0.034477
vt 0.908363 0.481791
vt 0.912679 0.483387
vt 0.912685 0.481791
vt 0.366234 0.030151
vt 0.369337 0.031782
vt 0.369337 0.030151
vt 0.130724 0.018466
vt 0.129127 0.022793
vt 0.130724 0.022787
vt 0.464438 0.017508
vt 0.461335 0.022982
vt 0.464438 0.022982
vt 0.464438 0.022982
vt 0.461335 0.025719
vt 0.464438 0.025719
vt 0.129092 0.018466
vt 0.126390 0.018466
vt 0.126390 0.022787
vt 0.130724 0.032584
vt 0.131915 0.032584
vt 0.131915 0.028262
vt 0.952749 0.489420
vt 0.952749 0.492522
vt 0.957071 0.492522
vt 0.908363 0.468083
vt 0.908363 0.470598
vt 0.912685 0.470598
vt 0.358102 0.030966
vt 0.358102 0.027739
vt 0.355083 0.028450
vt 0.595292 0.033662
vt 0.592273 0.033662
vt 0.592273 0.036178
vt 0.606528 0.035668
vt 0.606528 0.034477
vt 0.603424 0.034477
vt 0.369337 0.028960
vt 0.366234 0.027739
vt 0.366234 0.030151
vt 0.952749 0.477953
vt 0.952749 0.481288
vt 0.957071 0.481288
vt 0.908363 0.473618
vt 0.908363 0.481791
vt 0.912685 0.481791
vt 0.366234 0.031782
vt 0.366234 0.034484
vt 0.369337 0.034484
vt 0.908363 0.483422
vt 0.908363 0.486124
vt 0.912685 0.486124
vt 0.606528 0.032846
vt 0.606528 0.030144
vt 0.603424 0.030144
vt 0.922481 0.483422
vt 0.918154 0.483387
vt 0.918159 0.486124
vt 0.972114 0.077466
vt 0.972114 0.074239
vt 0.963982 0.075054
vt 0.918159 0.473618
vt 0.918159 0.481791
vt 0.922481 0.481791
vt 0.809211 0.006348
vt 0.805985 0.006348
vt 0.805985 0.011822
vt 0.962546 0.477953
vt 0.962546 0.481288
vt 0.966867 0.481288
vt 0.918159 0.468083
vt 0.918159 0.470598
vt 0.922481 0.470598
vt 0.912685 0.468083
vt 0.912685 0.470598
vt 0.918159 0.470598
vt 0.962546 0.489420
vt 0.962546 0.492522
vt 0.966867 0.492522
vt 0.957071 0.489420
vt 0.957071 0.492522
vt 0.962546 0.492522
vt 0.130724 0.022787
vt 0.131915 0.022787
vt 0.131915 0.018466
vt 0.129092 0.032584
vt 0.129127 0.028268
vt 0.126390 0.028262
vt 0.962546 0.481288
vt 0.962546 0.489420
vt 0.966867 0.489420
vt 0.912685 0.470598
vt 0.912685 0.473618
vt 0.918159 0.473618
vt 0.918159 0.470598
vt 0.918159 0.473618
vt 0.922481 0.473618
vt 0.908363 0.470598
vt 0.908363 0.473618
vt 0.912685 0.473618
vt 0.603424 0.034477
vt 0.595292 0.033662
vt 0.595292 0.036889
vt 0.366234 0.030151
vt 0.366234 0.027739
vt 0.358102 0.027739
vt 0.952749 0.481288
vt 0.952749 0.489420
vt 0.957071 0.489420
vt 0.963982 0.069579
vt 0.972114 0.070394
vt 0.972114 0.067168
vt 0.464438 0.014771
vt 0.461335 0.014771
vt 0.461335 0.017508
vt 0.963982 0.075054
vt 0.963982 0.069579
vt 0.960878 0.069579
vt 0.960878 0.076245
vt 0.963982 0.077466
vt 0.963982 0.075054
vt 0.963982 0.069579
vt 0.963982 0.067168
vt 0.960878 0.068388
vt 0.912685 0.481791
vt 0.912679 0.483387
vt 0.918154 0.483387
vt 0.130724 0.028262
vt 0.130724 0.022787
vt 0.129127 0.022793
vt 0.130724 0.032584
vt 0.130724 0.028262
vt 0.129127 0.028268
vt 0.922481 0.481791
vt 0.918159 0.481791
vt 0.918154 0.483387
vt 0.606528 0.034477
vt 0.606528 0.032846
vt 0.603424 0.032846
vt 0.908363 0.481791
vt 0.908363 0.483422
vt 0.912679 0.483387
vt 0.366234 0.030151
vt 0.366234 0.031782
vt 0.369337 0.031782
vt 0.130724 0.018466
vt 0.129092 0.018466
vt 0.129127 0.022793
vt 0.464438 0.017508
vt 0.461335 0.017508
vt 0.461335 0.022982
vt 0.464438 0.022982
vt 0.461335 0.022982
vt 0.461335 0.025719
vn 0.000000 0.000000 -1.000000
vn 0.000000 0.000000 -1.000000
vn 0.000000 0.000000 -1.000000
vn 0.000000 0.000000 -1.000000
vn 0.000000 0.000000 -1.000000
vn 0.000000 0.000000 -1.000000
vn 0.973380 0.000000 0.229198
vn 0.973380 0.000000 0.229198
vn 0.973380 0.000000 0.229198
vn 0.000000 0.000000 1.000000
vn 0.000000 0.000000 1.000000
vn 0.000000 0.000000 1.000000
vn 0.000000 -1.000000 0.000000
vn 0.000000 -1.000000 0.000000
vn 0.000000 -1.000000 0.000000
vn 0.000000 1.000000 0.000000
vn 0.000000 1.000000 0.000000
vn 0.000000 1.000000 0.000000
vn 0.000000 1.000000 0.000000
vn 0.000000 1.000000 0.000000
vn 0.000000 1.000000 0.000000
vn 0.000000 -1.000000 0.000000
vn 0.000000 -1.000000 0.000000
vn 0.000000 -1.000000 0.000000
vn 0.930605 0.000000 -0.366026
vn 0.930605 0.000000 -0.366026
vn 0.930605 0.000000 -0.366026
vn -0.998754 0.000000 -0.049908
vn -0.995018 0.000000 -0.099692
vn -0.999447 0.000000 -0.033267
vn 0.000000 -1.000000 0.000000
vn 0.000000 -1.000000 0.000000
vn 0.000000 -1.000000 0.000000
vn 0.000000 0.000000 1.000000
vn 0.000000 0.000000 1.000000
vn 0.000000 0.000000 1.000000
vn 0.000000 1.000000 0.000000
vn 0.000000 1.000000 0.000000
vn 0.000000 1.000000 0.000000
vn 0.000000 0.000000 1.000000
vn 0.000000 0.000000 1.000000
vn 0.000000 0.000000 1.000000
vn 0.000000 -1.000000 0.000000
vn 0.000000 -1.000000 0.000000
vn 0.000000 -1.000000 0.000000
vn -0.999447 0.000000 -0.033267
vn -0.995019 0.000000 -0.099692
vn -0.998754 0.000000 -0.049908
vn 0.000000 0.000000 -1.000000
vn 0.000000 0.000000 -1.000000
vn 0.000000 0.000000 -1.000000
vn 0.930605 0.000000 -0.366026
vn 0.930605 0.000000 -0.366026
vn 0.930605 0.000000 -0.366026
vn 0.000000 0.000000 1.000000
vn 0.000000 0.000000 1.000000
vn 0.000000 0.000000 1.000000
vn 0.000000 0.000000 1.000000
vn 0.000000 0.000000 1.000000
vn 0.000000 0.000000 1.000000
vn 0.973380 0.000000 0.229198
vn 0.973380 0.000000 0.229198
vn 0.973380 0.000000 0.229198
vn 0.973380 0.000000 0.229198
vn 0.973380 0.000000 0.229198
vn 0.973380 0.000000 0.229198
vn 0.000000 0.000000 -1.000000
vn 0.000000 0.000000 -1.000000
vn 0.000000 0.000000 -1.000000
vn 0.000000 0.000000 -1.000000
vn 0.000000 0.000000 -1.000000
vn 0.000000 0.000000 -1.000000
vn 1.000000 0.000000 0.000000
vn 1.000000 0.000000 0.000000
vn 1.000000 0.000000 0.000000
vn -1.000000 0.000000 0.000000
vn -0.999447 0.000000 -0.033267
vn -1.000000 0.000000 0.000000
vn -1.000000 0.000000 0.000000
vn -0.998754 0.000000 -0.049908
vn -1.000000 0.000000 0.000000
vn -1.000000 0.000000 0.000000
vn -0.999447 0.000000 -0.033267
vn -1.000000 0.000000 0.000000
vn 0.000000 1.000000 0.000000
vn 0.000000 1.000000 0.000000
vn 0.000000 1.000000 0.000000
vn 0.000000 -1.000000 0.000000
vn 0.000000 -1.000000 0.000000
vn 0.000000 -1.000000 0.000000
vn 1.000000 0.000000 0.000000
vn 1.000000 0.000000 0.000000
vn 1.000000 0.000000 0.000000
vn 0.000000 1.000000 0.000000
vn 0.000000 1.000000 0.000000
vn 0.000000 1.000000 0.000000
vn 0.002112 -0.999998 0.000000
vn 0.002112 -0.999998 0.000000
vn 0.002112 -0.999998 0.000000
vn 1.000000 0.000000 0.000000
vn 1.000000 0.000000 0.000000
vn 1.000000 0.000000 0.000000
vn 0.000000 -1.000000 0.000000
vn 0.000000 -1.000000 0.000000
vn 0.000000 -1.000000 0.000000
vn 0.000000 1.000000 0.000000
vn 0.000000 1.000000 0.000000
vn 0.000000 1.000000 0.000000
vn 0.000000 0.000000 1.000000
vn 0.000000 0.000000 1.000000
vn 0.000000 0.000000 1.000000
vn 0.000000 0.000000 -1.000000
vn 0.000000 0.000000 -1.000000
vn 0.000000 0.000000 -1.000000
vn 0.000000 0.000000 -1.000000
vn 0.000000 0.000000 -1.000000
vn 0.000000 0.000000 -1.000000
vn 0.000000 0.000000 1.000000
vn 0.000000 0.000000 1.000000
vn 0.000000 0.000000 1.000000
vn 0.000000 1.000000 0.000000
vn 0.000000 1.000000 0.000000
vn 0.000000 1.000000 0.000000
vn 0.000000 0.000000 1.000000
vn 0.000000 0.000000 1.000000
vn 0.000000 0.000000 1.000000
vn 0.000000 -1.000000 0.000000
vn 0.000000 -1.000000 0.000000
vn 0.000000 -1.000000 0.000000
vn 0.000000 0.000000 -1.000000
vn 0.000000 0.000000 -1.000000
vn 0.000000 0.000000 -1.000000
vn -1.000000 0.000000 0.000000
vn -1.000000 0.000000 0.000000
vn -1.000000 0.000000 0.000000
vn -0.002111 0.999998 0.000000
vn -0.002111 0.999998 0.000000
vn -0.002111 0.999998 0.000000
vn 0.000000 0.000000 -1.000000
vn 0.000000 0.000000 -1.000000
vn 0.000000 0.000000 -1.000000
vn 0.000000 0.000000 -1.000000
vn 0.000000 0.000000 -1.000000
vn 0.000000 0.000000 -1.000000
vn 0.973380 0.000000 0.229198
vn 0.973380 0.000000 0.229198
vn 0.973380 0.000000 0.229198
vn 0.000000 0.000000 1.000000
vn 0.000000 0.000000 1.000000
vn 0.000000 0.000000 1.000000
vn 0.000000 -1.000000 0.000000
vn 0.000000 -1.000000 0.000000
vn 0.000000 -1.000000 0.000000
vn 0.000000 1.000000 0.000000
vn 0.000000 1.000000 0.000000
vn 0.000000 1.000000 0.000000
vn 0.000000 1.000000 0.000000
vn 0.000000 1.000000 0.000000
vn 0.000000 1.000000 0.000000
vn 0.000000 -1.000000 0.000000
vn 0.000000 -1.000000 0.000000
vn 0.000000 -1.000000 0.000000
vn 0.930605 0.000000 -0.366026
vn 0.930605 0.000000 -0.366026
vn 0.930605 0.000000 -0.366026
vn -0.998754 0.000000 -0.049908
vn -0.995018 0.000000 -0.099692
vn -0.995018 0.000000 -0.099692
vn 0.000000 -1.000000 0.000000
vn 0.000000 -1.000000 0.000000
vn 0.000000 -1.000000 0.000000
vn 0.000000 0.000000 1.000000
vn 0.000000 0.000000 1.000000
vn 0.000000 0.000000 1.000000
vn 0.000000 1.000000 0.000000
vn 0.000000 1.000000 0.000000
vn 0.000000 1.000000 0.000000
vn 0.000000 0.000000 1.000000
vn 0.000000 0.000000 1.000000
vn 0.000000 0.000000 1.000000
vn 0.000000 -1.000000 0.000000
vn 0.000000 -1.000000 0.000000
vn 0.000000 -1.000000 0.000000
vn -0.999447 0.000000 -0.033267
vn -0.995019 0.000000 -0.099692
vn -0.995019 0.000000 -0.099692
vn 0.000000 0.000000 -1.000000
vn 0.000000 0.000000 -1.000000
vn 0.000000 0.000000 -1.000000
vn 0.930605 0.000000 -0.366026
vn 0.930605 0.000000 -0.366026
vn 0.930605 0.000000 -0.366026
vn 0.000000 0.000000 1.000000
vn 0.000000 0.000000 1.000000
vn 0.000000 0.000000 1.000000
vn 0.000000 0.000000 1.000000
vn 0.000000 0.000000 1.000000
vn 0.000000 0.000000 1.000000
vn 0.973380 0.000000 0.229198
vn 0.973380 0.000000 0.229198
vn 0.973380 0.000000 0.229198
vn 0.973380 0.000000 0.229198
vn 0.973380 0.000000 0.229198
vn 0.973380 0.000000 0.229198
vn 0.000000 0.000000 -1.000000
vn 0.000000 0.000000 -1.000000
vn 0.000000 0.000000 -1.000000
vn 0.000000 0.000000 -1.000000
vn 0.000000 0.000000 -1.000000
vn 0.000000 0.000000 -1.000000
vn 1.000000 0.000000 0.000000
vn 1.000000 0.000000 0.000000
vn 1.000000 0.000000 0.000000
vn -1.000000 0.000000 0.000000
vn -0.999447 0.000000 -0.033267
vn -0.999447 0.000000 -0.033267
vn -1.000000 0.000000 0.000000
vn -0.999447 0.000000 -0.033267
vn -0.998754 0.000000 -0.049908
vn -1.000000 0.000000 0.000000
vn -0.998754 0.000000 -0.049908
vn -0.999447 0.000000 -0.033267
vn 0.000000 1.000000 0.000000
vn 0.000000 1.000000 0.000000
vn 0.000000 1.000000 0.000000
vn 0.000000 -1.000000 0.000000
vn 0.000000 -1.000000 0.000000
vn 0.000000 -1.000000 0.000000
vn 1.000000 0.000000 0.000000
vn 1.000000 0.000000 0.000000
vn 1.000000 0.000000 0.000000
vn 0.000000 1.000000 0.000000
vn 0.000000 1.000000 0.000000
vn 0.000000 1.000000 0.000000
vn 0.002112 -0.999998 0.000000
vn 0.002111 -0.999998 0.000000
vn 0.002112 -0.999998 0.000000
vn 1.000000 0.000000 0.000000
vn 1.000000 0.000000 0.000000
vn 1.000000 0.000000 0.000000
vn 0.000000 -1.000000 0.000000
vn 0.000000 -1.000000 0.000000
vn 0.000000 -1.000000 0.000000
vn 0.000000 1.000000 0.000000
vn 0.000000 1.000000 0.000000
vn 0.000000 1.000000 0.000000
vn 0.000000 0.000000 1.000000
vn 0.000000 0.000000 1.000000
vn 0.000000 0.000000 1.000000
vn 0.000000 0.000000 -1.000000
vn 0.000000 0.000000 -1.000000
vn 0.000000 0.000000 -1.000000
vn 0.000000 0.000000 -1.000000
vn 0.000000 0.000000 -1.000000
vn 0.000000 0.000000 -1.000000
vn 0.000000 0.000000 1.000000
vn 0.000000 0.000000 1.000000
vn 0.000000 0.000000 1.000000
vn 0.000000 1.000000 0.000000
vn 0.000000 1.000000 0.000000
vn 0.000000 1.000000 0.000000
vn 0.000000 0.000000 1.000000
vn 0.000000 0.000000 1.000000
vn 0.000000 0.000000 1.000000
vn 0.000000 -1.000000 0.000000
vn 0.000000 -1.000000 0.000000
vn 0.000000 -1.000000 0.000000
vn 0.000000 0.000000 -1.000000
vn 0.000000 0.000000 -1.000000
vn 0.000000 0.000000 -1.000000
vn -1.000000 0.000000 0.000000
vn -1.000000 0.000000 0.000000
vn -1.000000 0.000000 0.000000
vn -0.002111 0.999998 0.000000
vn -0.002111 0.999998 0.000000
vn -0.002111 0.999998 0.000000
f 1/1/1 2/2/2 3/3/3
f 4/4/4 5/5/5 6/6/6
f 7/7/7 8/8/8 9/9/9
f 10/10/10 11/11/11 12/12/12
f 13/13/13 14/14/14 15/15/15
f 16/16/16 17/17/17 18/18/18
f 19/19/19 20/20/20 21/21/21
f 22/22/22 23/23/23 24/24/24
f 25/25/25 26/26/26 27/27/27
f 28/28/28 29/29/29 30/30/30
f 31/31/31 32/32/32 33/33/33
f 34/34/34 35/35/35 36/36/36
f 37/37/37 38/38/38 39/39/39
f 40/40/40 41/41/41 42/42/42
f 43/43/43 44/44/44 45/45/45
f 46/46/46 47/47/47 48/48/48
f 49/49/49 50/50/50 51/51/51
f 52/52/52 53/53/53 54/54/54
f 55/55/55 56/56/56 57/57/57
f 58/58/58 59/59/59 60/60/60
f 61/61/61 62/62/62 63/63/63
f 64/64/64 65/65/65 66/66/66
f 67/67/67 68/68/68 69/69/69
f 70/70/70 71/71/71 72/72/72
f 73/73/73 74/74/74 75/75/75
f 76/76/76 77/77/77 78/78/78
f 79/79/79 80/80/80 81/81/81
f 82/82/82 83/83/83 84/84/84
f 85/85/85 86/86/86 87/87/87
f 88/88/88 89/89/89 90/90/90
f 91/91/91 92/92/92 93/93/93
f 94/94/94 95/95/95 96/96/96
f 97/97/97 98/98/98 99/99/99
f 100/100/100 101/101/101 102/102/102
f 103/103/103 104/104/104 105/105/105
f 106/106/106 107/107/107 108/108/108
f 109/109/109 110/110/110 111/111/111
f 112/112/112 113/113/113 114/114/114
f 115/115/115 116/116/116 117/117/117
f 118/118/118 119/119/119 120/120/120
f 121/121/121 122/122/122 123/123/123
f 124/124/124 125/125/125 126/126/126
f 127/127/127 128/128/128 129/129/129
f 130/130/130 131/131/131 132/132/132
f 133/133/133 134/134/134 135/135/135
f 136/136/136 137/137/137 138/138/138
f 139/139/139 140/140/140 141/141/141
f 142/142/142 143/143/143 144/144/144
f 145/145/145 146/146/146 147/147/147
f 148/148/148 149/149/149 150/150/150
f 151/151/151 152/152/152 153/153/153
f 154/154/154 155/155/155 156/156/156
f 157/157/157 158/158/158 159/159/159
f 160/160/160 161/161/161 162/162/162
f 163/163/163 164/164/164 165/165/165
f 166/166/166 167/167/167 168/168/168
f 169/169/169 170/170/170 171/171/171
f 172/172/172 173/173/173 174/174/174
f 175/175/175 176/176/176 177/177/177
f 178/178/178 179/179/179 180/180/180
f 181/181/181 182/182/182 183/183/183
f 184/184/184 185/185/185 186/186/186
f 187/187/187 188/188/188 189/189/189
f 190/190/190 191/191/191 192/192/192
f 193/193/193 194/194/194 195/195/195
f 196/196/196 197/197/197 198/198/198
f 199/199/199 200/200/200 201/201/201
f 202/202/202 203/203/203 204/204/204
f 205/205/205 206/206/206 207/207/207
f 208/208/208 209/209/209 210/210/210
f 211/211/211 212/212/212 213/213/213
f 214/214/214 215/215/215 216/216/216
f 217/217/217 218/218/218 219/219/219
f 220/220/220 221/221/221 222/222/222
f 223/223/223 224/224/224 225/225/225
f 226/226/226 227/227/227 228/228/228
f 229/229/229 230/230/230 231/231/231
f 232/232/232 233/233/233 234/234/234
f 235/235/235 236/236/236 237/237/237
f 238/238/238 239/239/239 240/240/240
f 241/241/241 242/242/242 243/243/243
f 244/244/244 245/245/245 246/246/246
f 247/247/247 248/248/248 249/249/249
f 250/250/250 251/251/251 252/252/252
f 253/253/253 254/254/254 255/255/255
f 256/256/256 257/257/257 258/258/258
f 259/259/259 260/260/260 261/261/261
f 262/262/262 263/263/263 264/264/264
f 265/265/265 266/266/266 267/267/267
f 268/268/268 269/269/269 270/270/270
f 271/271/271 272/272/272 273/273/273
f 274/274/274 275/275/275 276/276/276
