mtllib transition_seal_cylinder_009.mtl
usemtl Texture
v 0.108203 1.656955 -0.168187
v -0.000988 3.776317 -0.195508
v 0.095473 3.776988 -0.173845
v 0.095473 3.776988 -0.173845
v -0.184018 3.775995 0.003133
v 0.108987 3.778377 0.156689
v -0.171287 1.655962 0.008791
v -0.162352 3.775744 -0.093330
v -0.149622 1.655712 -0.087672
v 0.027347 1.657889 0.191818
v -0.081845 3.777252 0.164496
v -0.069114 1.657219 0.170154
v 0.180909 1.657660 -0.101195
v 0.095473 3.776988 -0.173845
v 0.168178 3.777693 -0.106853
v 0.188711 1.658462 0.089639
v 0.197646 3.778244 -0.012481
v 0.175981 3.778494 0.083981
v -0.149622 1.655712 -0.087672
v -0.095359 3.775862 -0.166038
v -0.082629 1.655830 -0.160380
v -0.069114 1.657219 0.170154
v -0.154550 3.776546 0.097503
v -0.141819 1.656513 0.103162
v 0.210376 1.658212 -0.006824
v 0.168178 3.777693 -0.106853
v 0.197646 3.778244 -0.012481
v 0.121718 1.658344 0.162347
v 0.175981 3.778494 0.083981
v 0.108987 3.778377 0.156689
v -0.082629 1.655830 -0.160380
v -0.000988 3.776317 -0.195508
v 0.011742 1.656285 -0.189850
v -0.141819 1.656513 0.103162
v -0.184018 3.775995 0.003133
v -0.171287 1.655962 0.008791
v 0.027347 1.657889 0.191818
v 0.108987 3.778377 0.156689
v 0.014617 3.777922 0.186160
v -0.059757 3.882641 -0.162569
v -0.047204 3.893079 0.145785
v -0.054602 4.042162 -0.013570
v 0.059301 3.883342 -0.167439
v -0.057812 3.614996 -0.153588
v -0.059757 3.882641 -0.162569
v 0.059301 3.883342 -0.167439
v 0.064457 4.042864 -0.018441
v 0.071855 3.893781 0.140914
v 0.071855 3.893781 0.140914
v -0.049765 4.002835 0.098999
v -0.047204 3.893079 0.145785
v 0.069294 4.003537 0.094128
v -0.054602 4.042162 -0.013570
v -0.049765 4.002835 0.098999
v -0.059757 3.882641 -0.162569
v 0.060246 3.996013 -0.128118
v 0.059301 3.883342 -0.167439
v -0.058813 3.995310 -0.123247
v 0.064457 4.042864 -0.018441
v 0.060246 3.996013 -0.128118
v 0.071855 3.893781 0.140914
v -0.045259 3.625434 0.154766
v 0.073800 3.626136 0.149895
v -0.233821 3.932231 -0.047761
v 0.241541 3.854732 0.016634
v -0.228641 3.854732 0.043361
v 0.236361 3.932231 -0.074489
v 0.245939 3.946002 0.094009
v 0.241541 3.854732 0.016634
v 0.245939 3.946002 0.094009
v -0.229423 4.023501 0.029613
v -0.224243 3.946002 0.120736
v -0.224243 3.946002 0.120736
v -0.233821 3.932231 -0.047761
v -0.228641 3.854732 0.043361
v 0.245939 3.946002 0.094009
v -0.228641 3.854732 0.043361
v 0.241541 3.854732 0.016634
v 0.236361 3.932231 -0.074489
v -0.229423 4.023501 0.029613
v 0.240760 4.023502 0.002886
v 0.108203 1.656955 -0.168187
v 0.011742 1.656285 -0.189850
v -0.000988 3.776317 -0.195508
v 0.108987 3.778377 0.156689
v 0.175981 3.778494 0.083981
v 0.095473 3.776988 -0.173845
v 0.175981 3.778494 0.083981
v 0.197646 3.778244 -0.012481
v 0.095473 3.776988 -0.173845
v 0.197646 3.778244 -0.012481
v 0.168178 3.777693 -0.106853
v 0.095473 3.776988 -0.173845
v 0.095473 3.776988 -0.173845
v -0.000988 3.776317 -0.195508
v -0.184018 3.775995 0.003133
v -0.000988 3.776317 -0.195508
v -0.095359 3.775862 -0.166038
v -0.184018 3.775995 0.003133
v -0.095359 3.775862 -0.166038
v -0.162352 3.775744 -0.093330
v -0.184018 3.775995 0.003133
v -0.184018 3.775995 0.003133
v -0.154550 3.776546 0.097503
v 0.108987 3.778377 0.156689
v -0.154550 3.776546 0.097503
v -0.081845 3.777252 0.164496
v 0.108987 3.778377 0.156689
v -0.081845 3.777252 0.164496
v 0.014617 3.777922 0.186160
v 0.108987 3.778377 0.156689
v -0.171287 1.655962 0.008791
v -0.184018 3.775995 0.003133
v -0.162352 3.775744 -0.093330
v 0.027347 1.657889 0.191818
v 0.014617 3.777922 0.186160
v -0.081845 3.777252 0.164496
v 0.180909 1.657660 -0.101195
v 0.108203 1.656955 -0.168187
v 0.095473 3.776988 -0.173845
v 0.188711 1.658462 0.089639
v 0.210376 1.658212 -0.006824
v 0.197646 3.778244 -0.012481
v -0.149622 1.655712 -0.087672
v -0.162352 3.775744 -0.093330
v -0.095359 3.775862 -0.166038
v -0.069114 1.657219 0.170154
v -0.081845 3.777252 0.164496
v -0.154550 3.776546 0.097503
v 0.210376 1.658212 -0.006824
v 0.180909 1.657660 -0.101195
v 0.168178 3.777693 -0.106853
v 0.121718 1.658344 0.162347
v 0.188711 1.658462 0.089639
v 0.175981 3.778494 0.083981
v -0.082629 1.655830 -0.160380
v -0.095359 3.775862 -0.166038
v -0.000988 3.776317 -0.195508
v -0.141819 1.656513 0.103162
v -0.154550 3.776546 0.097503
v -0.184018 3.775995 0.003133
v 0.027347 1.657889 0.191818
v 0.121718 1.658344 0.162347
v 0.108987 3.778377 0.156689
v -0.045259 3.625434 0.154766
v -0.047204 3.893079 0.145785
v -0.057812 3.614996 -0.153588
v -0.047204 3.893079 0.145785
v -0.049765 4.002835 0.098999
v -0.054602 4.042162 -0.013570
v -0.057812 3.614996 -0.153588
v -0.047204 3.893079 0.145785
v -0.059757 3.882641 -0.162569
v -0.054602 4.042162 -0.013570
v -0.058813 3.995310 -0.123247
v -0.059757 3.882641 -0.162569
v 0.059301 3.883342 -0.167439
v 0.061247 3.615698 -0.158459
v -0.057812 3.614996 -0.153588
v 0.071855 3.893781 0.140914
v 0.073800 3.626136 0.149895
v 0.061247 3.615698 -0.158459
v 0.061247 3.615698 -0.158459
v 0.059301 3.883342 -0.167439
v 0.071855 3.893781 0.140914
v 0.059301 3.883342 -0.167439
v 0.060246 3.996013 -0.128118
v 0.064457 4.042864 -0.018441
v 0.071855 3.893781 0.140914
v 0.064457 4.042864 -0.018441
v 0.069294 4.003537 0.094128
v 0.071855 3.893781 0.140914
v 0.069294 4.003537 0.094128
v -0.049765 4.002835 0.098999
v 0.069294 4.003537 0.094128
v 0.064457 4.042864 -0.018441
v -0.054602 4.042162 -0.013570
v -0.059757 3.882641 -0.162569
v -0.058813 3.995310 -0.123247
v 0.060246 3.996013 -0.128118
v -0.058813 3.995310 -0.123247
v -0.054602 4.042162 -0.013570
v 0.064457 4.042864 -0.018441
v 0.071855 3.893781 0.140914
v -0.047204 3.893079 0.145785
v -0.045259 3.625434 0.154766
v -0.233821 3.932231 -0.047761
v 0.236361 3.932231 -0.074489
v 0.241541 3.854732 0.016634
v 0.236361 3.932231 -0.074489
v 0.240760 4.023502 0.002886
v 0.245939 3.946002 0.094009
v 0.245939 3.946002 0.094009
v 0.240760 4.023502 0.002886
v -0.229423 4.023501 0.029613
v -0.224243 3.946002 0.120736
v -0.229423 4.023501 0.029613
v -0.233821 3.932231 -0.047761
v 0.245939 3.946002 0.094009
v -0.224243 3.946002 0.120736
v -0.228641 3.854732 0.043361
v 0.236361 3.932231 -0.074489
v -0.233821 3.932231 -0.047761
v -0.229423 4.023501 0.029613
vt 0.027528 0.062128
vt 0.004012 0.061031
vt 0.004012 0.062128
vt 0.993178 0.088362
vt 0.992228 0.091906
vt 0.995773 0.090956
vt 0.027525 0.070901
vt 0.004011 0.071997
vt 0.027526 0.071997
vt 0.027522 0.067611
vt 0.004007 0.068708
vt 0.027523 0.068708
vt 0.027526 0.063224
vt 0.004012 0.062128
vt 0.004011 0.063224
vt 0.027524 0.065418
vt 0.004009 0.064321
vt 0.004008 0.065418
vt 0.027526 0.071997
vt 0.004012 0.073094
vt 0.027528 0.073094
vt 0.027523 0.068708
vt 0.004008 0.069804
vt 0.027524 0.069804
vt 0.027525 0.064321
vt 0.004011 0.063224
vt 0.004009 0.064321
vt 0.027523 0.066514
vt 0.004008 0.065418
vt 0.004007 0.066514
vt 0.027528 0.073094
vt 0.004012 0.074191
vt 0.027528 0.074191
vt 0.027524 0.069804
vt 0.004009 0.070901
vt 0.027525 0.070901
vt 0.027522 0.067611
vt 0.004007 0.066514
vt 0.004007 0.067611
vt 0.992012 0.074495
vt 0.995437 0.074495
vt 0.993724 0.072783
vt 0.991567 0.406416
vt 0.990245 0.403445
vt 0.990245 0.406416
vt 0.334645 0.004586
vt 0.332932 0.006298
vt 0.334645 0.008011
vt 0.991567 0.411710
vt 0.990245 0.410387
vt 0.990245 0.411710
vt 0.991567 0.410387
vt 0.990245 0.409063
vt 0.990245 0.410387
vt 0.990245 0.406416
vt 0.991567 0.407739
vt 0.991567 0.406416
vt 0.990245 0.407739
vt 0.991567 0.409063
vt 0.991567 0.407739
vt 0.991567 0.411710
vt 0.990245 0.414681
vt 0.991567 0.414681
vt 0.208490 0.017542
vt 0.213714 0.016214
vt 0.208490 0.016214
vt 0.005335 0.005630
vt 0.004007 0.006958
vt 0.005335 0.006958
vt 0.213714 0.014886
vt 0.208490 0.013558
vt 0.208490 0.014886
vt 0.013348 0.005630
vt 0.014677 0.006958
vt 0.014677 0.005630
vt 0.213714 0.014886
vt 0.208490 0.016214
vt 0.213714 0.016214
vt 0.213714 0.012229
vt 0.208490 0.013558
vt 0.213714 0.013558
vt 0.027528 0.062128
vt 0.027528 0.061031
vt 0.004012 0.061031
vt 0.995773 0.090956
vt 0.995773 0.089860
vt 0.993178 0.088362
vt 0.995773 0.089860
vt 0.995224 0.088910
vt 0.993178 0.088362
vt 0.995224 0.088910
vt 0.994275 0.088362
vt 0.993178 0.088362
vt 0.993178 0.088362
vt 0.992228 0.088910
vt 0.992228 0.091906
vt 0.992228 0.088910
vt 0.991680 0.089860
vt 0.992228 0.091906
vt 0.991680 0.089860
vt 0.991680 0.090956
vt 0.992228 0.091906
vt 0.992228 0.091906
vt 0.993178 0.092454
vt 0.995773 0.090956
vt 0.993178 0.092454
vt 0.994275 0.092454
vt 0.995773 0.090956
vt 0.994275 0.092454
vt 0.995224 0.091906
vt 0.995773 0.090956
vt 0.027525 0.070901
vt 0.004009 0.070901
vt 0.004011 0.071997
vt 0.027522 0.067611
vt 0.004007 0.067611
vt 0.004007 0.068708
vt 0.027526 0.063224
vt 0.027528 0.062128
vt 0.004012 0.062128
vt 0.027524 0.065418
vt 0.027525 0.064321
vt 0.004009 0.064321
vt 0.027526 0.071997
vt 0.004011 0.071997
vt 0.004012 0.073094
vt 0.027523 0.068708
vt 0.004007 0.068708
vt 0.004008 0.069804
vt 0.027525 0.064321
vt 0.027526 0.063224
vt 0.004011 0.063224
vt 0.027523 0.066514
vt 0.027524 0.065418
vt 0.004008 0.065418
vt 0.027528 0.073094
vt 0.004012 0.073094
vt 0.004012 0.074191
vt 0.027524 0.069804
vt 0.004008 0.069804
vt 0.004009 0.070901
vt 0.027522 0.067611
vt 0.027523 0.066514
vt 0.004007 0.066514
vt 0.995437 0.077466
vt 0.995437 0.074495
vt 0.992012 0.077466
vt 0.995437 0.074495
vt 0.994958 0.073261
vt 0.993724 0.072783
vt 0.992012 0.077466
vt 0.995437 0.074495
vt 0.992012 0.074495
vt 0.993724 0.072783
vt 0.992490 0.073261
vt 0.992012 0.074495
vt 0.991567 0.406416
vt 0.991567 0.403445
vt 0.990245 0.403445
vt 0.334645 0.008011
vt 0.337615 0.008011
vt 0.337615 0.004586
vt 0.337615 0.004586
vt 0.334645 0.004586
vt 0.334645 0.008011
vt 0.334645 0.004586
vt 0.333411 0.005064
vt 0.332932 0.006298
vt 0.334645 0.008011
vt 0.332932 0.006298
vt 0.333411 0.007533
vt 0.991567 0.411710
vt 0.991567 0.410387
vt 0.990245 0.410387
vt 0.991567 0.410387
vt 0.991567 0.409063
vt 0.990245 0.409063
vt 0.990245 0.406416
vt 0.990245 0.407739
vt 0.991567 0.407739
vt 0.990245 0.407739
vt 0.990245 0.409063
vt 0.991567 0.409063
vt 0.991567 0.411710
vt 0.990245 0.411710
vt 0.990245 0.414681
vt 0.208490 0.017542
vt 0.213714 0.017542
vt 0.213714 0.016214
vt 0.005335 0.005630
vt 0.004007 0.005630
vt 0.004007 0.006958
vt 0.213714 0.014886
vt 0.213714 0.013558
vt 0.208490 0.013558
vt 0.013348 0.005630
vt 0.013348 0.006958
vt 0.014677 0.006958
vt 0.213714 0.014886
vt 0.208490 0.014886
vt 0.208490 0.016214
vt 0.213714 0.012229
vt 0.208490 0.012229
vt 0.208490 0.013558
vn 0.464093 0.000423 -0.885786
vn -0.040858 -0.002912 -0.999161
vn 0.464280 0.000424 -0.885688
vn -0.006058 0.999974 -0.003956
vn -0.006060 0.999974 -0.003954
vn -0.006052 0.999974 -0.003957
vn -0.999155 -0.005891 0.040665
vn -0.885803 -0.006557 -0.464015
vn -0.885631 -0.006557 -0.464344
vn 0.040861 0.002912 0.999161
vn -0.464097 -0.000423 0.885784
vn -0.464284 -0.000424 0.885686
vn 0.844758 0.003644 -0.535137
vn 0.464280 0.000424 -0.885688
vn 0.844955 0.003646 -0.534826
vn 0.885801 0.006557 0.464019
vn 0.999156 0.005891 -0.040664
vn 0.885631 0.006557 0.464343
vn -0.885631 -0.006557 -0.464344
vn -0.535048 -0.005468 -0.844804
vn -0.534869 -0.005467 -0.844917
vn -0.464284 -0.000424 0.885686
vn -0.844759 -0.003644 0.535135
vn -0.844955 -0.003646 0.534825
vn 0.999138 0.005890 -0.041089
vn 0.844955 0.003646 -0.534826
vn 0.999156 0.005891 -0.040664
vn 0.535051 0.005467 0.844803
vn 0.885631 0.006557 0.464343
vn 0.534871 0.005466 0.844916
vn -0.534869 -0.005467 -0.844917
vn -0.040858 -0.002912 -0.999161
vn -0.040860 -0.002912 -0.999161
vn -0.844955 -0.003646 0.534825
vn -0.999138 -0.005890 0.041089
vn -0.999155 -0.005891 0.040665
vn 0.040861 0.002912 0.999161
vn 0.534871 0.005466 0.844916
vn 0.040858 0.002912 0.999161
vn -0.999147 -0.005891 0.040876
vn -0.999147 -0.005891 0.040876
vn -0.999147 -0.005891 0.040876
vn -0.041293 0.150427 -0.987758
vn -0.040653 -0.033804 -0.998601
vn -0.041295 0.150430 -0.987758
vn 0.999147 0.005891 -0.040876
vn 0.999147 0.005891 -0.040876
vn 0.999147 0.005891 -0.040876
vn 0.038630 0.216889 0.975432
vn 0.023614 0.730594 0.682404
vn 0.038631 0.216888 0.975432
vn 0.023612 0.730595 0.682403
vn -0.007264 0.999411 -0.033540
vn 0.023614 0.730594 0.682404
vn -0.041295 0.150430 -0.987758
vn -0.033885 0.682786 -0.729833
vn -0.041293 0.150427 -0.987758
vn -0.033887 0.682786 -0.729832
vn -0.007267 0.999411 -0.033538
vn -0.033885 0.682786 -0.729833
vn 0.038630 0.216889 0.975432
vn 0.040655 0.033804 0.998601
vn 0.040654 0.033805 0.998601
vn -0.056566 -0.081324 -0.995081
vn 0.004615 -0.996688 0.081189
vn 0.004616 -0.996688 0.081190
vn 0.998388 -0.000000 -0.056751
vn 0.998388 -0.000000 -0.056751
vn 0.998388 -0.000000 -0.056751
vn 0.056564 0.081321 0.995082
vn -0.004617 0.996688 -0.081193
vn 0.056566 0.081320 0.995082
vn -0.998388 0.000001 0.056753
vn -0.998388 0.000001 0.056753
vn -0.998388 -0.000001 0.056753
vn 0.056564 0.081321 0.995082
vn 0.004616 -0.996688 0.081190
vn 0.004615 -0.996688 0.081189
vn -0.056564 -0.081320 -0.995082
vn -0.004617 0.996688 -0.081193
vn -0.004616 0.996688 -0.081190
vn 0.464093 0.000423 -0.885786
vn -0.040860 -0.002912 -0.999161
vn -0.040858 -0.002912 -0.999161
vn -0.006052 0.999974 -0.003957
vn -0.006047 0.999974 -0.003955
vn -0.006058 0.999974 -0.003956
vn -0.006047 0.999974 -0.003955
vn -0.006070 0.999974 -0.003951
vn -0.006058 0.999974 -0.003956
vn -0.006070 0.999974 -0.003951
vn -0.006061 0.999974 -0.003950
vn -0.006058 0.999974 -0.003956
vn -0.006058 0.999974 -0.003956
vn -0.006062 0.999974 -0.003959
vn -0.006060 0.999974 -0.003954
vn -0.006062 0.999974 -0.003959
vn -0.006062 0.999974 -0.003961
vn -0.006060 0.999974 -0.003954
vn -0.006062 0.999974 -0.003961
vn -0.006061 0.999974 -0.003953
vn -0.006060 0.999974 -0.003954
vn -0.006060 0.999974 -0.003954
vn -0.006061 0.999974 -0.003952
vn -0.006052 0.999974 -0.003957
vn -0.006061 0.999974 -0.003952
vn -0.006056 0.999974 -0.003967
vn -0.006052 0.999974 -0.003957
vn -0.006056 0.999974 -0.003967
vn -0.006055 0.999974 -0.003958
vn -0.006052 0.999974 -0.003957
vn -0.999155 -0.005891 0.040665
vn -0.999138 -0.005890 0.041089
vn -0.885803 -0.006557 -0.464015
vn 0.040861 0.002912 0.999161
vn 0.040858 0.002912 0.999161
vn -0.464097 -0.000423 0.885784
vn 0.844758 0.003644 -0.535137
vn 0.464093 0.000423 -0.885786
vn 0.464280 0.000424 -0.885688
vn 0.885801 0.006557 0.464019
vn 0.999138 0.005890 -0.041089
vn 0.999156 0.005891 -0.040664
vn -0.885631 -0.006557 -0.464344
vn -0.885803 -0.006557 -0.464015
vn -0.535048 -0.005468 -0.844804
vn -0.464284 -0.000424 0.885686
vn -0.464097 -0.000423 0.885784
vn -0.844759 -0.003644 0.535135
vn 0.999138 0.005890 -0.041089
vn 0.844758 0.003644 -0.535137
vn 0.844955 0.003646 -0.534826
vn 0.535051 0.005467 0.844803
vn 0.885801 0.006557 0.464019
vn 0.885631 0.006557 0.464343
vn -0.534869 -0.005467 -0.844917
vn -0.535048 -0.005468 -0.844804
vn -0.040858 -0.002912 -0.999161
vn -0.844955 -0.003646 0.534825
vn -0.844759 -0.003644 0.535135
vn -0.999138 -0.005890 0.041089
vn 0.040861 0.002912 0.999161
vn 0.535051 0.005467 0.844803
vn 0.534871 0.005466 0.844916
vn -0.999147 -0.005891 0.040876
vn -0.999147 -0.005891 0.040876
vn -0.999147 -0.005891 0.040876
vn -0.999147 -0.005891 0.040876
vn -0.999147 -0.005891 0.040876
vn -0.999147 -0.005891 0.040876
vn -0.999147 -0.005891 0.040876
vn -0.999147 -0.005891 0.040876
vn -0.999147 -0.005891 0.040876
vn -0.999147 -0.005891 0.040876
vn -0.999147 -0.005891 0.040876
vn -0.999147 -0.005891 0.040876
vn -0.041293 0.150427 -0.987758
vn -0.040654 -0.033803 -0.998601
vn -0.040653 -0.033804 -0.998601
vn 0.999147 0.005891 -0.040876
vn 0.999147 0.005891 -0.040876
vn 0.999147 0.005891 -0.040876
vn 0.999147 0.005891 -0.040876
vn 0.999147 0.005891 -0.040876
vn 0.999147 0.005891 -0.040876
vn 0.999147 0.005891 -0.040876
vn 0.999147 0.005891 -0.040877
vn 0.999147 0.005891 -0.040876
vn 0.999147 0.005891 -0.040876
vn 0.999147 0.005891 -0.040876
vn 0.999147 0.005891 -0.040876
vn 0.038630 0.216889 0.975432
vn 0.023612 0.730595 0.682403
vn 0.023614 0.730594 0.682404
vn 0.023612 0.730595 0.682403
vn -0.007267 0.999411 -0.033538
vn -0.007264 0.999411 -0.033540
vn -0.041295 0.150430 -0.987758
vn -0.033887 0.682786 -0.729832
vn -0.033885 0.682786 -0.729833
vn -0.033887 0.682786 -0.729832
vn -0.007264 0.999411 -0.033540
vn -0.007267 0.999411 -0.033538
vn 0.038630 0.216889 0.975432
vn 0.038631 0.216888 0.975432
vn 0.040655 0.033804 0.998601
vn -0.056566 -0.081324 -0.995081
vn -0.056564 -0.081320 -0.995082
vn 0.004615 -0.996688 0.081189
vn 0.998388 -0.000000 -0.056751
vn 0.998388 0.000000 -0.056752
vn 0.998388 -0.000000 -0.056751
vn 0.056564 0.081321 0.995082
vn -0.004616 0.996688 -0.081190
vn -0.004617 0.996688 -0.081193
vn -0.998388 0.000001 0.056753
vn -0.998388 0.000002 0.056753
vn -0.998388 0.000001 0.056753
vn 0.056564 0.081321 0.995082
vn 0.056566 0.081320 0.995082
vn 0.004616 -0.996688 0.081190
vn -0.056564 -0.081320 -0.995082
vn -0.056566 -0.081324 -0.995081
vn -0.004617 0.996688 -0.081193
f 1/1/1 2/2/2 3/3/3
f 4/4/4 5/5/5 6/6/6
f 7/7/7 8/8/8 9/9/9
f 10/10/10 11/11/11 12/12/12
f 13/13/13 14/14/14 15/15/15
f 16/16/16 17/17/17 18/18/18
f 19/19/19 20/20/20 21/21/21
f 22/22/22 23/23/23 24/24/24
f 25/25/25 26/26/26 27/27/27
f 28/28/28 29/29/29 30/30/30
f 31/31/31 32/32/32 33/33/33
f 34/34/34 35/35/35 36/36/36
f 37/37/37 38/38/38 39/39/39
f 40/40/40 41/41/41 42/42/42
f 43/43/43 44/44/44 45/45/45
f 46/46/46 47/47/47 48/48/48
f 49/49/49 50/50/50 51/51/51
f 52/52/52 53/53/53 54/54/54
f 55/55/55 56/56/56 57/57/57
f 58/58/58 59/59/59 60/60/60
f 61/61/61 62/62/62 63/63/63
f 64/64/64 65/65/65 66/66/66
f 67/67/67 68/68/68 69/69/69
f 70/70/70 71/71/71 72/72/72
f 73/73/73 74/74/74 75/75/75
f 76/76/76 77/77/77 78/78/78
f 79/79/79 80/80/80 81/81/81
f 82/82/82 83/83/83 84/84/84
f 85/85/85 86/86/86 87/87/87
f 88/88/88 89/89/89 90/90/90
f 91/91/91 92/92/92 93/93/93
f 94/94/94 95/95/95 96/96/96
f 97/97/97 98/98/98 99/99/99
f 100/100/100 101/101/101 102/102/102
f 103/103/103 104/104/104 105/105/105
f 106/106/106 107/107/107 108/108/108
f 109/109/109 110/110/110 111/111/111
f 112/112/112 113/113/113 114/114/114
f 115/115/115 116/116/116 117/117/117
f 118/118/118 119/119/119 120/120/120
f 121/121/121 122/122/122 123/123/123
f 124/124/124 125/125/125 126/126/126
f 127/127/127 128/128/128 129/129/129
f 130/130/130 131/131/131 132/132/132
f 133/133/133 134/134/134 135/135/135
f 136/136/136 137/137/137 138/138/138
f 139/139/139 140/140/140 141/141/141
f 142/142/142 143/143/143 144/144/144
f 145/145/145 146/146/146 147/147/147
f 148/148/148 149/149/149 150/150/150
f 151/151/151 152/152/152 153/153/153
f 154/154/154 155/155/155 156/156/156
f 157/157/157 158/158/158 159/159/159
f 160/160/160 161/161/161 162/162/162
f 163/163/163 164/164/164 165/165/165
f 166/166/166 167/167/167 168/168/168
f 169/169/169 170/170/170 171/171/171
f 172/172/172 173/173/173 174/174/174
f 175/175/175 176/176/176 177/177/177
f 178/178/178 179/179/179 180/180/180
f 181/181/181 182/182/182 183/183/183
f 184/184/184 185/185/185 186/186/186
f 187/187/187 188/188/188 189/189/189
f 190/190/190 191/191/191 192/192/192
f 193/193/193 194/194/194 195/195/195
f 196/196/196 197/197/197 198/198/198
f 199/199/199 200/200/200 201/201/201
f 202/202/202 203/203/203 204/204/204
