mtllib transition_seal_cylinder_010.mtl
usemtl Texture
v 0.001992 2.254040 -0.133807
v 0.068742 5.383130 -0.115590
v 0.068726 2.253946 -0.115926
v 0.068726 2.253946 -0.115926
v 0.117596 5.383061 -0.066738
v 0.117580 2.253878 -0.067073
v 0.117580 2.253878 -0.067073
v 0.135478 5.383035 -0.000004
v 0.135461 2.253852 -0.000340
v 0.135478 5.383035 -0.000004
v 0.117580 2.253878 0.066394
v 0.135461 2.253852 -0.000340
v 0.117596 5.383061 0.066730
v 0.068726 2.253946 0.115246
v 0.117580 2.253878 0.066394
v 0.068742 5.383129 0.115582
v 0.001992 2.254040 0.133127
v 0.068726 2.253946 0.115246
v 0.002008 5.383224 0.133463
v -0.064742 2.254133 0.115246
v 0.001992 2.254040 0.133127
v -0.064727 5.383316 0.115582
v -0.113596 2.254201 0.066394
v -0.064742 2.254133 0.115246
v -0.113579 5.383385 0.066729
v -0.131477 2.254227 -0.000340
v -0.113596 2.254201 0.066394
v -0.131477 2.254227 -0.000340
v -0.113580 5.383386 -0.066738
v -0.113596 2.254201 -0.067074
v -0.113596 2.254201 -0.067074
v -0.064727 5.383316 -0.115591
v -0.064743 2.254134 -0.115926
v -0.064743 2.254134 -0.115926
v 0.002008 5.383224 -0.133472
v 0.001992 2.254040 -0.133807
v -1.599105 2.253763 -0.134143
v -1.666946 5.382830 -0.115955
v -1.600204 5.382947 -0.133808
v -1.665847 2.253646 -0.116290
v -1.715820 5.382745 -0.067123
v -1.666946 5.382830 -0.115955
v -1.714721 2.253561 -0.067458
v -1.733730 5.382712 -0.000397
v -1.715820 5.382745 -0.067123
v -1.714777 2.253561 0.066009
v -1.733730 5.382712 -0.000397
v -1.732630 2.253529 -0.000732
v -1.665944 2.253646 0.114882
v -1.715876 5.382745 0.066345
v -1.714777 2.253561 0.066009
v -1.599218 2.253763 0.132791
v -1.667043 5.382829 0.115217
v -1.665944 2.253646 0.114882
v -1.532476 2.253880 0.114938
v -1.600317 5.382947 0.133127
v -1.599218 2.253763 0.132791
v -1.483602 2.253965 0.066106
v -1.533574 5.383063 0.115273
v -1.532476 2.253880 0.114938
v -1.465692 2.253996 -0.000620
v -1.484701 5.383148 0.066441
v -1.483602 2.253965 0.066106
v -1.465692 2.253996 -0.000620
v -1.484644 5.383149 -0.067026
v -1.466792 5.383180 -0.000285
v -1.483546 2.253965 -0.067361
v -1.533477 5.383063 -0.115899
v -1.484644 5.383149 -0.067026
v -1.532378 2.253880 -0.116234
v -1.600204 5.382947 -0.133808
v -1.533477 5.383063 -0.115899
v 0.001992 2.254040 -0.133807
v 0.002008 5.383224 -0.133472
v 0.068742 5.383130 -0.115590
v 0.068726 2.253946 -0.115926
v 0.068742 5.383130 -0.115590
v 0.117596 5.383061 -0.066738
v 0.117580 2.253878 -0.067073
v 0.117596 5.383061 -0.066738
v 0.135478 5.383035 -0.000004
v 0.135478 5.383035 -0.000004
v 0.117596 5.383061 0.066730
v 0.117580 2.253878 0.066394
v 0.117596 5.383061 0.066730
v 0.068742 5.383129 0.115582
v 0.068726 2.253946 0.115246
v 0.068742 5.383129 0.115582
v 0.002008 5.383224 0.133463
v 0.001992 2.254040 0.133127
v 0.002008 5.383224 0.133463
v -0.064727 5.383316 0.115582
v -0.064742 2.254133 0.115246
v -0.064727 5.383316 0.115582
v -0.113579 5.383385 0.066729
v -0.113596 2.254201 0.066394
v -0.113579 5.383385 0.066729
v -0.131461 5.383410 -0.000005
v -0.131477 2.254227 -0.000340
v -0.131477 2.254227 -0.000340
v -0.131461 5.383410 -0.000005
v -0.113580 5.383386 -0.066738
v -0.113596 2.254201 -0.067074
v -0.113580 5.383386 -0.066738
v -0.064727 5.383316 -0.115591
v -0.064743 2.254134 -0.115926
v -0.064727 5.383316 -0.115591
v 0.002008 5.383224 -0.133472
v -1.599105 2.253763 -0.134143
v -1.665847 2.253646 -0.116290
v -1.666946 5.382830 -0.115955
v -1.665847 2.253646 -0.116290
v -1.714721 2.253561 -0.067458
v -1.715820 5.382745 -0.067123
v -1.714721 2.253561 -0.067458
v -1.732630 2.253529 -0.000732
v -1.733730 5.382712 -0.000397
v -1.714777 2.253561 0.066009
v -1.715876 5.382745 0.066345
v -1.733730 5.382712 -0.000397
v -1.665944 2.253646 0.114882
v -1.667043 5.382829 0.115217
v -1.715876 5.382745 0.066345
v -1.599218 2.253763 0.132791
v -1.600317 5.382947 0.133127
v -1.667043 5.382829 0.115217
v -1.532476 2.253880 0.114938
v -1.533574 5.383063 0.115273
v -1.600317 5.382947 0.133127
v -1.483602 2.253965 0.066106
v -1.484701 5.383148 0.066441
v -1.533574 5.383063 0.115273
v -1.465692 2.253996 -0.000620
v -1.466792 5.383180 -0.000285
v -1.484701 5.383148 0.066441
v -1.465692 2.253996 -0.000620
v -1.483546 2.253965 -0.067361
v -1.484644 5.383149 -0.067026
v -1.483546 2.253965 -0.067361
v -1.532378 2.253880 -0.116234
v -1.533477 5.383063 -0.115899
v -1.532378 2.253880 -0.116234
v -1.599105 2.253763 -0.134143
v -1.600204 5.382947 -0.133808
vt 0.638918 0.083603
vt 0.638149 0.048778
vt 0.638149 0.083604
vt 0.638149 0.083604
vt 0.637380 0.048778
vt 0.637380 0.083605
vt 0.637380 0.083605
vt 0.636611 0.048779
vt 0.636611 0.083605
vt 0.636611 0.048779
vt 0.635842 0.083605
vt 0.636611 0.083605
vt 0.635842 0.048778
vt 0.635073 0.083604
vt 0.635842 0.083605
vt 0.635073 0.048778
vt 0.634304 0.083603
vt 0.635073 0.083604
vt 0.634304 0.048776
vt 0.633536 0.083602
vt 0.634304 0.083603
vt 0.642763 0.048775
vt 0.641994 0.083601
vt 0.642763 0.083602
vt 0.641994 0.048775
vt 0.641225 0.083601
vt 0.641994 0.083601
vt 0.641225 0.083601
vt 0.640456 0.048775
vt 0.640456 0.083601
vt 0.640456 0.083601
vt 0.639687 0.048776
vt 0.639687 0.083602
vt 0.639687 0.083602
vt 0.638918 0.048777
vt 0.638918 0.083603
vt 0.620139 0.083603
vt 0.620908 0.048777
vt 0.620139 0.048776
vt 0.620908 0.083604
vt 0.621677 0.048778
vt 0.620908 0.048777
vt 0.621677 0.083605
vt 0.622446 0.048778
vt 0.621677 0.048778
vt 0.623215 0.083605
vt 0.622446 0.048778
vt 0.622446 0.083605
vt 0.623984 0.083604
vt 0.623215 0.048778
vt 0.623215 0.083605
vt 0.624753 0.083603
vt 0.623984 0.048777
vt 0.623984 0.083604
vt 0.625522 0.083602
vt 0.624753 0.048776
vt 0.624753 0.083603
vt 0.617064 0.083601
vt 0.616295 0.048775
vt 0.616295 0.083602
vt 0.617833 0.083601
vt 0.617063 0.048774
vt 0.617064 0.083601
vt 0.617833 0.083601
vt 0.618601 0.048775
vt 0.617832 0.048774
vt 0.618602 0.083601
vt 0.619370 0.048775
vt 0.618601 0.048775
vt 0.619370 0.083602
vt 0.620139 0.048776
vt 0.619370 0.048775
vt 0.638918 0.083603
vt 0.638918 0.048777
vt 0.638149 0.048778
vt 0.638149 0.083604
vt 0.638149 0.048778
vt 0.637380 0.048778
vt 0.637380 0.083605
vt 0.637380 0.048778
vt 0.636611 0.048779
vt 0.636611 0.048779
vt 0.635842 0.048778
vt 0.635842 0.083605
vt 0.635842 0.048778
vt 0.635073 0.048778
vt 0.635073 0.083604
vt 0.635073 0.048778
vt 0.634304 0.048776
vt 0.634304 0.083603
vt 0.634304 0.048776
vt 0.633536 0.048775
vt 0.633536 0.083602
vt 0.642763 0.048775
vt 0.641994 0.048775
vt 0.641994 0.083601
vt 0.641994 0.048775
vt 0.641225 0.048775
vt 0.641225 0.083601
vt 0.641225 0.083601
vt 0.641225 0.048775
vt 0.640456 0.048775
vt 0.640456 0.083601
vt 0.640456 0.048775
vt 0.639687 0.048776
vt 0.639687 0.083602
vt 0.639687 0.048776
vt 0.638918 0.048777
vt 0.620139 0.083603
vt 0.620908 0.083604
vt 0.620908 0.048777
vt 0.620908 0.083604
vt 0.621677 0.083605
vt 0.621677 0.048778
vt 0.621677 0.083605
vt 0.622446 0.083605
vt 0.622446 0.048778
vt 0.623215 0.083605
vt 0.623215 0.048778
vt 0.622446 0.048778
vt 0.623984 0.083604
vt 0.623984 0.048777
vt 0.623215 0.048778
vt 0.624753 0.083603
vt 0.624753 0.048776
vt 0.623984 0.048777
vt 0.625522 0.083602
vt 0.625522 0.048775
vt 0.624753 0.048776
vt 0.617064 0.083601
vt 0.617063 0.048774
vt 0.616295 0.048775
vt 0.617833 0.083601
vt 0.617832 0.048774
vt 0.617063 0.048774
vt 0.617833 0.083601
vt 0.618602 0.083601
vt 0.618601 0.048775
vt 0.618602 0.083601
vt 0.619370 0.083602
vt 0.619370 0.048775
vt 0.619370 0.083602
vt 0.620139 0.083603
vt 0.620139 0.048776
vn 0.000231 0.000107 -1.000000
vn 0.499829 0.000090 -0.866124
vn 0.500160 0.000090 -0.865933
vn 0.500160 0.000090 -0.865933
vn 0.865970 0.000049 -0.500096
vn 0.866072 0.000049 -0.499919
vn 0.866072 0.000049 -0.499919
vn 1.000000 -0.000005 0.000017
vn 1.000000 -0.000005 -0.000019
vn 1.000000 -0.000005 0.000017
vn 0.866087 -0.000058 0.499893
vn 1.000000 -0.000005 -0.000019
vn 0.865954 -0.000058 0.500123
vn 0.500174 -0.000095 0.865925
vn 0.866087 -0.000058 0.499893
vn 0.499813 -0.000095 0.866134
vn 0.000230 -0.000107 1.000000
vn 0.500174 -0.000095 0.865925
vn -0.000230 -0.000107 1.000000
vn -0.499831 -0.000090 0.866123
vn 0.000230 -0.000107 1.000000
vn -0.500161 -0.000090 0.865933
vn -0.865972 -0.000049 0.500092
vn -0.499831 -0.000090 0.866123
vn -0.866074 -0.000049 0.499915
vn -1.000000 0.000005 -0.000018
vn -0.865972 -0.000049 0.500092
vn -1.000000 0.000005 -0.000018
vn -0.866090 0.000058 -0.499888
vn -0.865958 0.000058 -0.500117
vn -0.865958 0.000058 -0.500117
vn -0.500173 0.000095 -0.865925
vn -0.499816 0.000095 -0.866132
vn -0.499816 0.000095 -0.866132
vn -0.000228 0.000107 -1.000000
vn 0.000231 0.000107 -1.000000
vn 0.000189 0.000107 -1.000000
vn -0.499466 -0.000083 -0.866333
vn 0.000648 0.000107 -1.000000
vn -0.499797 -0.000083 -0.866143
vn -0.865760 -0.000251 -0.500460
vn -0.499466 -0.000083 -0.866333
vn -0.865863 -0.000251 -0.500282
vn -1.000000 -0.000351 -0.000401
vn -0.865760 -0.000251 -0.500460
vn -0.866298 -0.000358 0.499528
vn -1.000000 -0.000351 -0.000401
vn -1.000000 -0.000351 -0.000440
vn -0.500538 -0.000269 0.865714
vn -0.866163 -0.000358 0.499761
vn -0.866298 -0.000358 0.499528
vn -0.000649 -0.000107 1.000000
vn -0.500178 -0.000268 0.865923
vn -0.500538 -0.000269 0.865714
vn 0.499466 0.000083 0.866333
vn -0.000189 -0.000107 1.000000
vn -0.000649 -0.000107 1.000000
vn 0.865761 0.000250 0.500459
vn 0.499797 0.000083 0.866143
vn 0.499466 0.000083 0.866333
vn 1.000000 0.000351 0.000404
vn 0.865865 0.000251 0.500278
vn 0.865761 0.000250 0.500459
vn 1.000000 0.000351 0.000404
vn 0.866300 0.000358 -0.499524
vn 1.000000 0.000351 0.000439
vn 0.866166 0.000358 -0.499756
vn 0.500537 0.000268 -0.865715
vn 0.866300 0.000358 -0.499524
vn 0.500178 0.000268 -0.865923
vn 0.000648 0.000107 -1.000000
vn 0.500537 0.000268 -0.865715
vn 0.000231 0.000107 -1.000000
vn -0.000228 0.000107 -1.000000
vn 0.499829 0.000090 -0.866124
vn 0.500160 0.000090 -0.865933
vn 0.499829 0.000090 -0.866124
vn 0.865970 0.000049 -0.500096
vn 0.866072 0.000049 -0.499919
vn 0.865970 0.000049 -0.500096
vn 1.000000 -0.000005 0.000017
vn 1.000000 -0.000005 0.000017
vn 0.865954 -0.000058 0.500123
vn 0.866087 -0.000058 0.499893
vn 0.865954 -0.000058 0.500123
vn 0.499813 -0.000095 0.866134
vn 0.500174 -0.000095 0.865925
vn 0.499813 -0.000095 0.866134
vn -0.000230 -0.000107 1.000000
vn 0.000230 -0.000107 1.000000
vn -0.000230 -0.000107 1.000000
vn -0.500161 -0.000090 0.865933
vn -0.499831 -0.000090 0.866123
vn -0.500161 -0.000090 0.865933
vn -0.866074 -0.000049 0.499915
vn -0.865972 -0.000049 0.500092
vn -0.866074 -0.000049 0.499915
vn -1.000000 0.000005 0.000020
vn -1.000000 0.000005 -0.000018
vn -1.000000 0.000005 -0.000018
vn -1.000000 0.000005 0.000020
vn -0.866090 0.000058 -0.499888
vn -0.865958 0.000058 -0.500117
vn -0.866090 0.000058 -0.499888
vn -0.500173 0.000095 -0.865925
vn -0.499816 0.000095 -0.866132
vn -0.500173 0.000095 -0.865925
vn -0.000228 0.000107 -1.000000
vn 0.000189 0.000107 -1.000000
vn -0.499797 -0.000083 -0.866143
vn -0.499466 -0.000083 -0.866333
vn -0.499797 -0.000083 -0.866143
vn -0.865863 -0.000251 -0.500282
vn -0.865760 -0.000251 -0.500460
vn -0.865863 -0.000251 -0.500282
vn -1.000000 -0.000351 -0.000440
vn -1.000000 -0.000351 -0.000401
vn -0.866298 -0.000358 0.499528
vn -0.866163 -0.000358 0.499761
vn -1.000000 -0.000351 -0.000401
vn -0.500538 -0.000269 0.865714
vn -0.500178 -0.000268 0.865923
vn -0.866163 -0.000358 0.499761
vn -0.000649 -0.000107 1.000000
vn -0.000189 -0.000107 1.000000
vn -0.500178 -0.000268 0.865923
vn 0.499466 0.000083 0.866333
vn 0.499797 0.000083 0.866143
vn -0.000189 -0.000107 1.000000
vn 0.865761 0.000250 0.500459
vn 0.865865 0.000251 0.500278
vn 0.499797 0.000083 0.866143
vn 1.000000 0.000351 0.000404
vn 1.000000 0.000351 0.000439
vn 0.865865 0.000251 0.500278
vn 1.000000 0.000351 0.000404
vn 0.866166 0.000358 -0.499756
vn 0.866300 0.000358 -0.499524
vn 0.866166 0.000358 -0.499756
vn 0.500178 0.000268 -0.865923
vn 0.500537 0.000268 -0.865715
vn 0.500178 0.000268 -0.865923
vn 0.000189 0.000107 -1.000000
vn 0.000648 0.000107 -1.000000
f 1/1/1 2/2/2 3/3/3
f 4/4/4 5/5/5 6/6/6
f 7/7/7 8/8/8 9/9/9
f 10/10/10 11/11/11 12/12/12
f 13/13/13 14/14/14 15/15/15
f 16/16/16 17/17/17 18/18/18
f 19/19/19 20/20/20 21/21/21
f 22/22/22 23/23/23 24/24/24
f 25/25/25 26/26/26 27/27/27
f 28/28/28 29/29/29 30/30/30
f 31/31/31 32/32/32 33/33/33
f 34/34/34 35/35/35 36/36/36
f 37/37/37 38/38/38 39/39/39
f 40/40/40 41/41/41 42/42/42
f 43/43/43 44/44/44 45/45/45
f 46/46/46 47/47/47 48/48/48
f 49/49/49 50/50/50 51/51/51
f 52/52/52 53/53/53 54/54/54
f 55/55/55 56/56/56 57/57/57
f 58/58/58 59/59/59 60/60/60
f 61/61/61 62/62/62 63/63/63
f 64/64/64 65/65/65 66/66/66
f 67/67/67 68/68/68 69/69/69
f 70/70/70 71/71/71 72/72/72
f 73/73/73 74/74/74 75/75/75
f 76/76/76 77/77/77 78/78/78
f 79/79/79 80/80/80 81/81/81
f 82/82/82 83/83/83 84/84/84
f 85/85/85 86/86/86 87/87/87
f 88/88/88 89/89/89 90/90/90
f 91/91/91 92/92/92 93/93/93
f 94/94/94 95/95/95 96/96/96
f 97/97/97 98/98/98 99/99/99
f 100/100/100 101/101/101 102/102/102
f 103/103/103 104/104/104 105/105/105
f 106/106/106 107/107/107 108/108/108
f 109/109/109 110/110/110 111/111/111
f 112/112/112 113/113/113 114/114/114
f 115/115/115 116/116/116 117/117/117
f 118/118/118 119/119/119 120/120/120
f 121/121/121 122/122/122 123/123/123
f 124/124/124 125/125/125 126/126/126
f 127/127/127 128/128/128 129/129/129
f 130/130/130 131/131/131 132/132/132
f 133/133/133 134/134/134 135/135/135
f 136/136/136 137/137/137 138/138/138
f 139/139/139 140/140/140 141/141/141
f 142/142/142 143/143/143 144/144/144
