mtllib transition_seal_cylinder_007.mtl
usemtl Texture
v 0.386380 0.486959 0.004436
v 0.340367 3.025655 0.176098
v 0.340368 0.482328 0.176091
v 0.340368 0.482328 0.176091
v 0.214661 3.022264 0.301758
v 0.214662 0.478936 0.301750
v 0.214662 0.478936 0.301750
v 0.042944 3.021023 0.347753
v 0.042945 0.477695 0.347745
v 0.042944 3.021023 0.347753
v -0.128771 0.478936 0.301750
v 0.042945 0.477695 0.347745
v -0.128772 3.022264 0.301758
v -0.254477 0.482327 0.176091
v -0.128771 0.478936 0.301750
v -0.254478 3.025655 0.176098
v -0.300488 0.486959 0.004436
v -0.254477 0.482327 0.176091
v -0.300489 3.030286 0.004443
v -0.254477 0.491591 -0.167218
v -0.300488 0.486959 0.004436
v -0.254478 3.034920 -0.167210
v -0.128772 0.494982 -0.292878
v -0.254477 0.491591 -0.167218
v -0.128772 3.038311 -0.292870
v 0.042945 0.496223 -0.338872
v -0.128772 0.494982 -0.292878
v 0.042945 0.496223 -0.338872
v 0.214661 3.038311 -0.292870
v 0.214662 0.494982 -0.292878
v -0.200379 3.033722 -0.140204
v -0.097538 3.219424 -0.233087
v -0.097538 3.036221 -0.243009
v 0.214662 0.494982 -0.292878
v 0.340367 3.034920 -0.167210
v 0.340368 0.491591 -0.167218
v 0.340368 0.491591 -0.167218
v 0.386379 3.030286 0.004443
v 0.386380 0.486959 0.004436
v 0.290022 0.490807 -0.138161
v 0.185595 0.353827 -0.246323
v 0.185595 0.493624 -0.242551
v 0.328246 0.486959 0.004436
v 0.340368 0.482328 0.176091
v 0.290022 0.483111 0.147035
v 0.290022 0.483111 0.147035
v 0.214662 0.478936 0.301750
v 0.185595 0.480295 0.251424
v 0.042945 0.479263 0.289633
v 0.214662 0.478936 0.301750
v 0.042945 0.477695 0.347745
v 0.042945 0.479263 0.289633
v -0.128771 0.478936 0.301750
v -0.099705 0.480295 0.251423
v -0.204132 0.483111 0.147035
v -0.128771 0.478936 0.301750
v -0.254477 0.482327 0.176091
v -0.204132 0.483111 0.147035
v -0.300488 0.486959 0.004436
v -0.242355 0.486959 0.004436
v -0.204132 0.490807 -0.138161
v -0.300488 0.486959 0.004436
v -0.254477 0.491591 -0.167218
v -0.099705 0.493624 -0.242551
v -0.254477 0.491591 -0.167218
v -0.128772 0.494982 -0.292878
v -0.099705 0.493624 -0.242551
v 0.042945 0.496223 -0.338872
v 0.042945 0.494655 -0.280760
v 0.185595 0.493624 -0.242551
v 0.042945 0.496223 -0.338872
v 0.214662 0.494982 -0.292878
v 0.290022 0.490807 -0.138161
v 0.214662 0.494982 -0.292878
v 0.340368 0.491591 -0.167218
v 0.328246 0.486959 0.004436
v 0.340368 0.491591 -0.167218
v 0.386380 0.486959 0.004436
v 0.042945 0.339466 0.285860
v -0.204132 0.351009 -0.141934
v 0.290022 0.351010 -0.141934
v 0.328246 0.486959 0.004436
v 0.290022 0.343314 0.143262
v 0.328246 0.347161 0.000664
v -0.204132 0.490807 -0.138161
v -0.099705 0.353827 -0.246323
v -0.204132 0.351009 -0.141934
v -0.099705 0.480295 0.251423
v -0.204132 0.343314 0.143262
v -0.099705 0.340496 0.247651
v 0.328246 0.486959 0.004436
v 0.290022 0.351010 -0.141934
v 0.290022 0.490807 -0.138161
v 0.185595 0.480295 0.251424
v 0.290022 0.343314 0.143262
v 0.290022 0.483111 0.147035
v 0.042945 0.494655 -0.280760
v -0.099705 0.353827 -0.246323
v -0.099705 0.493624 -0.242551
v -0.242355 0.486959 0.004436
v -0.204132 0.343314 0.143262
v -0.204132 0.483111 0.147035
v 0.042945 0.479263 0.289633
v 0.185595 0.340496 0.247651
v 0.185595 0.480295 0.251424
v 0.042945 0.494655 -0.280760
v 0.185595 0.353827 -0.246323
v 0.042945 0.354857 -0.284532
v -0.242355 0.486959 0.004436
v -0.204132 0.351009 -0.141934
v -0.242355 0.347161 0.000664
v 0.042945 0.479263 0.289633
v -0.099705 0.340496 0.247651
v 0.042945 0.339466 0.285860
v 0.117030 0.393432 -0.213857
v -0.031139 0.381846 0.226284
v 0.117030 0.381846 0.226284
v -0.031139 0.393432 -0.213857
v 0.117030 -0.021474 -0.216784
v -0.031139 -0.021474 -0.216784
v -0.031139 0.381846 0.226284
v 0.117030 -0.042913 0.205736
v 0.117030 0.381846 0.226284
v 0.117030 -0.042913 0.205736
v 0.117030 -0.157482 -0.102296
v 0.117030 -0.021474 -0.216784
v 0.117030 -0.182566 -0.004914
v -0.031139 -0.167357 0.092306
v -0.031139 -0.182566 -0.004914
v 0.117030 -0.167357 0.092306
v -0.031139 -0.116240 0.169409
v -0.031139 -0.167357 0.092306
v 0.117030 -0.116240 0.169409
v -0.031139 -0.042913 0.205736
v -0.031139 -0.116240 0.169409
v -0.031139 -0.021474 -0.216784
v 0.117030 -0.098519 -0.179847
v -0.031139 -0.098519 -0.179847
v 0.117030 -0.098519 -0.179847
v -0.031139 -0.157482 -0.102296
v -0.031139 -0.098519 -0.179847
v 0.117030 -0.157482 -0.102296
v -0.031139 -0.182566 -0.004914
v -0.031139 -0.157482 -0.102296
v -0.031139 -0.167357 0.092306
v -0.031139 -0.116240 0.169409
v -0.031139 -0.042913 0.205736
v 0.286269 3.026895 0.140662
v 0.386379 3.030286 0.004443
v 0.323911 3.030307 0.000228
v 0.183427 3.024395 0.243467
v 0.340367 3.025655 0.176098
v 0.286269 3.026895 0.140662
v 0.042944 3.023481 0.281096
v 0.214661 3.022264 0.301758
v 0.183427 3.024395 0.243467
v 0.042944 3.023481 0.281096
v -0.128772 3.022264 0.301758
v 0.042944 3.021023 0.347753
v -0.097538 3.024395 0.243467
v -0.254478 3.025655 0.176098
v -0.128772 3.022264 0.301758
v -0.200379 3.026895 0.140662
v -0.300489 3.030286 0.004443
v -0.254478 3.025655 0.176098
v -0.238022 3.030306 0.000228
v -0.254478 3.034920 -0.167210
v -0.300489 3.030286 0.004443
v -0.200379 3.033722 -0.140204
v -0.128772 3.038311 -0.292870
v -0.254478 3.034920 -0.167210
v -0.097538 3.036221 -0.243009
v 0.042944 3.039551 -0.338865
v -0.128772 3.038311 -0.292870
v 0.183427 3.036221 -0.243009
v 0.042944 3.039551 -0.338865
v 0.042944 3.037134 -0.280639
v 0.286269 3.033722 -0.140205
v 0.214661 3.038311 -0.292870
v 0.183427 3.036221 -0.243009
v 0.323911 3.030307 0.000228
v 0.340367 3.034920 -0.167210
v 0.286269 3.033722 -0.140205
v -0.097538 3.024395 0.243467
v -0.200379 3.210098 0.150585
v -0.200379 3.026895 0.140662
v 0.323911 3.030307 0.000228
v 0.286269 3.216925 -0.130282
v 0.323911 3.213511 0.010150
v 0.183427 3.024395 0.243467
v 0.286269 3.210098 0.150585
v 0.183427 3.207599 0.253390
v -0.097538 3.036221 -0.243009
v 0.042944 3.220338 -0.270717
v 0.042944 3.037134 -0.280639
v -0.200379 3.026895 0.140662
v -0.238022 3.213510 0.010150
v -0.238022 3.030306 0.000228
v 0.042944 3.023481 0.281096
v 0.183427 3.207599 0.253390
v 0.042945 3.206685 0.291019
v 0.183427 3.036221 -0.243009
v 0.042944 3.220338 -0.270717
v 0.183427 3.219424 -0.233087
v -0.238022 3.030306 0.000228
v -0.200379 3.216926 -0.130282
v -0.200379 3.033722 -0.140204
v 0.042944 3.023481 0.281096
v -0.097538 3.207599 0.253390
v -0.097538 3.024395 0.243467
v 0.286269 3.033722 -0.140205
v 0.183427 3.219424 -0.233087
v 0.286269 3.216925 -0.130282
v 0.286269 3.026895 0.140662
v 0.323911 3.213511 0.010150
v 0.286269 3.210098 0.150585
v -0.097538 3.219424 -0.233087
v -0.238022 3.213510 0.010150
v -0.097538 3.207599 0.253390
v 0.386380 0.486959 0.004436
v 0.386379 3.030286 0.004443
v 0.340367 3.025655 0.176098
v 0.340368 0.482328 0.176091
v 0.340367 3.025655 0.176098
v 0.214661 3.022264 0.301758
v 0.214662 0.478936 0.301750
v 0.214661 3.022264 0.301758
v 0.042944 3.021023 0.347753
v 0.042944 3.021023 0.347753
v -0.128772 3.022264 0.301758
v -0.128771 0.478936 0.301750
v -0.128772 3.022264 0.301758
v -0.254478 3.025655 0.176098
v -0.254477 0.482327 0.176091
v -0.254478 3.025655 0.176098
v -0.300489 3.030286 0.004443
v -0.300488 0.486959 0.004436
v -0.300489 3.030286 0.004443
v -0.254478 3.034920 -0.167210
v -0.254477 0.491591 -0.167218
v -0.254478 3.034920 -0.167210
v -0.128772 3.038311 -0.292870
v -0.128772 0.494982 -0.292878
v -0.128772 3.038311 -0.292870
v 0.042944 3.039551 -0.338865
v 0.042945 0.496223 -0.338872
v 0.042945 0.496223 -0.338872
v 0.042944 3.039551 -0.338865
v 0.214661 3.038311 -0.292870
v -0.200379 3.033722 -0.140204
v -0.200379 3.216926 -0.130282
v -0.097538 3.219424 -0.233087
v 0.214662 0.494982 -0.292878
v 0.214661 3.038311 -0.292870
v 0.340367 3.034920 -0.167210
v 0.340368 0.491591 -0.167218
v 0.340367 3.034920 -0.167210
v 0.386379 3.030286 0.004443
v 0.290022 0.490807 -0.138161
v 0.290022 0.351010 -0.141934
v 0.185595 0.353827 -0.246323
v 0.328246 0.486959 0.004436
v 0.386380 0.486959 0.004436
v 0.340368 0.482328 0.176091
v 0.290022 0.483111 0.147035
v 0.340368 0.482328 0.176091
v 0.214662 0.478936 0.301750
v 0.042945 0.479263 0.289633
v 0.185595 0.480295 0.251424
v 0.214662 0.478936 0.301750
v 0.042945 0.479263 0.289633
v 0.042945 0.477695 0.347745
v -0.128771 0.478936 0.301750
v -0.204132 0.483111 0.147035
v -0.099705 0.480295 0.251423
v -0.128771 0.478936 0.301750
v -0.204132 0.483111 0.147035
v -0.254477 0.482327 0.176091
v -0.300488 0.486959 0.004436
v -0.204132 0.490807 -0.138161
v -0.242355 0.486959 0.004436
v -0.300488 0.486959 0.004436
v -0.099705 0.493624 -0.242551
v -0.204132 0.490807 -0.138161
v -0.254477 0.491591 -0.167218
v -0.099705 0.493624 -0.242551
v -0.128772 0.494982 -0.292878
v 0.042945 0.496223 -0.338872
v 0.185595 0.493624 -0.242551
v 0.042945 0.494655 -0.280760
v 0.042945 0.496223 -0.338872
v 0.290022 0.490807 -0.138161
v 0.185595 0.493624 -0.242551
v 0.214662 0.494982 -0.292878
v 0.328246 0.486959 0.004436
v 0.290022 0.490807 -0.138161
v 0.340368 0.491591 -0.167218
v 0.290022 0.351010 -0.141934
v 0.328246 0.347161 0.000664
v 0.290022 0.343314 0.143262
v 0.290022 0.343314 0.143262
v 0.185595 0.340496 0.247651
v 0.290022 0.351010 -0.141934
v 0.185595 0.340496 0.247651
v 0.042945 0.339466 0.285860
v 0.290022 0.351010 -0.141934
v 0.042945 0.339466 0.285860
v -0.099705 0.340496 0.247651
v -0.204132 0.351009 -0.141934
v -0.099705 0.340496 0.247651
v -0.204132 0.343314 0.143262
v -0.204132 0.351009 -0.141934
v -0.204132 0.343314 0.143262
v -0.242355 0.347161 0.000664
v -0.204132 0.351009 -0.141934
v -0.204132 0.351009 -0.141934
v -0.099705 0.353827 -0.246323
v 0.042945 0.354857 -0.284532
v 0.042945 0.354857 -0.284532
v 0.185595 0.353827 -0.246323
v -0.204132 0.351009 -0.141934
v 0.185595 0.353827 -0.246323
v 0.290022 0.351010 -0.141934
v -0.204132 0.351009 -0.141934
v 0.328246 0.486959 0.004436
v 0.290022 0.483111 0.147035
v 0.290022 0.343314 0.143262
v -0.204132 0.490807 -0.138161
v -0.099705 0.493624 -0.242551
v -0.099705 0.353827 -0.246323
v -0.099705 0.480295 0.251423
v -0.204132 0.483111 0.147035
v -0.204132 0.343314 0.143262
v 0.328246 0.486959 0.004436
v 0.328246 0.347161 0.000664
v 0.290022 0.351010 -0.141934
v 0.185595 0.480295 0.251424
v 0.185595 0.340496 0.247651
v 0.290022 0.343314 0.143262
v 0.042945 0.494655 -0.280760
v 0.042945 0.354857 -0.284532
v -0.099705 0.353827 -0.246323
v -0.242355 0.486959 0.004436
v -0.242355 0.347161 0.000664
v -0.204132 0.343314 0.143262
v 0.042945 0.479263 0.289633
v 0.042945 0.339466 0.285860
v 0.185595 0.340496 0.247651
v 0.042945 0.494655 -0.280760
v 0.185595 0.493624 -0.242551
v 0.185595 0.353827 -0.246323
v -0.242355 0.486959 0.004436
v -0.204132 0.490807 -0.138161
v -0.204132 0.351009 -0.141934
v 0.042945 0.479263 0.289633
v -0.099705 0.480295 0.251423
v -0.099705 0.340496 0.247651
v 0.117030 0.393432 -0.213857
v -0.031139 0.393432 -0.213857
v -0.031139 0.381846 0.226284
v -0.031139 0.393432 -0.213857
v 0.117030 0.393432 -0.213857
v 0.117030 -0.021474 -0.216784
v -0.031139 0.381846 0.226284
v -0.031139 -0.042913 0.205736
v 0.117030 -0.042913 0.205736
v 0.117030 -0.021474 -0.216784
v 0.117030 0.393432 -0.213857
v 0.117030 0.381846 0.226284
v 0.117030 0.381846 0.226284
v 0.117030 -0.042913 0.205736
v 0.117030 -0.021474 -0.216784
v 0.117030 -0.042913 0.205736
v 0.117030 -0.116240 0.169409
v 0.117030 -0.167357 0.092306
v 0.117030 -0.182566 -0.004914
v 0.117030 -0.042913 0.205736
v 0.117030 -0.167357 0.092306
v 0.117030 -0.182566 -0.004914
v 0.117030 -0.157482 -0.102296
v 0.117030 -0.042913 0.205736
v 0.117030 -0.157482 -0.102296
v 0.117030 -0.098519 -0.179847
v 0.117030 -0.021474 -0.216784
v 0.117030 -0.182566 -0.004914
v 0.117030 -0.167357 0.092306
v -0.031139 -0.167357 0.092306
v 0.117030 -0.167357 0.092306
v 0.117030 -0.116240 0.169409
v -0.031139 -0.116240 0.169409
v 0.117030 -0.116240 0.169409
v 0.117030 -0.042913 0.205736
v -0.031139 -0.042913 0.205736
v -0.031139 -0.021474 -0.216784
v 0.117030 -0.021474 -0.216784
v 0.117030 -0.098519 -0.179847
v 0.117030 -0.098519 -0.179847
v 0.117030 -0.157482 -0.102296
v -0.031139 -0.157482 -0.102296
v 0.117030 -0.157482 -0.102296
v 0.117030 -0.182566 -0.004914
v -0.031139 -0.182566 -0.004914
v -0.031139 -0.042913 0.205736
v -0.031139 0.381846 0.226284
v -0.031139 -0.021474 -0.216784
v -0.031139 0.381846 0.226284
v -0.031139 0.393432 -0.213857
v -0.031139 -0.021474 -0.216784
v -0.031139 -0.021474 -0.216784
v -0.031139 -0.098519 -0.179847
v -0.031139 -0.157482 -0.102296
v -0.031139 -0.042913 0.205736
v -0.031139 -0.182566 -0.004914
v -0.031139 -0.167357 0.092306
v -0.031139 -0.157482 -0.102296
v -0.031139 -0.182566 -0.004914
v -0.031139 -0.042913 0.205736
v -0.031139 -0.021474 -0.216784
v -0.031139 -0.157482 -0.102296
v -0.031139 -0.042913 0.205736
v 0.286269 3.026895 0.140662
v 0.340367 3.025655 0.176098
v 0.386379 3.030286 0.004443
v 0.183427 3.024395 0.243467
v 0.214661 3.022264 0.301758
v 0.340367 3.025655 0.176098
v 0.042944 3.023481 0.281096
v 0.042944 3.021023 0.347753
v 0.214661 3.022264 0.301758
v 0.042944 3.023481 0.281096
v -0.097538 3.024395 0.243467
v -0.128772 3.022264 0.301758
v -0.097538 3.024395 0.243467
v -0.200379 3.026895 0.140662
v -0.254478 3.025655 0.176098
v -0.200379 3.026895 0.140662
v -0.238022 3.030306 0.000228
v -0.300489 3.030286 0.004443
v -0.238022 3.030306 0.000228
v -0.200379 3.033722 -0.140204
v -0.254478 3.034920 -0.167210
v -0.200379 3.033722 -0.140204
v -0.097538 3.036221 -0.243009
v -0.128772 3.038311 -0.292870
v -0.097538 3.036221 -0.243009
v 0.042944 3.037134 -0.280639
v 0.042944 3.039551 -0.338865
v 0.183427 3.036221 -0.243009
v 0.214661 3.038311 -0.292870
v 0.042944 3.039551 -0.338865
v 0.286269 3.033722 -0.140205
v 0.340367 3.034920 -0.167210
v 0.214661 3.038311 -0.292870
v 0.323911 3.030307 0.000228
v 0.386379 3.030286 0.004443
v 0.340367 3.034920 -0.167210
v -0.097538 3.024395 0.243467
v -0.097538 3.207599 0.253390
v -0.200379 3.210098 0.150585
v 0.323911 3.030307 0.000228
v 0.286269 3.033722 -0.140205
v 0.286269 3.216925 -0.130282
v 0.183427 3.024395 0.243467
v 0.286269 3.026895 0.140662
v 0.286269 3.210098 0.150585
v -0.097538 3.036221 -0.243009
v -0.097538 3.219424 -0.233087
v 0.042944 3.220338 -0.270717
v -0.200379 3.026895 0.140662
v -0.200379 3.210098 0.150585
v -0.238022 3.213510 0.010150
v 0.042944 3.023481 0.281096
v 0.183427 3.024395 0.243467
v 0.183427 3.207599 0.253390
v 0.183427 3.036221 -0.243009
v 0.042944 3.037134 -0.280639
v 0.042944 3.220338 -0.270717
v -0.238022 3.030306 0.000228
v -0.238022 3.213510 0.010150
v -0.200379 3.216926 -0.130282
v 0.042944 3.023481 0.281096
v 0.042945 3.206685 0.291019
v -0.097538 3.207599 0.253390
v 0.286269 3.033722 -0.140205
v 0.183427 3.036221 -0.243009
v 0.183427 3.219424 -0.233087
v 0.286269 3.026895 0.140662
v 0.323911 3.030307 0.000228
v 0.323911 3.213511 0.010150
v 0.183427 3.207599 0.253390
v 0.286269 3.210098 0.150585
v 0.183427 3.219424 -0.233087
v 0.286269 3.210098 0.150585
v 0.323911 3.213511 0.010150
v 0.183427 3.219424 -0.233087
v 0.323911 3.213511 0.010150
v 0.286269 3.216925 -0.130282
v 0.183427 3.219424 -0.233087
v 0.183427 3.219424 -0.233087
v 0.042944 3.220338 -0.270717
v -0.097538 3.207599 0.253390
v 0.042944 3.220338 -0.270717
v -0.097538 3.219424 -0.233087
v -0.097538 3.207599 0.253390
v -0.097538 3.219424 -0.233087
v -0.200379 3.216926 -0.130282
v -0.238022 3.213510 0.010150
v -0.238022 3.213510 0.010150
v -0.200379 3.210098 0.150585
v -0.097538 3.207599 0.253390
v -0.097538 3.207599 0.253390
v 0.042945 3.206685 0.291019
v 0.183427 3.219424 -0.233087
v 0.042945 3.206685 0.291019
v 0.183427 3.207599 0.253390
v 0.183427 3.219424 -0.233087
vt 0.313733 0.077021
vt 0.315597 0.103649
vt 0.315597 0.076972
vt 0.315597 0.076972
vt 0.317461 0.103613
vt 0.317461 0.076936
vt 0.317461 0.076936
vt 0.319326 0.103600
vt 0.319326 0.076924
vt 0.319326 0.103600
vt 0.321190 0.076936
vt 0.319326 0.076924
vt 0.321190 0.103613
vt 0.323055 0.076972
vt 0.321190 0.076936
vt 0.323055 0.103649
vt 0.324919 0.077021
vt 0.323055 0.076972
vt 0.302547 0.103698
vt 0.304411 0.077069
vt 0.302547 0.077021
vt 0.304411 0.103746
vt 0.306275 0.077105
vt 0.304411 0.077069
vt 0.306275 0.103782
vt 0.308140 0.077118
vt 0.306275 0.077105
vt 0.308140 0.077118
vt 0.310005 0.103782
vt 0.310005 0.077105
vt 0.979190 0.667768
vt 0.977307 0.669305
vt 0.979232 0.669293
vt 0.310005 0.077105
vt 0.311869 0.103746
vt 0.311869 0.077069
vt 0.311869 0.077069
vt 0.313733 0.103698
vt 0.313733 0.077021
vt 0.979375 0.510218
vt 0.980842 0.508669
vt 0.979375 0.508669
vt 0.934814 0.021774
vt 0.936587 0.021431
vt 0.936156 0.021000
vt 0.936156 0.021000
vt 0.937519 0.019816
vt 0.936930 0.019658
vt 0.936930 0.018109
vt 0.937519 0.019816
vt 0.937519 0.017951
vt 0.936930 0.018109
vt 0.936587 0.016336
vt 0.936156 0.016768
vt 0.934814 0.015993
vt 0.936587 0.016336
vt 0.934972 0.015404
vt 0.934814 0.015993
vt 0.933108 0.015404
vt 0.933265 0.015993
vt 0.931924 0.016768
vt 0.933108 0.015404
vt 0.931493 0.016336
vt 0.931149 0.018109
vt 0.931493 0.016336
vt 0.930561 0.017951
vt 0.931149 0.018109
vt 0.930561 0.019816
vt 0.931149 0.019658
vt 0.931924 0.021000
vt 0.930561 0.019816
vt 0.931493 0.021431
vt 0.933265 0.021774
vt 0.931493 0.021431
vt 0.933108 0.022363
vt 0.934814 0.021774
vt 0.933108 0.022363
vt 0.934972 0.022363
vt 0.570959 0.013691
vt 0.572301 0.018697
vt 0.575966 0.015032
vt 0.979375 0.511767
vt 0.980842 0.513316
vt 0.980842 0.511767
vt 0.979375 0.504022
vt 0.980842 0.505571
vt 0.980842 0.504022
vt 0.979375 0.517964
vt 0.980842 0.519513
vt 0.980842 0.517964
vt 0.979375 0.511767
vt 0.980842 0.510218
vt 0.979375 0.510218
vt 0.979375 0.514865
vt 0.980842 0.513316
vt 0.979375 0.513316
vt 0.979375 0.507120
vt 0.980842 0.505571
vt 0.979375 0.505571
vt 0.979375 0.521062
vt 0.980842 0.519513
vt 0.979375 0.519513
vt 0.979375 0.516414
vt 0.980842 0.514865
vt 0.979375 0.514865
vt 0.979375 0.507120
vt 0.980842 0.508669
vt 0.980842 0.507120
vt 0.979375 0.502473
vt 0.980842 0.504022
vt 0.980842 0.502473
vt 0.979375 0.516414
vt 0.980842 0.517964
vt 0.980842 0.516414
vt 0.979649 0.026748
vt 0.984662 0.028614
vt 0.982679 0.026571
vt 0.978713 0.028145
vt 0.978820 0.023844
vt 0.976900 0.023604
vt 0.984662 0.028614
vt 0.982773 0.023178
vt 0.982679 0.026571
vt 0.105644 0.013305
vt 0.104358 0.016503
vt 0.105752 0.017741
vt 0.980495 0.022084
vt 0.981877 0.019996
vt 0.979998 0.020031
vt 0.981457 0.022119
vt 0.983527 0.020712
vt 0.981877 0.019996
vt 0.982282 0.022530
vt 0.984662 0.021858
vt 0.983527 0.020712
vt 0.976900 0.023604
vt 0.979001 0.023101
vt 0.977281 0.022240
vt 0.979001 0.023101
vt 0.978336 0.020870
vt 0.977281 0.022240
vt 0.979611 0.022450
vt 0.979998 0.020031
vt 0.978336 0.020870
vt 0.622459 0.732599
vt 0.623016 0.733394
vt 0.623795 0.733754
vt 0.982228 0.086879
vt 0.981119 0.085495
vt 0.980907 0.086117
vt 0.982991 0.088201
vt 0.982734 0.086428
vt 0.982228 0.086879
vt 0.982991 0.089726
vt 0.983666 0.088043
vt 0.982991 0.088201
vt 0.982991 0.089726
vt 0.982734 0.091522
vt 0.983666 0.089907
vt 0.982228 0.091047
vt 0.981119 0.092454
vt 0.982734 0.091522
vt 0.980907 0.091810
vt 0.979254 0.092454
vt 0.981119 0.092454
vt 0.979381 0.091810
vt 0.977640 0.091522
vt 0.979254 0.092454
vt 0.978060 0.091047
vt 0.976707 0.089907
vt 0.977640 0.091522
vt 0.977298 0.089726
vt 0.976707 0.088042
vt 0.976707 0.089907
vt 0.978060 0.086879
vt 0.976707 0.088042
vt 0.977298 0.088201
vt 0.979382 0.086117
vt 0.977640 0.086428
vt 0.978060 0.086879
vt 0.980907 0.086117
vt 0.979254 0.085495
vt 0.979382 0.086117
vt 0.979158 0.681496
vt 0.977275 0.683033
vt 0.979200 0.683020
vt 0.979195 0.675394
vt 0.977305 0.673882
vt 0.977270 0.675407
vt 0.979138 0.678445
vt 0.977236 0.676932
vt 0.977214 0.678457
vt 0.979232 0.669293
vt 0.977329 0.670831
vt 0.979253 0.670818
vt 0.979200 0.683020
vt 0.977329 0.684557
vt 0.979253 0.684545
vt 0.979136 0.679970
vt 0.977214 0.678457
vt 0.977212 0.679982
vt 0.979251 0.672344
vt 0.977329 0.670831
vt 0.977327 0.672356
vt 0.979136 0.666244
vt 0.977266 0.667781
vt 0.979190 0.667768
vt 0.979136 0.679970
vt 0.977233 0.681508
vt 0.979158 0.681496
vt 0.979229 0.673869
vt 0.977327 0.672356
vt 0.977305 0.673882
vt 0.979161 0.676919
vt 0.977270 0.675407
vt 0.977236 0.676932
vt 0.523263 0.013384
vt 0.522500 0.016230
vt 0.524584 0.018314
vt 0.313733 0.077021
vt 0.313733 0.103698
vt 0.315597 0.103649
vt 0.315597 0.076972
vt 0.315597 0.103649
vt 0.317461 0.103613
vt 0.317461 0.076936
vt 0.317461 0.103613
vt 0.319326 0.103600
vt 0.319326 0.103600
vt 0.321190 0.103613
vt 0.321190 0.076936
vt 0.321190 0.103613
vt 0.323055 0.103649
vt 0.323055 0.076972
vt 0.323055 0.103649
vt 0.324919 0.103698
vt 0.324919 0.077021
vt 0.302547 0.103698
vt 0.304411 0.103746
vt 0.304411 0.077069
vt 0.304411 0.103746
vt 0.306275 0.103782
vt 0.306275 0.077105
vt 0.306275 0.103782
vt 0.308140 0.103795
vt 0.308140 0.077118
vt 0.308140 0.077118
vt 0.308140 0.103795
vt 0.310005 0.103782
vt 0.979190 0.667768
vt 0.977266 0.667781
vt 0.977307 0.669305
vt 0.310005 0.077105
vt 0.310005 0.103782
vt 0.311869 0.103746
vt 0.311869 0.077069
vt 0.311869 0.103746
vt 0.313733 0.103698
vt 0.979375 0.510218
vt 0.980842 0.510218
vt 0.980842 0.508669
vt 0.934814 0.021774
vt 0.934972 0.022363
vt 0.936587 0.021431
vt 0.936156 0.021000
vt 0.936587 0.021431
vt 0.937519 0.019816
vt 0.936930 0.018109
vt 0.936930 0.019658
vt 0.937519 0.019816
vt 0.936930 0.018109
vt 0.937519 0.017951
vt 0.936587 0.016336
vt 0.934814 0.015993
vt 0.936156 0.016768
vt 0.936587 0.016336
vt 0.934814 0.015993
vt 0.934972 0.015404
vt 0.933108 0.015404
vt 0.931924 0.016768
vt 0.933265 0.015993
vt 0.933108 0.015404
vt 0.931149 0.018109
vt 0.931924 0.016768
vt 0.931493 0.016336
vt 0.931149 0.018109
vt 0.930561 0.017951
vt 0.930561 0.019816
vt 0.931924 0.021000
vt 0.931149 0.019658
vt 0.930561 0.019816
vt 0.933265 0.021774
vt 0.931924 0.021000
vt 0.931493 0.021431
vt 0.934814 0.021774
vt 0.933265 0.021774
vt 0.933108 0.022363
vt 0.575966 0.015032
vt 0.575191 0.013691
vt 0.573850 0.012916
vt 0.573850 0.012916
vt 0.572301 0.012916
vt 0.575966 0.015032
vt 0.572301 0.012916
vt 0.570959 0.013691
vt 0.575966 0.015032
vt 0.570959 0.013691
vt 0.570185 0.015032
vt 0.572301 0.018697
vt 0.570185 0.015032
vt 0.570185 0.016581
vt 0.572301 0.018697
vt 0.570185 0.016581
vt 0.570959 0.017922
vt 0.572301 0.018697
vt 0.572301 0.018697
vt 0.573850 0.018697
vt 0.575191 0.017922
vt 0.575191 0.017922
vt 0.575966 0.016581
vt 0.572301 0.018697
vt 0.575966 0.016581
vt 0.575966 0.015032
vt 0.572301 0.018697
vt 0.979375 0.511767
vt 0.979375 0.513316
vt 0.980842 0.513316
vt 0.979375 0.504022
vt 0.979375 0.505571
vt 0.980842 0.505571
vt 0.979375 0.517964
vt 0.979375 0.519513
vt 0.980842 0.519513
vt 0.979375 0.511767
vt 0.980842 0.511767
vt 0.980842 0.510218
vt 0.979375 0.514865
vt 0.980842 0.514865
vt 0.980842 0.513316
vt 0.979375 0.507120
vt 0.980842 0.507120
vt 0.980842 0.505571
vt 0.979375 0.521062
vt 0.980842 0.521062
vt 0.980842 0.519513
vt 0.979375 0.516414
vt 0.980842 0.516414
vt 0.980842 0.514865
vt 0.979375 0.507120
vt 0.979375 0.508669
vt 0.980842 0.508669
vt 0.979375 0.502473
vt 0.979375 0.504022
vt 0.980842 0.504022
vt 0.979375 0.516414
vt 0.979375 0.517964
vt 0.980842 0.517964
vt 0.979649 0.026748
vt 0.978713 0.028145
vt 0.984662 0.028614
vt 0.978713 0.028145
vt 0.979649 0.026748
vt 0.978820 0.023844
vt 0.984662 0.028614
vt 0.984662 0.021858
vt 0.982773 0.023178
vt 0.105752 0.017741
vt 0.110104 0.017825
vt 0.110104 0.013207
vt 0.110104 0.013207
vt 0.105644 0.013305
vt 0.105752 0.017741
vt 0.105644 0.013305
vt 0.104866 0.013666
vt 0.104308 0.014460
vt 0.104122 0.015475
vt 0.105644 0.013305
vt 0.104308 0.014460
vt 0.104122 0.015475
vt 0.104358 0.016503
vt 0.105644 0.013305
vt 0.104358 0.016503
vt 0.104955 0.017333
vt 0.105752 0.017741
vt 0.980495 0.022084
vt 0.981457 0.022119
vt 0.981877 0.019996
vt 0.981457 0.022119
vt 0.982282 0.022530
vt 0.983527 0.020712
vt 0.982282 0.022530
vt 0.982773 0.023178
vt 0.984662 0.021858
vt 0.976900 0.023604
vt 0.978820 0.023844
vt 0.979001 0.023101
vt 0.979001 0.023101
vt 0.979611 0.022450
vt 0.978336 0.020870
vt 0.979611 0.022450
vt 0.980495 0.022084
vt 0.979998 0.020031
vt 0.623795 0.733754
vt 0.628255 0.733852
vt 0.623904 0.729318
vt 0.628255 0.733852
vt 0.628255 0.729234
vt 0.623904 0.729318
vt 0.623904 0.729318
vt 0.623106 0.729727
vt 0.622509 0.730556
vt 0.623795 0.733754
vt 0.622273 0.731584
vt 0.622459 0.732599
vt 0.622509 0.730556
vt 0.622273 0.731584
vt 0.623795 0.733754
vt 0.623904 0.729318
vt 0.622509 0.730556
vt 0.623795 0.733754
vt 0.982228 0.086879
vt 0.982734 0.086428
vt 0.981119 0.085495
vt 0.982991 0.088201
vt 0.983666 0.088043
vt 0.982734 0.086428
vt 0.982991 0.089726
vt 0.983666 0.089907
vt 0.983666 0.088043
vt 0.982991 0.089726
vt 0.982228 0.091047
vt 0.982734 0.091522
vt 0.982228 0.091047
vt 0.980907 0.091810
vt 0.981119 0.092454
vt 0.980907 0.091810
vt 0.979381 0.091810
vt 0.979254 0.092454
vt 0.979381 0.091810
vt 0.978060 0.091047
vt 0.977640 0.091522
vt 0.978060 0.091047
vt 0.977298 0.089726
vt 0.976707 0.089907
vt 0.977298 0.089726
vt 0.977298 0.088201
vt 0.976707 0.088042
vt 0.978060 0.086879
vt 0.977640 0.086428
vt 0.976707 0.088042
vt 0.979382 0.086117
vt 0.979254 0.085495
vt 0.977640 0.086428
vt 0.980907 0.086117
vt 0.981119 0.085495
vt 0.979254 0.085495
vt 0.979158 0.681496
vt 0.977233 0.681508
vt 0.977275 0.683033
vt 0.979195 0.675394
vt 0.979229 0.673869
vt 0.977305 0.673882
vt 0.979138 0.678445
vt 0.979161 0.676919
vt 0.977236 0.676932
vt 0.979232 0.669293
vt 0.977307 0.669305
vt 0.977329 0.670831
vt 0.979200 0.683020
vt 0.977275 0.683033
vt 0.977329 0.684557
vt 0.979136 0.679970
vt 0.979138 0.678445
vt 0.977214 0.678457
vt 0.979251 0.672344
vt 0.979253 0.670818
vt 0.977329 0.670831
vt 0.979136 0.666244
vt 0.977212 0.666256
vt 0.977266 0.667781
vt 0.979136 0.679970
vt 0.977212 0.679982
vt 0.977233 0.681508
vt 0.979229 0.673869
vt 0.979251 0.672344
vt 0.977327 0.672356
vt 0.979161 0.676919
vt 0.979195 0.675394
vt 0.977270 0.675407
vt 0.527431 0.017551
vt 0.528193 0.016230
vt 0.526110 0.012621
vt 0.528193 0.016230
vt 0.528193 0.014705
vt 0.526110 0.012621
vt 0.528193 0.014705
vt 0.527431 0.013384
vt 0.526110 0.012621
vt 0.526110 0.012621
vt 0.524584 0.012621
vt 0.524584 0.018314
vt 0.524584 0.012621
vt 0.523263 0.013384
vt 0.524584 0.018314
vt 0.523263 0.013384
vt 0.522500 0.014705
vt 0.522500 0.016230
vt 0.522500 0.016230
vt 0.523263 0.017551
vt 0.524584 0.018314
vt 0.524584 0.018314
vt 0.526110 0.018314
vt 0.526110 0.012621
vt 0.526110 0.018314
vt 0.527431 0.017551
vt 0.526110 0.012621
vn 0.999990 0.000000 0.004446
vn 0.867871 -0.000001 0.496790
vn 0.864020 -0.000001 0.503458
vn 0.864020 -0.000001 0.503458
vn 0.501797 -0.000002 0.864985
vn 0.497948 -0.000002 0.867207
vn 0.497948 -0.000002 0.867207
vn 0.000000 -0.000003 1.000000
vn -0.000000 -0.000003 1.000000
vn 0.000000 -0.000003 1.000000
vn -0.497948 -0.000003 0.867207
vn -0.000000 -0.000003 1.000000
vn -0.501798 -0.000003 0.864985
vn -0.864020 -0.000002 0.503457
vn -0.497948 -0.000003 0.867207
vn -0.867872 -0.000002 0.496789
vn -0.999990 -0.000000 0.004446
vn -0.864020 -0.000002 0.503457
vn -0.999990 -0.000000 -0.004448
vn -0.867872 0.000001 -0.496788
vn -0.999990 -0.000000 0.004446
vn -0.864021 0.000001 -0.503457
vn -0.501798 0.000003 -0.864985
vn -0.867872 0.000001 -0.496788
vn -0.497951 0.000002 -0.867205
vn 0.000000 0.000003 -1.000000
vn -0.501798 0.000003 -0.864985
vn 0.000000 0.000003 -1.000000
vn 0.497950 0.000003 -0.867206
vn 0.501797 0.000003 -0.864985
vn -0.863792 0.027248 -0.503112
vn -0.501956 0.046774 -0.863627
vn -0.497703 0.046907 -0.866078
vn 0.501797 0.000003 -0.864985
vn 0.864019 0.000002 -0.503459
vn 0.867871 0.000002 -0.496790
vn 0.867871 0.000002 -0.496790
vn 0.999990 0.000000 -0.004448
vn 0.999990 0.000000 0.004446
vn 0.866025 0.013487 -0.499820
vn 0.500000 0.023361 -0.865710
vn 0.499999 0.023360 -0.865711
vn 0.000000 -0.999636 -0.026974
vn 0.000002 -0.999636 -0.026974
vn 0.000001 -0.999636 -0.026975
vn 0.000001 -0.999636 -0.026975
vn -0.000002 -0.999636 -0.026982
vn -0.000004 -0.999636 -0.026984
vn 0.000000 -0.999636 -0.026979
vn -0.000002 -0.999636 -0.026982
vn 0.000000 -0.999636 -0.026978
vn 0.000000 -0.999636 -0.026979
vn 0.000003 -0.999636 -0.026982
vn 0.000004 -0.999636 -0.026984
vn 0.000000 -0.999636 -0.026975
vn 0.000003 -0.999636 -0.026982
vn -0.000000 -0.999636 -0.026974
vn 0.000000 -0.999636 -0.026975
vn -0.000000 -0.999636 -0.026973
vn 0.000000 -0.999636 -0.026973
vn -0.000001 -0.999636 -0.026976
vn -0.000000 -0.999636 -0.026973
vn -0.000001 -0.999636 -0.026976
vn -0.000001 -0.999636 -0.026976
vn -0.000001 -0.999636 -0.026976
vn -0.000001 -0.999636 -0.026976
vn -0.000001 -0.999636 -0.026976
vn 0.000000 -0.999636 -0.026972
vn 0.000000 -0.999636 -0.026971
vn 0.000000 -0.999636 -0.026974
vn 0.000000 -0.999636 -0.026972
vn 0.000001 -0.999636 -0.026975
vn 0.000001 -0.999636 -0.026976
vn 0.000001 -0.999636 -0.026975
vn 0.000001 -0.999636 -0.026976
vn 0.000000 -0.999636 -0.026974
vn 0.000001 -0.999636 -0.026976
vn 0.000000 -0.999636 -0.026974
vn 0.000000 -0.999636 -0.026975
vn 0.000000 -0.999636 -0.026975
vn -0.000001 -0.999636 -0.026976
vn 1.000000 0.000000 0.000000
vn 0.866024 -0.013488 0.499820
vn 1.000000 0.000000 -0.000000
vn -0.866025 0.013487 -0.499819
vn -0.500001 0.023360 -0.865710
vn -0.866025 0.013487 -0.499818
vn -0.500000 -0.023362 0.865710
vn -0.866025 -0.013488 0.499819
vn -0.500000 -0.023361 0.865710
vn 1.000000 0.000000 0.000000
vn 0.866025 0.013487 -0.499819
vn 0.866025 0.013487 -0.499820
vn 0.499999 -0.023362 0.865711
vn 0.866024 -0.013488 0.499820
vn 0.866024 -0.013487 0.499820
vn 0.000000 0.026975 -0.999636
vn -0.500001 0.023360 -0.865710
vn -0.500000 0.023360 -0.865710
vn -1.000000 0.000000 0.000000
vn -0.866025 -0.013488 0.499819
vn -0.866025 -0.013487 0.499819
vn 0.000000 -0.026975 0.999636
vn 0.499999 -0.023362 0.865711
vn 0.499999 -0.023362 0.865711
vn 0.000000 0.026975 -0.999636
vn 0.500000 0.023361 -0.865710
vn -0.000000 0.026975 -0.999636
vn -1.000000 0.000000 0.000000
vn -0.866025 0.013487 -0.499818
vn -1.000000 0.000000 -0.000000
vn 0.000000 -0.026975 0.999636
vn -0.500000 -0.023361 0.865710
vn 0.000000 -0.026973 0.999636
vn 0.000000 0.999654 0.026314
vn 0.000000 0.999654 0.026314
vn 0.000000 0.999654 0.026314
vn 0.000000 0.007056 -0.999975
vn 0.000000 -0.218231 -0.975897
vn 0.000000 -0.218232 -0.975897
vn 0.000000 -0.048318 0.998832
vn 0.000000 -0.251427 0.967876
vn 0.000000 -0.048318 0.998832
vn 1.000000 0.000000 0.000000
vn 1.000000 0.000000 0.000000
vn 1.000000 0.000000 0.000000
vn 0.000000 -0.998826 -0.048440
vn 0.000000 -0.932215 0.361905
vn 0.000000 -0.998826 -0.048440
vn 0.000000 -0.932215 0.361905
vn 0.000000 -0.661386 0.750046
vn 0.000000 -0.932215 0.361905
vn 0.000000 -0.661386 0.750046
vn 0.000000 -0.251426 0.967876
vn 0.000000 -0.661386 0.750046
vn 0.000000 -0.218232 -0.975897
vn 0.000000 -0.631811 -0.775122
vn 0.000000 -0.631812 -0.775122
vn 0.000000 -0.631811 -0.775122
vn 0.000000 -0.899972 -0.435947
vn 0.000000 -0.631812 -0.775122
vn 0.000000 -0.899972 -0.435947
vn 0.000000 -0.998826 -0.048440
vn 0.000000 -0.899972 -0.435947
vn -1.000000 0.000000 0.000000
vn -1.000000 0.000000 -0.000000
vn -1.000000 0.000000 0.000000
vn 0.003755 0.999603 0.027908
vn -0.000592 0.999657 0.026179
vn -0.002133 0.999668 0.025662
vn 0.004374 0.999426 0.033597
vn 0.004622 0.999568 0.029028
vn 0.003755 0.999603 0.027908
vn 0.000000 0.999335 0.036463
vn 0.004481 0.999398 0.034390
vn 0.004374 0.999426 0.033597
vn 0.000000 0.999335 0.036463
vn -0.004478 0.999398 0.034390
vn 0.000000 0.999321 0.036848
vn -0.004372 0.999426 0.033597
vn -0.004622 0.999568 0.029028
vn -0.004478 0.999398 0.034390
vn -0.003755 0.999603 0.027907
vn 0.000588 0.999657 0.026179
vn -0.004622 0.999568 0.029028
vn 0.002131 0.999668 0.025662
vn 0.006368 0.999539 0.029674
vn 0.000588 0.999657 0.026179
vn 0.007728 0.999519 0.030038
vn 0.006559 0.999292 0.037047
vn 0.006368 0.999539 0.029674
vn 0.007163 0.999266 0.037628
vn -0.000001 0.999158 0.041023
vn 0.006559 0.999292 0.037047
vn -0.007162 0.999266 0.037631
vn -0.000001 0.999158 0.041023
vn -0.000002 0.999140 0.041468
vn -0.007725 0.999519 0.030037
vn -0.006558 0.999292 0.037051
vn -0.007162 0.999266 0.037631
vn -0.002133 0.999668 0.025662
vn -0.006367 0.999539 0.029673
vn -0.007725 0.999519 0.030037
vn -0.501953 -0.046776 0.863629
vn -0.863790 -0.027250 0.503114
vn -0.868047 -0.026851 0.495756
vn 0.999988 0.000266 -0.004907
vn 0.868045 0.026850 -0.495760
vn 0.999988 -0.000266 0.004904
vn 0.501952 -0.046775 0.863630
vn 0.863790 -0.027249 0.503114
vn 0.497699 -0.046908 0.866080
vn -0.497703 0.046907 -0.866078
vn 0.000001 0.054081 -0.998537
vn 0.000000 0.054081 -0.998537
vn -0.868047 -0.026851 0.495756
vn -0.999988 -0.000266 0.004904
vn -0.999988 0.000266 -0.004907
vn -0.000000 -0.054082 0.998537
vn 0.497699 -0.046908 0.866080
vn 0.000001 -0.054081 0.998537
vn 0.497701 0.046907 -0.866079
vn 0.000001 0.054081 -0.998537
vn 0.501954 0.046774 -0.863629
vn -0.999988 0.000266 -0.004907
vn -0.868045 0.026850 -0.495758
vn -0.863792 0.027248 -0.503112
vn -0.000000 -0.054082 0.998537
vn -0.497700 -0.046908 0.866080
vn -0.501953 -0.046776 0.863629
vn 0.863790 0.027248 -0.503115
vn 0.501954 0.046774 -0.863629
vn 0.868045 0.026850 -0.495760
vn 0.868046 -0.026851 0.495757
vn 0.999988 -0.000266 0.004904
vn 0.863790 -0.027249 0.503114
vn 0.000008 0.999705 0.024302
vn -0.000008 0.999705 0.024302
vn -0.000004 0.999705 0.024298
vn 0.999990 0.000000 0.004446
vn 0.999990 0.000000 -0.004448
vn 0.867871 -0.000001 0.496790
vn 0.864020 -0.000001 0.503458
vn 0.867871 -0.000001 0.496790
vn 0.501797 -0.000002 0.864985
vn 0.497948 -0.000002 0.867207
vn 0.501797 -0.000002 0.864985
vn 0.000000 -0.000003 1.000000
vn 0.000000 -0.000003 1.000000
vn -0.501798 -0.000003 0.864985
vn -0.497948 -0.000003 0.867207
vn -0.501798 -0.000003 0.864985
vn -0.867872 -0.000002 0.496789
vn -0.864020 -0.000002 0.503457
vn -0.867872 -0.000002 0.496789
vn -0.999990 -0.000000 -0.004448
vn -0.999990 -0.000000 0.004446
vn -0.999990 -0.000000 -0.004448
vn -0.864021 0.000001 -0.503457
vn -0.867872 0.000001 -0.496788
vn -0.864021 0.000001 -0.503457
vn -0.497951 0.000002 -0.867205
vn -0.501798 0.000003 -0.864985
vn -0.497951 0.000002 -0.867205
vn 0.000001 0.000003 -1.000000
vn 0.000000 0.000003 -1.000000
vn 0.000000 0.000003 -1.000000
vn 0.000001 0.000003 -1.000000
vn 0.497950 0.000003 -0.867206
vn -0.863792 0.027248 -0.503112
vn -0.868045 0.026850 -0.495758
vn -0.501956 0.046774 -0.863627
vn 0.501797 0.000003 -0.864985
vn 0.497950 0.000003 -0.867206
vn 0.864019 0.000002 -0.503459
vn 0.867871 0.000002 -0.496790
vn 0.864019 0.000002 -0.503459
vn 0.999990 0.000000 -0.004448
vn 0.866025 0.013487 -0.499820
vn 0.866025 0.013487 -0.499819
vn 0.500000 0.023361 -0.865710
vn 0.000000 -0.999636 -0.026974
vn 0.000000 -0.999636 -0.026974
vn 0.000002 -0.999636 -0.026974
vn 0.000001 -0.999636 -0.026975
vn 0.000002 -0.999636 -0.026974
vn -0.000002 -0.999636 -0.026982
vn 0.000000 -0.999636 -0.026979
vn -0.000004 -0.999636 -0.026984
vn -0.000002 -0.999636 -0.026982
vn 0.000000 -0.999636 -0.026979
vn 0.000000 -0.999636 -0.026978
vn 0.000003 -0.999636 -0.026982
vn 0.000000 -0.999636 -0.026975
vn 0.000004 -0.999636 -0.026984
vn 0.000003 -0.999636 -0.026982
vn 0.000000 -0.999636 -0.026975
vn -0.000000 -0.999636 -0.026974
vn -0.000000 -0.999636 -0.026973
vn -0.000001 -0.999636 -0.026976
vn 0.000000 -0.999636 -0.026973
vn -0.000000 -0.999636 -0.026973
vn -0.000001 -0.999636 -0.026976
vn -0.000001 -0.999636 -0.026976
vn -0.000001 -0.999636 -0.026976
vn -0.000001 -0.999636 -0.026976
vn -0.000001 -0.999636 -0.026976
vn 0.000000 -0.999636 -0.026972
vn 0.000000 -0.999636 -0.026974
vn 0.000000 -0.999636 -0.026971
vn 0.000000 -0.999636 -0.026972
vn 0.000001 -0.999636 -0.026976
vn 0.000000 -0.999636 -0.026974
vn 0.000001 -0.999636 -0.026975
vn 0.000000 -0.999636 -0.026974
vn 0.000001 -0.999636 -0.026976
vn 0.000001 -0.999636 -0.026976
vn -0.000001 -0.999636 -0.026976
vn -0.000012 -0.999636 -0.026974
vn 0.000003 -0.999636 -0.026974
vn 0.000003 -0.999636 -0.026974
vn -0.000001 -0.999636 -0.026976
vn -0.000001 -0.999636 -0.026976
vn -0.000001 -0.999636 -0.026976
vn 0.000000 -0.999636 -0.026975
vn -0.000001 -0.999636 -0.026976
vn 0.000000 -0.999636 -0.026975
vn 0.000000 -0.999636 -0.026975
vn 0.000000 -0.999636 -0.026975
vn 0.000000 -0.999636 -0.026975
vn -0.000005 -0.999636 -0.026973
vn 0.000000 -0.999636 -0.026975
vn -0.000005 -0.999636 -0.026973
vn 0.000010 -0.999636 -0.026973
vn 0.000000 -0.999636 -0.026975
vn 0.000000 -0.999636 -0.026975
vn -0.000005 -0.999636 -0.026985
vn 0.000001 -0.999636 -0.026973
vn 0.000001 -0.999636 -0.026973
vn 0.000001 -0.999636 -0.026977
vn 0.000000 -0.999636 -0.026975
vn 0.000001 -0.999636 -0.026977
vn -0.000001 -0.999636 -0.026976
vn 0.000000 -0.999636 -0.026975
vn 1.000000 0.000000 0.000000
vn 0.866024 -0.013487 0.499820
vn 0.866024 -0.013488 0.499820
vn -0.866025 0.013487 -0.499819
vn -0.500000 0.023360 -0.865710
vn -0.500001 0.023360 -0.865710
vn -0.500000 -0.023362 0.865710
vn -0.866025 -0.013487 0.499819
vn -0.866025 -0.013488 0.499819
vn 1.000000 0.000000 0.000000
vn 1.000000 0.000000 -0.000000
vn 0.866025 0.013487 -0.499819
vn 0.499999 -0.023362 0.865711
vn 0.499999 -0.023362 0.865711
vn 0.866024 -0.013488 0.499820
vn 0.000000 0.026975 -0.999636
vn -0.000000 0.026975 -0.999636
vn -0.500001 0.023360 -0.865710
vn -1.000000 0.000000 0.000000
vn -1.000000 0.000000 -0.000000
vn -0.866025 -0.013488 0.499819
vn 0.000000 -0.026975 0.999636
vn 0.000000 -0.026973 0.999636
vn 0.499999 -0.023362 0.865711
vn 0.000000 0.026975 -0.999636
vn 0.499999 0.023360 -0.865711
vn 0.500000 0.023361 -0.865710
vn -1.000000 0.000000 0.000000
vn -0.866025 0.013487 -0.499819
vn -0.866025 0.013487 -0.499818
vn 0.000000 -0.026975 0.999636
vn -0.500000 -0.023362 0.865710
vn -0.500000 -0.023361 0.865710
vn 0.000000 0.999654 0.026314
vn 0.000000 0.999654 0.026314
vn 0.000000 0.999654 0.026314
vn 0.000000 0.007056 -0.999975
vn 0.000000 0.007056 -0.999975
vn 0.000000 -0.218231 -0.975897
vn 0.000000 -0.048318 0.998832
vn 0.000000 -0.251426 0.967876
vn 0.000000 -0.251427 0.967876
vn 1.000000 0.000000 0.000000
vn 1.000000 0.000000 0.000000
vn 1.000000 0.000000 0.000000
vn 1.000000 0.000000 0.000000
vn 1.000000 0.000000 0.000000
vn 1.000000 0.000000 0.000000
vn 1.000000 0.000000 0.000000
vn 1.000000 0.000000 -0.000000
vn 1.000000 -0.000000 -0.000000
vn 1.000000 0.000000 0.000000
vn 1.000000 0.000000 0.000000
vn 1.000000 -0.000000 -0.000000
vn 1.000000 0.000000 0.000000
vn 1.000000 0.000000 0.000000
vn 1.000000 0.000000 0.000000
vn 1.000000 0.000000 0.000000
vn 1.000000 0.000000 0.000000
vn 1.000000 0.000000 0.000000
vn 0.000000 -0.998826 -0.048440
vn 0.000000 -0.932215 0.361905
vn 0.000000 -0.932215 0.361905
vn 0.000000 -0.932215 0.361905
vn 0.000000 -0.661386 0.750046
vn 0.000000 -0.661386 0.750046
vn 0.000000 -0.661386 0.750046
vn 0.000000 -0.251427 0.967876
vn 0.000000 -0.251426 0.967876
vn 0.000000 -0.218232 -0.975897
vn 0.000000 -0.218231 -0.975897
vn 0.000000 -0.631811 -0.775122
vn 0.000000 -0.631811 -0.775122
vn 0.000000 -0.899972 -0.435947
vn 0.000000 -0.899972 -0.435947
vn 0.000000 -0.899972 -0.435947
vn 0.000000 -0.998826 -0.048440
vn 0.000000 -0.998826 -0.048440
vn -1.000000 0.000000 0.000000
vn -1.000000 0.000000 0.000000
vn -1.000000 0.000000 0.000000
vn -1.000000 0.000000 0.000000
vn -1.000000 0.000000 0.000000
vn -1.000000 0.000000 0.000000
vn -1.000000 0.000000 0.000000
vn -1.000000 0.000000 0.000000
vn -1.000000 0.000000 0.000000
vn -1.000000 0.000000 0.000000
vn -1.000000 0.000000 0.000000
vn -1.000000 0.000000 0.000000
vn -1.000000 0.000000 0.000000
vn -1.000000 0.000000 0.000000
vn -1.000000 0.000000 0.000000
vn -1.000000 0.000000 0.000000
vn -1.000000 0.000000 0.000000
vn -1.000000 0.000000 0.000000
vn 0.003755 0.999603 0.027908
vn 0.004622 0.999568 0.029028
vn -0.000592 0.999657 0.026179
vn 0.004374 0.999426 0.033597
vn 0.004481 0.999398 0.034390
vn 0.004622 0.999568 0.029028
vn 0.000000 0.999335 0.036463
vn 0.000000 0.999321 0.036848
vn 0.004481 0.999398 0.034390
vn 0.000000 0.999335 0.036463
vn -0.004372 0.999426 0.033597
vn -0.004478 0.999398 0.034390
vn -0.004372 0.999426 0.033597
vn -0.003755 0.999603 0.027907
vn -0.004622 0.999568 0.029028
vn -0.003755 0.999603 0.027907
vn 0.002131 0.999668 0.025662
vn 0.000588 0.999657 0.026179
vn 0.002131 0.999668 0.025662
vn 0.007728 0.999519 0.030038
vn 0.006368 0.999539 0.029674
vn 0.007728 0.999519 0.030038
vn 0.007163 0.999266 0.037628
vn 0.006559 0.999292 0.037047
vn 0.007163 0.999266 0.037628
vn -0.000002 0.999140 0.041468
vn -0.000001 0.999158 0.041023
vn -0.007162 0.999266 0.037631
vn -0.006558 0.999292 0.037051
vn -0.000001 0.999158 0.041023
vn -0.007725 0.999519 0.030037
vn -0.006367 0.999539 0.029673
vn -0.006558 0.999292 0.037051
vn -0.002133 0.999668 0.025662
vn -0.000592 0.999657 0.026179
vn -0.006367 0.999539 0.029673
vn -0.501953 -0.046776 0.863629
vn -0.497700 -0.046908 0.866080
vn -0.863790 -0.027250 0.503114
vn 0.999988 0.000266 -0.004907
vn 0.863790 0.027248 -0.503115
vn 0.868045 0.026850 -0.495760
vn 0.501952 -0.046775 0.863630
vn 0.868046 -0.026851 0.495757
vn 0.863790 -0.027249 0.503114
vn -0.497703 0.046907 -0.866078
vn -0.501956 0.046774 -0.863627
vn 0.000001 0.054081 -0.998537
vn -0.868047 -0.026851 0.495756
vn -0.863790 -0.027250 0.503114
vn -0.999988 -0.000266 0.004904
vn -0.000000 -0.054082 0.998537
vn 0.501952 -0.046775 0.863630
vn 0.497699 -0.046908 0.866080
vn 0.497701 0.046907 -0.866079
vn 0.000000 0.054081 -0.998537
vn 0.000001 0.054081 -0.998537
vn -0.999988 0.000266 -0.004907
vn -0.999988 -0.000266 0.004904
vn -0.868045 0.026850 -0.495758
vn -0.000000 -0.054082 0.998537
vn 0.000001 -0.054081 0.998537
vn -0.497700 -0.046908 0.866080
vn 0.863790 0.027248 -0.503115
vn 0.497701 0.046907 -0.866079
vn 0.501954 0.046774 -0.863629
vn 0.868046 -0.026851 0.495757
vn 0.999988 0.000266 -0.004907
vn 0.999988 -0.000266 0.004904
vn 0.000004 0.999705 0.024300
vn 0.000005 0.999705 0.024300
vn -0.000003 0.999705 0.024299
vn 0.000005 0.999705 0.024300
vn 0.000006 0.999705 0.024299
vn -0.000003 0.999705 0.024299
vn 0.000006 0.999705 0.024299
vn -0.000011 0.999704 0.024308
vn -0.000003 0.999705 0.024299
vn -0.000003 0.999705 0.024299
vn 0.000001 0.999705 0.024298
vn -0.000004 0.999705 0.024298
vn 0.000001 0.999705 0.024298
vn 0.000008 0.999705 0.024302
vn -0.000004 0.999705 0.024298
vn 0.000008 0.999705 0.024302
vn 0.000028 0.999704 0.024323
vn -0.000008 0.999705 0.024302
vn -0.000008 0.999705 0.024302
vn -0.000006 0.999705 0.024294
vn -0.000004 0.999705 0.024298
vn -0.000004 0.999705 0.024298
vn -0.000000 0.999705 0.024299
vn -0.000003 0.999705 0.024299
vn -0.000000 0.999705 0.024299
vn 0.000004 0.999705 0.024300
vn -0.000003 0.999705 0.024299
f 1/1/1 2/2/2 3/3/3
f 4/4/4 5/5/5 6/6/6
f 7/7/7 8/8/8 9/9/9
f 10/10/10 11/11/11 12/12/12
f 13/13/13 14/14/14 15/15/15
f 16/16/16 17/17/17 18/18/18
f 19/19/19 20/20/20 21/21/21
f 22/22/22 23/23/23 24/24/24
f 25/25/25 26/26/26 27/27/27
f 28/28/28 29/29/29 30/30/30
f 31/31/31 32/32/32 33/33/33
f 34/34/34 35/35/35 36/36/36
f 37/37/37 38/38/38 39/39/39
f 40/40/40 41/41/41 42/42/42
f 43/43/43 44/44/44 45/45/45
f 46/46/46 47/47/47 48/48/48
f 49/49/49 50/50/50 51/51/51
f 52/52/52 53/53/53 54/54/54
f 55/55/55 56/56/56 57/57/57
f 58/58/58 59/59/59 60/60/60
f 61/61/61 62/62/62 63/63/63
f 64/64/64 65/65/65 66/66/66
f 67/67/67 68/68/68 69/69/69
f 70/70/70 71/71/71 72/72/72
f 73/73/73 74/74/74 75/75/75
f 76/76/76 77/77/77 78/78/78
f 79/79/79 80/80/80 81/81/81
f 82/82/82 83/83/83 84/84/84
f 85/85/85 86/86/86 87/87/87
f 88/88/88 89/89/89 90/90/90
f 91/91/91 92/92/92 93/93/93
f 94/94/94 95/95/95 96/96/96
f 97/97/97 98/98/98 99/99/99
f 100/100/100 101/101/101 102/102/102
f 103/103/103 104/104/104 105/105/105
f 106/106/106 107/107/107 108/108/108
f 109/109/109 110/110/110 111/111/111
f 112/112/112 113/113/113 114/114/114
f 115/115/115 116/116/116 117/117/117
f 118/118/118 119/119/119 120/120/120
f 121/121/121 122/122/122 123/123/123
f 124/124/124 125/125/125 126/126/126
f 127/127/127 128/128/128 129/129/129
f 130/130/130 131/131/131 132/132/132
f 133/133/133 134/134/134 135/135/135
f 136/136/136 137/137/137 138/138/138
f 139/139/139 140/140/140 141/141/141
f 142/142/142 143/143/143 144/144/144
f 145/145/145 146/146/146 147/147/147
f 148/148/148 149/149/149 150/150/150
f 151/151/151 152/152/152 153/153/153
f 154/154/154 155/155/155 156/156/156
f 157/157/157 158/158/158 159/159/159
f 160/160/160 161/161/161 162/162/162
f 163/163/163 164/164/164 165/165/165
f 166/166/166 167/167/167 168/168/168
f 169/169/169 170/170/170 171/171/171
f 172/172/172 173/173/173 174/174/174
f 175/175/175 176/176/176 177/177/177
f 178/178/178 179/179/179 180/180/180
f 181/181/181 182/182/182 183/183/183
f 184/184/184 185/185/185 186/186/186
f 187/187/187 188/188/188 189/189/189
f 190/190/190 191/191/191 192/192/192
f 193/193/193 194/194/194 195/195/195
f 196/196/196 197/197/197 198/198/198
f 199/199/199 200/200/200 201/201/201
f 202/202/202 203/203/203 204/204/204
f 205/205/205 206/206/206 207/207/207
f 208/208/208 209/209/209 210/210/210
f 211/211/211 212/212/212 213/213/213
f 214/214/214 215/215/215 216/216/216
f 217/217/217 218/218/218 219/219/219
f 220/220/220 221/221/221 222/222/222
f 223/223/223 224/224/224 225/225/225
f 226/226/226 227/227/227 228/228/228
f 229/229/229 230/230/230 231/231/231
f 232/232/232 233/233/233 234/234/234
f 235/235/235 236/236/236 237/237/237
f 238/238/238 239/239/239 240/240/240
f 241/241/241 242/242/242 243/243/243
f 244/244/244 245/245/245 246/246/246
f 247/247/247 248/248/248 249/249/249
f 250/250/250 251/251/251 252/252/252
f 253/253/253 254/254/254 255/255/255
f 256/256/256 257/257/257 258/258/258
f 259/259/259 260/260/260 261/261/261
f 262/262/262 263/263/263 264/264/264
f 265/265/265 266/266/266 267/267/267
f 268/268/268 269/269/269 270/270/270
f 271/271/271 272/272/272 273/273/273
f 274/274/274 275/275/275 276/276/276
f 277/277/277 278/278/278 279/279/279
f 280/280/280 281/281/281 282/282/282
f 283/283/283 284/284/284 285/285/285
f 286/286/286 287/287/287 288/288/288
f 289/289/289 290/290/290 291/291/291
f 292/292/292 293/293/293 294/294/294
f 295/295/295 296/296/296 297/297/297
f 298/298/298 299/299/299 300/300/300
f 301/301/301 302/302/302 303/303/303
f 304/304/304 305/305/305 306/306/306
f 307/307/307 308/308/308 309/309/309
f 310/310/310 311/311/311 312/312/312
f 313/313/313 314/314/314 315/315/315
f 316/316/316 317/317/317 318/318/318
f 319/319/319 320/320/320 321/321/321
f 322/322/322 323/323/323 324/324/324
f 325/325/325 326/326/326 327/327/327
f 328/328/328 329/329/329 330/330/330
f 331/331/331 332/332/332 333/333/333
f 334/334/334 335/335/335 336/336/336
f 337/337/337 338/338/338 339/339/339
f 340/340/340 341/341/341 342/342/342
f 343/343/343 344/344/344 345/345/345
f 346/346/346 347/347/347 348/348/348
f 349/349/349 350/350/350 351/351/351
f 352/352/352 353/353/353 354/354/354
f 355/355/355 356/356/356 357/357/357
f 358/358/358 359/359/359 360/360/360
f 361/361/361 362/362/362 363/363/363
f 364/364/364 365/365/365 366/366/366
f 367/367/367 368/368/368 369/369/369
f 370/370/370 371/371/371 372/372/372
f 373/373/373 374/374/374 375/375/375
f 376/376/376 377/377/377 378/378/378
f 379/379/379 380/380/380 381/381/381
f 382/382/382 383/383/383 384/384/384
f 385/385/385 386/386/386 387/387/387
f 388/388/388 389/389/389 390/390/390
f 391/391/391 392/392/392 393/393/393
f 394/394/394 395/395/395 396/396/396
f 397/397/397 398/398/398 399/399/399
f 400/400/400 401/401/401 402/402/402
f 403/403/403 404/404/404 405/405/405
f 406/406/406 407/407/407 408/408/408
f 409/409/409 410/410/410 411/411/411
f 412/412/412 413/413/413 414/414/414
f 415/415/415 416/416/416 417/417/417
f 418/418/418 419/419/419 420/420/420
f 421/421/421 422/422/422 423/423/423
f 424/424/424 425/425/425 426/426/426
f 427/427/427 428/428/428 429/429/429
f 430/430/430 431/431/431 432/432/432
f 433/433/433 434/434/434 435/435/435
f 436/436/436 437/437/437 438/438/438
f 439/439/439 440/440/440 441/441/441
f 442/442/442 443/443/443 444/444/444
f 445/445/445 446/446/446 447/447/447
f 448/448/448 449/449/449 450/450/450
f 451/451/451 452/452/452 453/453/453
f 454/454/454 455/455/455 456/456/456
f 457/457/457 458/458/458 459/459/459
f 460/460/460 461/461/461 462/462/462
f 463/463/463 464/464/464 465/465/465
f 466/466/466 467/467/467 468/468/468
f 469/469/469 470/470/470 471/471/471
f 472/472/472 473/473/473 474/474/474
f 475/475/475 476/476/476 477/477/477
f 478/478/478 479/479/479 480/480/480
f 481/481/481 482/482/482 483/483/483
f 484/484/484 485/485/485 486/486/486
f 487/487/487 488/488/488 489/489/489
f 490/490/490 491/491/491 492/492/492
f 493/493/493 494/494/494 495/495/495
f 496/496/496 497/497/497 498/498/498
f 499/499/499 500/500/500 501/501/501
f 502/502/502 503/503/503 504/504/504
f 505/505/505 506/506/506 507/507/507
f 508/508/508 509/509/509 510/510/510
f 511/511/511 512/512/512 513/513/513
f 514/514/514 515/515/515 516/516/516
